<mxfile host="app.diagrams.net" agent="Mozilla/5.0 (Windows NT 10.0; Win64; x64) AppleWebKit/537.36 (KHTML, like Gecko) Chrome/136.0.0.0 Safari/537.36" version="27.0.6">
  <diagram name="Sayfa -1" id="vg3GcVwYxEOQrWxKEL96">
    <mxGraphModel dx="5043" dy="3392" grid="1" gridSize="10" guides="1" tooltips="1" connect="1" arrows="1" fold="1" page="1" pageScale="1" pageWidth="827" pageHeight="1169" math="0" shadow="0">
      <root>
        <mxCell id="0" />
        <mxCell id="1" parent="0" />
        <mxCell id="YZ9Vr9Id5WJVoP7LfM_h-2" style="edgeStyle=none;shape=connector;rounded=0;orthogonalLoop=1;jettySize=auto;html=1;exitX=0.75;exitY=0;exitDx=0;exitDy=0;entryX=0.5;entryY=1;entryDx=0;entryDy=0;strokeColor=default;align=center;verticalAlign=middle;fontFamily=Helvetica;fontSize=11;fontColor=default;labelBackgroundColor=default;startFill=0;endArrow=none;" parent="1" source="EaoSCeDMWYsuYTVSq__j-1" target="8fD-S27WqBdFzqs_7WYE-12" edge="1">
          <mxGeometry relative="1" as="geometry" />
        </mxCell>
        <mxCell id="YZ9Vr9Id5WJVoP7LfM_h-11" style="edgeStyle=none;shape=connector;rounded=0;orthogonalLoop=1;jettySize=auto;html=1;exitX=1;exitY=0.25;exitDx=0;exitDy=0;entryX=0;entryY=0.5;entryDx=0;entryDy=0;strokeColor=default;align=center;verticalAlign=middle;fontFamily=Helvetica;fontSize=11;fontColor=default;labelBackgroundColor=default;startFill=0;endArrow=none;" parent="1" source="EaoSCeDMWYsuYTVSq__j-1" target="EaoSCeDMWYsuYTVSq__j-12" edge="1">
          <mxGeometry relative="1" as="geometry" />
        </mxCell>
        <mxCell id="YZ9Vr9Id5WJVoP7LfM_h-12" style="edgeStyle=none;shape=connector;rounded=0;orthogonalLoop=1;jettySize=auto;html=1;exitX=1;exitY=0.5;exitDx=0;exitDy=0;entryX=0;entryY=0.5;entryDx=0;entryDy=0;strokeColor=default;align=center;verticalAlign=middle;fontFamily=Helvetica;fontSize=11;fontColor=default;labelBackgroundColor=default;startFill=0;endArrow=none;" parent="1" source="EaoSCeDMWYsuYTVSq__j-1" target="8fD-S27WqBdFzqs_7WYE-23" edge="1">
          <mxGeometry relative="1" as="geometry" />
        </mxCell>
        <mxCell id="YZ9Vr9Id5WJVoP7LfM_h-18" style="edgeStyle=none;shape=connector;rounded=0;orthogonalLoop=1;jettySize=auto;html=1;exitX=1;exitY=0;exitDx=0;exitDy=0;entryX=0;entryY=0.5;entryDx=0;entryDy=0;strokeColor=default;align=center;verticalAlign=middle;fontFamily=Helvetica;fontSize=11;fontColor=default;labelBackgroundColor=default;startFill=0;endArrow=none;" parent="1" source="EaoSCeDMWYsuYTVSq__j-1" target="EaoSCeDMWYsuYTVSq__j-7" edge="1">
          <mxGeometry relative="1" as="geometry" />
        </mxCell>
        <mxCell id="EaoSCeDMWYsuYTVSq__j-1" value="MÜŞTERİ" style="rounded=0;whiteSpace=wrap;html=1;fillColor=#f8cecc;strokeColor=#b85450;" parent="1" vertex="1">
          <mxGeometry x="328.03" y="-945" width="120" height="60" as="geometry" />
        </mxCell>
        <mxCell id="EaoSCeDMWYsuYTVSq__j-6" value="web&lt;div&gt;sitesi&lt;/div&gt;" style="ellipse;whiteSpace=wrap;html=1;" parent="1" vertex="1">
          <mxGeometry x="775.03" y="-990" width="70" height="50" as="geometry" />
        </mxCell>
        <mxCell id="EaoSCeDMWYsuYTVSq__j-7" value="Fax" style="ellipse;whiteSpace=wrap;html=1;" parent="1" vertex="1">
          <mxGeometry x="766.03" y="-1050" width="70" height="50" as="geometry" />
        </mxCell>
        <mxCell id="EaoSCeDMWYsuYTVSq__j-8" value="Telefon" style="ellipse;whiteSpace=wrap;html=1;" parent="1" vertex="1">
          <mxGeometry x="739.03" y="-1125" width="70" height="50" as="geometry" />
        </mxCell>
        <mxCell id="EaoSCeDMWYsuYTVSq__j-11" value="e-posta" style="ellipse;whiteSpace=wrap;html=1;" parent="1" vertex="1">
          <mxGeometry x="696.03" y="-1180" width="70" height="50" as="geometry" />
        </mxCell>
        <mxCell id="EaoSCeDMWYsuYTVSq__j-12" value="aktif&lt;div&gt;risk toplamı&lt;/div&gt;" style="ellipse;whiteSpace=wrap;html=1;" parent="1" vertex="1">
          <mxGeometry x="775.03" y="-930" width="70" height="50" as="geometry" />
        </mxCell>
        <mxCell id="EaoSCeDMWYsuYTVSq__j-13" value="Cari Hesap&lt;div&gt;Unvanı&lt;/div&gt;" style="ellipse;whiteSpace=wrap;html=1;align=center;" parent="1" vertex="1">
          <mxGeometry x="308.03" y="-1260" width="70" height="50" as="geometry" />
        </mxCell>
        <mxCell id="EaoSCeDMWYsuYTVSq__j-14" value="cariHesap&lt;div&gt;Kodu&lt;/div&gt;" style="ellipse;whiteSpace=wrap;html=1;" parent="1" vertex="1">
          <mxGeometry x="113.03" y="-1190" width="70" height="50" as="geometry" />
        </mxCell>
        <mxCell id="8fD-S27WqBdFzqs_7WYE-5" value="olur" style="rhombus;whiteSpace=wrap;html=1;" parent="1" vertex="1">
          <mxGeometry x="248.03" y="-779.69" width="80" height="65" as="geometry" />
        </mxCell>
        <mxCell id="YZ9Vr9Id5WJVoP7LfM_h-24" style="edgeStyle=none;shape=connector;rounded=0;orthogonalLoop=1;jettySize=auto;html=1;exitX=0.5;exitY=0;exitDx=0;exitDy=0;entryX=0;entryY=1;entryDx=0;entryDy=0;strokeColor=default;align=center;verticalAlign=middle;fontFamily=Helvetica;fontSize=11;fontColor=default;labelBackgroundColor=default;startFill=0;endArrow=none;" parent="1" source="8fD-S27WqBdFzqs_7WYE-6" target="8fD-S27WqBdFzqs_7WYE-5" edge="1">
          <mxGeometry relative="1" as="geometry" />
        </mxCell>
        <mxCell id="YZ9Vr9Id5WJVoP7LfM_h-116" value="&lt;font style=&quot;font-size: 20px;&quot;&gt;1&lt;/font&gt;" style="edgeLabel;html=1;align=center;verticalAlign=middle;resizable=0;points=[];fontFamily=Helvetica;fontSize=11;fontColor=default;labelBackgroundColor=default;" parent="YZ9Vr9Id5WJVoP7LfM_h-24" vertex="1" connectable="0">
          <mxGeometry x="0.0253" y="1" relative="1" as="geometry">
            <mxPoint as="offset" />
          </mxGeometry>
        </mxCell>
        <mxCell id="YZ9Vr9Id5WJVoP7LfM_h-118" value="&lt;font style=&quot;font-size: 20px;&quot;&gt;1&lt;/font&gt;" style="edgeLabel;html=1;align=center;verticalAlign=middle;resizable=0;points=[];fontFamily=Helvetica;fontSize=11;fontColor=default;labelBackgroundColor=default;" parent="YZ9Vr9Id5WJVoP7LfM_h-24" vertex="1" connectable="0">
          <mxGeometry x="-0.0126" y="1" relative="1" as="geometry">
            <mxPoint as="offset" />
          </mxGeometry>
        </mxCell>
        <mxCell id="YZ9Vr9Id5WJVoP7LfM_h-79" style="edgeStyle=none;shape=connector;rounded=0;orthogonalLoop=1;jettySize=auto;html=1;exitX=1;exitY=1;exitDx=0;exitDy=0;entryX=0;entryY=0;entryDx=0;entryDy=0;strokeColor=default;align=center;verticalAlign=middle;fontFamily=Helvetica;fontSize=11;fontColor=default;labelBackgroundColor=default;startFill=0;endArrow=none;" parent="1" source="8fD-S27WqBdFzqs_7WYE-6" target="8fD-S27WqBdFzqs_7WYE-108" edge="1">
          <mxGeometry relative="1" as="geometry" />
        </mxCell>
        <mxCell id="YZ9Vr9Id5WJVoP7LfM_h-135" value="&lt;font style=&quot;font-size: 20px;&quot;&gt;1&lt;/font&gt;" style="edgeLabel;html=1;align=center;verticalAlign=middle;resizable=0;points=[];fontFamily=Helvetica;fontSize=11;fontColor=default;labelBackgroundColor=default;fillColor=none;gradientColor=none;" parent="YZ9Vr9Id5WJVoP7LfM_h-79" vertex="1" connectable="0">
          <mxGeometry x="0.2076" y="-1" relative="1" as="geometry">
            <mxPoint as="offset" />
          </mxGeometry>
        </mxCell>
        <mxCell id="YZ9Vr9Id5WJVoP7LfM_h-88" style="edgeStyle=none;shape=connector;rounded=0;orthogonalLoop=1;jettySize=auto;html=1;exitX=0.25;exitY=1;exitDx=0;exitDy=0;entryX=0.5;entryY=0;entryDx=0;entryDy=0;strokeColor=default;align=center;verticalAlign=middle;fontFamily=Helvetica;fontSize=11;fontColor=default;labelBackgroundColor=default;startFill=0;endArrow=none;" parent="1" source="8fD-S27WqBdFzqs_7WYE-6" target="8fD-S27WqBdFzqs_7WYE-333" edge="1">
          <mxGeometry relative="1" as="geometry" />
        </mxCell>
        <mxCell id="YZ9Vr9Id5WJVoP7LfM_h-128" value="&lt;font style=&quot;font-size: 20px;&quot;&gt;1&lt;/font&gt;" style="edgeLabel;html=1;align=center;verticalAlign=middle;resizable=0;points=[];fontFamily=Helvetica;fontSize=11;fontColor=default;labelBackgroundColor=default;fillColor=none;gradientColor=none;" parent="YZ9Vr9Id5WJVoP7LfM_h-88" vertex="1" connectable="0">
          <mxGeometry x="-0.0229" y="4" relative="1" as="geometry">
            <mxPoint as="offset" />
          </mxGeometry>
        </mxCell>
        <mxCell id="O06P7-NGEBOdylAl6Ql0-7" style="rounded=0;orthogonalLoop=1;jettySize=auto;html=1;exitX=1;exitY=0.5;exitDx=0;exitDy=0;entryX=0;entryY=0.5;entryDx=0;entryDy=0;endArrow=none;startFill=0;" parent="1" source="8fD-S27WqBdFzqs_7WYE-6" target="O06P7-NGEBOdylAl6Ql0-4" edge="1">
          <mxGeometry relative="1" as="geometry" />
        </mxCell>
        <mxCell id="O06P7-NGEBOdylAl6Ql0-13" value="&lt;font style=&quot;font-size: 20px;&quot;&gt;1&lt;/font&gt;" style="edgeLabel;html=1;align=center;verticalAlign=middle;resizable=0;points=[];fontFamily=Helvetica;fontSize=11;fontColor=default;labelBackgroundColor=default;" parent="O06P7-NGEBOdylAl6Ql0-7" vertex="1" connectable="0">
          <mxGeometry x="0.1627" y="-5" relative="1" as="geometry">
            <mxPoint x="-1" as="offset" />
          </mxGeometry>
        </mxCell>
        <mxCell id="8bvtnb7ogH4JscniOlgQ-5" value="&lt;font style=&quot;font-size: 20px;&quot;&gt;n&lt;/font&gt;" style="edgeLabel;html=1;align=center;verticalAlign=middle;resizable=0;points=[];" vertex="1" connectable="0" parent="O06P7-NGEBOdylAl6Ql0-7">
          <mxGeometry x="0.1538" y="1" relative="1" as="geometry">
            <mxPoint y="1" as="offset" />
          </mxGeometry>
        </mxCell>
        <mxCell id="O06P7-NGEBOdylAl6Ql0-28" style="edgeStyle=none;shape=connector;rounded=0;orthogonalLoop=1;jettySize=auto;html=1;exitX=0.5;exitY=1;exitDx=0;exitDy=0;entryX=0.5;entryY=0;entryDx=0;entryDy=0;strokeColor=default;align=center;verticalAlign=middle;fontFamily=Helvetica;fontSize=11;fontColor=default;labelBackgroundColor=default;startFill=0;endArrow=none;" parent="1" source="8fD-S27WqBdFzqs_7WYE-6" target="O06P7-NGEBOdylAl6Ql0-26" edge="1">
          <mxGeometry relative="1" as="geometry" />
        </mxCell>
        <mxCell id="CwLL34Ni06w6Smd44Q-Q-12" style="edgeStyle=none;shape=connector;rounded=0;orthogonalLoop=1;jettySize=auto;html=1;exitX=0;exitY=1;exitDx=0;exitDy=0;entryX=1;entryY=0;entryDx=0;entryDy=0;strokeColor=default;align=center;verticalAlign=middle;fontFamily=Helvetica;fontSize=11;fontColor=default;labelBackgroundColor=default;startFill=0;endArrow=none;" parent="1" source="8fD-S27WqBdFzqs_7WYE-6" target="CwLL34Ni06w6Smd44Q-Q-8" edge="1">
          <mxGeometry relative="1" as="geometry" />
        </mxCell>
        <mxCell id="CwLL34Ni06w6Smd44Q-Q-37" style="edgeStyle=none;shape=connector;rounded=0;orthogonalLoop=1;jettySize=auto;html=1;exitX=0.75;exitY=0;exitDx=0;exitDy=0;entryX=0;entryY=1;entryDx=0;entryDy=0;strokeColor=default;align=center;verticalAlign=middle;fontFamily=Helvetica;fontSize=11;fontColor=default;labelBackgroundColor=default;startFill=0;endArrow=none;" parent="1" source="8fD-S27WqBdFzqs_7WYE-6" target="CwLL34Ni06w6Smd44Q-Q-36" edge="1">
          <mxGeometry relative="1" as="geometry" />
        </mxCell>
        <mxCell id="CwLL34Ni06w6Smd44Q-Q-43" value="&lt;font style=&quot;font-size: 20px;&quot;&gt;n&lt;/font&gt;" style="edgeLabel;html=1;align=center;verticalAlign=middle;resizable=0;points=[];fontFamily=Helvetica;fontSize=11;fontColor=default;labelBackgroundColor=default;" parent="CwLL34Ni06w6Smd44Q-Q-37" vertex="1" connectable="0">
          <mxGeometry x="0.09" y="-1" relative="1" as="geometry">
            <mxPoint as="offset" />
          </mxGeometry>
        </mxCell>
        <mxCell id="atge_e-wKlO63fTJiIF2-6" style="edgeStyle=orthogonalEdgeStyle;rounded=0;orthogonalLoop=1;jettySize=auto;html=1;exitX=1;exitY=0.5;exitDx=0;exitDy=0;entryX=0;entryY=0.5;entryDx=0;entryDy=0;endArrow=none;startFill=0;" parent="1" source="8fD-S27WqBdFzqs_7WYE-6" target="atge_e-wKlO63fTJiIF2-1" edge="1">
          <mxGeometry relative="1" as="geometry">
            <Array as="points">
              <mxPoint x="350" y="-470" />
              <mxPoint x="540" y="-470" />
              <mxPoint x="540" y="-474" />
            </Array>
          </mxGeometry>
        </mxCell>
        <mxCell id="atge_e-wKlO63fTJiIF2-14" value="1" style="edgeLabel;html=1;align=center;verticalAlign=middle;resizable=0;points=[];" parent="atge_e-wKlO63fTJiIF2-6" vertex="1" connectable="0">
          <mxGeometry x="0.0202" y="5" relative="1" as="geometry">
            <mxPoint y="-1" as="offset" />
          </mxGeometry>
        </mxCell>
        <mxCell id="atge_e-wKlO63fTJiIF2-16" value="&lt;font style=&quot;font-size: 20px;&quot;&gt;1&lt;/font&gt;" style="edgeLabel;html=1;align=center;verticalAlign=middle;resizable=0;points=[];" parent="atge_e-wKlO63fTJiIF2-6" vertex="1" connectable="0">
          <mxGeometry x="0.0146" y="4" relative="1" as="geometry">
            <mxPoint as="offset" />
          </mxGeometry>
        </mxCell>
        <mxCell id="8fD-S27WqBdFzqs_7WYE-6" value="ADRES" style="rounded=0;whiteSpace=wrap;html=1;fillColor=#f8cecc;strokeColor=#b85450;" parent="1" vertex="1">
          <mxGeometry x="240" y="-494" width="110" height="60" as="geometry" />
        </mxCell>
        <mxCell id="8fD-S27WqBdFzqs_7WYE-12" value="Yetkili Kişi&amp;nbsp;&lt;div&gt;Soyadı&lt;/div&gt;" style="ellipse;whiteSpace=wrap;html=1;" parent="1" vertex="1">
          <mxGeometry x="483.53" y="-1260" width="80" height="50" as="geometry" />
        </mxCell>
        <mxCell id="8fD-S27WqBdFzqs_7WYE-13" value="Yetkili Kişi&lt;div&gt;Adı&lt;/div&gt;" style="ellipse;whiteSpace=wrap;html=1;" parent="1" vertex="1">
          <mxGeometry x="394.03" y="-1270" width="71.5" height="40" as="geometry" />
        </mxCell>
        <mxCell id="8fD-S27WqBdFzqs_7WYE-23" value="tanımlı risk limiti" style="ellipse;whiteSpace=wrap;html=1;" parent="1" vertex="1">
          <mxGeometry x="774.03" y="-867.5" width="71" height="42.5" as="geometry" />
        </mxCell>
        <mxCell id="8fD-S27WqBdFzqs_7WYE-27" value="kullanılabilir risk&amp;nbsp;&lt;div&gt;limiti&lt;/div&gt;" style="ellipse;whiteSpace=wrap;html=1;dashed=1;" parent="1" vertex="1">
          <mxGeometry x="762.53" y="-802.5" width="77" height="50" as="geometry" />
        </mxCell>
        <mxCell id="8fD-S27WqBdFzqs_7WYE-82" style="edgeStyle=none;shape=connector;rounded=0;orthogonalLoop=1;jettySize=auto;html=1;exitX=1;exitY=0.5;exitDx=0;exitDy=0;entryX=0;entryY=0.25;entryDx=0;entryDy=0;strokeColor=default;align=center;verticalAlign=middle;fontFamily=Helvetica;fontSize=11;fontColor=default;labelBackgroundColor=default;startFill=0;endArrow=none;" parent="1" source="8fD-S27WqBdFzqs_7WYE-29" target="EaoSCeDMWYsuYTVSq__j-1" edge="1">
          <mxGeometry relative="1" as="geometry" />
        </mxCell>
        <mxCell id="8fD-S27WqBdFzqs_7WYE-29" value="vergi numarası" style="ellipse;whiteSpace=wrap;html=1;" parent="1" vertex="1">
          <mxGeometry x="-75.97" y="-1010" width="80" height="50" as="geometry" />
        </mxCell>
        <mxCell id="8fD-S27WqBdFzqs_7WYE-55" style="edgeStyle=none;shape=connector;rounded=0;orthogonalLoop=1;jettySize=auto;html=1;exitX=0.5;exitY=0;exitDx=0;exitDy=0;entryX=1;entryY=1;entryDx=0;entryDy=0;strokeColor=default;align=center;verticalAlign=middle;fontFamily=Helvetica;fontSize=11;fontColor=default;labelBackgroundColor=default;startFill=0;endArrow=none;" parent="1" source="8fD-S27WqBdFzqs_7WYE-30" target="8fD-S27WqBdFzqs_7WYE-31" edge="1">
          <mxGeometry relative="1" as="geometry" />
        </mxCell>
        <mxCell id="8fD-S27WqBdFzqs_7WYE-56" style="edgeStyle=none;shape=connector;rounded=0;orthogonalLoop=1;jettySize=auto;html=1;exitX=0;exitY=0.25;exitDx=0;exitDy=0;entryX=1;entryY=0.5;entryDx=0;entryDy=0;strokeColor=default;align=center;verticalAlign=middle;fontFamily=Helvetica;fontSize=11;fontColor=default;labelBackgroundColor=default;startFill=0;endArrow=none;" parent="1" source="8fD-S27WqBdFzqs_7WYE-30" target="8fD-S27WqBdFzqs_7WYE-32" edge="1">
          <mxGeometry relative="1" as="geometry" />
        </mxCell>
        <mxCell id="YZ9Vr9Id5WJVoP7LfM_h-21" style="edgeStyle=none;shape=connector;rounded=0;orthogonalLoop=1;jettySize=auto;html=1;exitX=1;exitY=0.5;exitDx=0;exitDy=0;entryX=0;entryY=0;entryDx=0;entryDy=0;strokeColor=default;align=center;verticalAlign=middle;fontFamily=Helvetica;fontSize=11;fontColor=default;labelBackgroundColor=default;startFill=0;endArrow=none;" parent="1" source="8fD-S27WqBdFzqs_7WYE-30" target="YZ9Vr9Id5WJVoP7LfM_h-20" edge="1">
          <mxGeometry relative="1" as="geometry" />
        </mxCell>
        <mxCell id="YZ9Vr9Id5WJVoP7LfM_h-123" value="&lt;font style=&quot;font-size: 20px;&quot;&gt;1&lt;/font&gt;" style="edgeLabel;html=1;align=center;verticalAlign=middle;resizable=0;points=[];fontFamily=Helvetica;fontSize=11;fontColor=default;labelBackgroundColor=default;fillColor=none;gradientColor=none;" parent="YZ9Vr9Id5WJVoP7LfM_h-21" vertex="1" connectable="0">
          <mxGeometry x="-0.1992" y="2" relative="1" as="geometry">
            <mxPoint as="offset" />
          </mxGeometry>
        </mxCell>
        <mxCell id="8fD-S27WqBdFzqs_7WYE-30" value="sevkiyat yöntemi" style="rounded=0;whiteSpace=wrap;html=1;fillColor=#f8cecc;strokeColor=#b85450;" parent="1" vertex="1">
          <mxGeometry x="-86.47" y="-1095" width="120" height="60" as="geometry" />
        </mxCell>
        <mxCell id="8fD-S27WqBdFzqs_7WYE-31" value="sevkiyat&lt;div&gt;yöntemi&lt;/div&gt;&lt;div&gt;ID&lt;/div&gt;" style="ellipse;whiteSpace=wrap;html=1;" parent="1" vertex="1">
          <mxGeometry x="-161.47" y="-1180" width="85" height="50" as="geometry" />
        </mxCell>
        <mxCell id="8fD-S27WqBdFzqs_7WYE-32" value="açıklama" style="ellipse;whiteSpace=wrap;html=1;" parent="1" vertex="1">
          <mxGeometry x="-228.97" y="-1105" width="85" height="55" as="geometry" />
        </mxCell>
        <mxCell id="8fD-S27WqBdFzqs_7WYE-86" style="edgeStyle=none;shape=connector;rounded=0;orthogonalLoop=1;jettySize=auto;html=1;exitX=1;exitY=0.5;exitDx=0;exitDy=0;entryX=0;entryY=0.75;entryDx=0;entryDy=0;strokeColor=default;align=center;verticalAlign=middle;fontFamily=Helvetica;fontSize=11;fontColor=default;labelBackgroundColor=default;startFill=0;endArrow=none;" parent="1" source="8fD-S27WqBdFzqs_7WYE-33" target="EaoSCeDMWYsuYTVSq__j-1" edge="1">
          <mxGeometry relative="1" as="geometry" />
        </mxCell>
        <mxCell id="8fD-S27WqBdFzqs_7WYE-33" value="durum (aktif/pasif)" style="ellipse;whiteSpace=wrap;html=1;" parent="1" vertex="1">
          <mxGeometry x="-103.97" y="-880" width="80" height="60" as="geometry" />
        </mxCell>
        <mxCell id="8fD-S27WqBdFzqs_7WYE-337" style="edgeStyle=none;shape=connector;rounded=0;orthogonalLoop=1;jettySize=auto;html=1;exitX=0;exitY=0;exitDx=0;exitDy=0;entryX=1;entryY=1;entryDx=0;entryDy=0;strokeColor=default;align=center;verticalAlign=middle;fontFamily=Helvetica;fontSize=11;fontColor=default;labelBackgroundColor=default;startFill=0;endArrow=none;" parent="1" source="8fD-S27WqBdFzqs_7WYE-104" target="8fD-S27WqBdFzqs_7WYE-336" edge="1">
          <mxGeometry relative="1" as="geometry">
            <Array as="points" />
          </mxGeometry>
        </mxCell>
        <mxCell id="YZ9Vr9Id5WJVoP7LfM_h-188" value="&lt;font style=&quot;font-size: 20px;&quot;&gt;1&lt;/font&gt;" style="edgeLabel;html=1;align=center;verticalAlign=middle;resizable=0;points=[];fontFamily=Helvetica;fontSize=11;fontColor=default;labelBackgroundColor=default;fillColor=none;gradientColor=none;" parent="8fD-S27WqBdFzqs_7WYE-337" vertex="1" connectable="0">
          <mxGeometry x="0.0178" y="-2" relative="1" as="geometry">
            <mxPoint as="offset" />
          </mxGeometry>
        </mxCell>
        <mxCell id="YZ9Vr9Id5WJVoP7LfM_h-39" style="edgeStyle=none;shape=connector;rounded=0;orthogonalLoop=1;jettySize=auto;html=1;exitX=0.75;exitY=0;exitDx=0;exitDy=0;entryX=0.5;entryY=1;entryDx=0;entryDy=0;strokeColor=default;align=center;verticalAlign=middle;fontFamily=Helvetica;fontSize=11;fontColor=default;labelBackgroundColor=default;startFill=0;endArrow=none;" parent="1" source="8fD-S27WqBdFzqs_7WYE-104" target="8fD-S27WqBdFzqs_7WYE-161" edge="1">
          <mxGeometry relative="1" as="geometry" />
        </mxCell>
        <mxCell id="YZ9Vr9Id5WJVoP7LfM_h-101" style="edgeStyle=none;shape=connector;rounded=0;orthogonalLoop=1;jettySize=auto;html=1;exitX=0;exitY=0.75;exitDx=0;exitDy=0;entryX=1;entryY=0.5;entryDx=0;entryDy=0;strokeColor=default;align=center;verticalAlign=middle;fontFamily=Helvetica;fontSize=11;fontColor=default;labelBackgroundColor=default;startFill=0;endArrow=none;" parent="1" source="8fD-S27WqBdFzqs_7WYE-104" target="8fD-S27WqBdFzqs_7WYE-116" edge="1">
          <mxGeometry relative="1" as="geometry" />
        </mxCell>
        <mxCell id="YZ9Vr9Id5WJVoP7LfM_h-104" style="edgeStyle=none;shape=connector;rounded=0;orthogonalLoop=1;jettySize=auto;html=1;exitX=0.5;exitY=0;exitDx=0;exitDy=0;entryX=0.5;entryY=1;entryDx=0;entryDy=0;strokeColor=default;align=center;verticalAlign=middle;fontFamily=Helvetica;fontSize=11;fontColor=default;labelBackgroundColor=default;startFill=0;endArrow=none;" parent="1" source="8fD-S27WqBdFzqs_7WYE-104" target="8fD-S27WqBdFzqs_7WYE-108" edge="1">
          <mxGeometry relative="1" as="geometry" />
        </mxCell>
        <mxCell id="YZ9Vr9Id5WJVoP7LfM_h-137" value="&lt;font style=&quot;font-size: 20px;&quot;&gt;n&lt;/font&gt;" style="edgeLabel;html=1;align=center;verticalAlign=middle;resizable=0;points=[];fontFamily=Helvetica;fontSize=11;fontColor=default;labelBackgroundColor=default;fillColor=none;gradientColor=none;" parent="YZ9Vr9Id5WJVoP7LfM_h-104" vertex="1" connectable="0">
          <mxGeometry x="-0.2466" y="-3" relative="1" as="geometry">
            <mxPoint y="1" as="offset" />
          </mxGeometry>
        </mxCell>
        <mxCell id="YZ9Vr9Id5WJVoP7LfM_h-138" style="edgeStyle=none;shape=connector;rounded=0;orthogonalLoop=1;jettySize=auto;html=1;exitX=1;exitY=0;exitDx=0;exitDy=0;entryX=0;entryY=1;entryDx=0;entryDy=0;strokeColor=default;align=center;verticalAlign=middle;fontFamily=Helvetica;fontSize=11;fontColor=default;labelBackgroundColor=default;resizable=0;startFill=0;endArrow=none;" parent="1" source="8fD-S27WqBdFzqs_7WYE-104" target="8fD-S27WqBdFzqs_7WYE-134" edge="1">
          <mxGeometry relative="1" as="geometry" />
        </mxCell>
        <mxCell id="YZ9Vr9Id5WJVoP7LfM_h-145" value="&lt;font style=&quot;font-size: 20px;&quot;&gt;n&lt;/font&gt;" style="edgeLabel;html=1;align=center;verticalAlign=middle;resizable=0;points=[];fontFamily=Helvetica;fontSize=11;fontColor=default;labelBackgroundColor=default;fillColor=none;gradientColor=none;" parent="YZ9Vr9Id5WJVoP7LfM_h-138" vertex="1" connectable="0">
          <mxGeometry x="-0.1181" y="-1" relative="1" as="geometry">
            <mxPoint as="offset" />
          </mxGeometry>
        </mxCell>
        <mxCell id="YZ9Vr9Id5WJVoP7LfM_h-140" style="edgeStyle=none;shape=connector;rounded=0;orthogonalLoop=1;jettySize=auto;html=1;exitX=1;exitY=0.5;exitDx=0;exitDy=0;entryX=0;entryY=0.5;entryDx=0;entryDy=0;strokeColor=default;align=center;verticalAlign=middle;fontFamily=Helvetica;fontSize=11;fontColor=default;labelBackgroundColor=default;resizable=0;startFill=0;endArrow=none;" parent="1" source="8fD-S27WqBdFzqs_7WYE-104" target="8fD-S27WqBdFzqs_7WYE-145" edge="1">
          <mxGeometry relative="1" as="geometry" />
        </mxCell>
        <mxCell id="YZ9Vr9Id5WJVoP7LfM_h-147" value="&lt;font style=&quot;font-size: 20px;&quot;&gt;n&lt;/font&gt;" style="edgeLabel;html=1;align=center;verticalAlign=middle;resizable=0;points=[];fontFamily=Helvetica;fontSize=11;fontColor=default;labelBackgroundColor=default;fillColor=none;gradientColor=none;" parent="YZ9Vr9Id5WJVoP7LfM_h-140" vertex="1" connectable="0">
          <mxGeometry x="0.0815" y="-2" relative="1" as="geometry">
            <mxPoint as="offset" />
          </mxGeometry>
        </mxCell>
        <mxCell id="O06P7-NGEBOdylAl6Ql0-45" style="edgeStyle=none;shape=connector;rounded=0;orthogonalLoop=1;jettySize=auto;html=1;exitX=0.75;exitY=0;exitDx=0;exitDy=0;entryX=0.5;entryY=1;entryDx=0;entryDy=0;strokeColor=default;align=center;verticalAlign=middle;fontFamily=Helvetica;fontSize=11;fontColor=default;labelBackgroundColor=default;startFill=0;endArrow=none;" parent="1" source="8fD-S27WqBdFzqs_7WYE-104" target="O06P7-NGEBOdylAl6Ql0-44" edge="1">
          <mxGeometry relative="1" as="geometry" />
        </mxCell>
        <mxCell id="O06P7-NGEBOdylAl6Ql0-47" value="&lt;font style=&quot;font-size: 20px;&quot;&gt;1&lt;/font&gt;" style="edgeLabel;html=1;align=center;verticalAlign=middle;resizable=0;points=[];fontFamily=Helvetica;fontSize=11;fontColor=default;labelBackgroundColor=default;" parent="O06P7-NGEBOdylAl6Ql0-45" vertex="1" connectable="0">
          <mxGeometry x="-0.4141" y="-4" relative="1" as="geometry">
            <mxPoint y="-1" as="offset" />
          </mxGeometry>
        </mxCell>
        <mxCell id="8fD-S27WqBdFzqs_7WYE-104" value="PERSONEL" style="rounded=0;whiteSpace=wrap;html=1;fontFamily=Helvetica;fontSize=11;labelBackgroundColor=default;fillColor=#f8cecc;strokeColor=#b85450;" parent="1" vertex="1">
          <mxGeometry x="735.03" y="687.5" width="120" height="60" as="geometry" />
        </mxCell>
        <mxCell id="8fD-S27WqBdFzqs_7WYE-131" style="edgeStyle=none;shape=connector;rounded=0;orthogonalLoop=1;jettySize=auto;html=1;exitX=0;exitY=0;exitDx=0;exitDy=0;entryX=1;entryY=1;entryDx=0;entryDy=0;strokeColor=default;align=center;verticalAlign=middle;fontFamily=Helvetica;fontSize=11;fontColor=default;labelBackgroundColor=default;startFill=0;endArrow=none;" parent="1" source="8fD-S27WqBdFzqs_7WYE-105" target="8fD-S27WqBdFzqs_7WYE-104" edge="1">
          <mxGeometry relative="1" as="geometry" />
        </mxCell>
        <mxCell id="8fD-S27WqBdFzqs_7WYE-105" value="TC no" style="ellipse;whiteSpace=wrap;html=1;fontFamily=Helvetica;fontSize=11;fontColor=default;labelBackgroundColor=default;" parent="1" vertex="1">
          <mxGeometry x="985" y="739" width="80" height="50" as="geometry" />
        </mxCell>
        <mxCell id="8fD-S27WqBdFzqs_7WYE-129" style="edgeStyle=none;shape=connector;rounded=0;orthogonalLoop=1;jettySize=auto;html=1;exitX=0.5;exitY=0;exitDx=0;exitDy=0;entryX=0.5;entryY=1;entryDx=0;entryDy=0;strokeColor=default;align=center;verticalAlign=middle;fontFamily=Helvetica;fontSize=11;fontColor=default;labelBackgroundColor=default;startFill=0;endArrow=none;" parent="1" source="8fD-S27WqBdFzqs_7WYE-106" target="8fD-S27WqBdFzqs_7WYE-104" edge="1">
          <mxGeometry relative="1" as="geometry" />
        </mxCell>
        <mxCell id="8fD-S27WqBdFzqs_7WYE-106" value="soyadı" style="ellipse;whiteSpace=wrap;html=1;fontFamily=Helvetica;fontSize=11;fontColor=default;labelBackgroundColor=default;" parent="1" vertex="1">
          <mxGeometry x="923" y="857.5" width="70" height="50" as="geometry" />
        </mxCell>
        <mxCell id="8fD-S27WqBdFzqs_7WYE-130" style="edgeStyle=none;shape=connector;rounded=0;orthogonalLoop=1;jettySize=auto;html=1;exitX=0.5;exitY=0;exitDx=0;exitDy=0;entryX=0.75;entryY=1;entryDx=0;entryDy=0;strokeColor=default;align=center;verticalAlign=middle;fontFamily=Helvetica;fontSize=11;fontColor=default;labelBackgroundColor=default;startFill=0;endArrow=none;" parent="1" source="8fD-S27WqBdFzqs_7WYE-107" target="8fD-S27WqBdFzqs_7WYE-104" edge="1">
          <mxGeometry relative="1" as="geometry" />
        </mxCell>
        <mxCell id="8fD-S27WqBdFzqs_7WYE-107" value="adı" style="ellipse;whiteSpace=wrap;html=1;fontFamily=Helvetica;fontSize=11;fontColor=default;labelBackgroundColor=default;" parent="1" vertex="1">
          <mxGeometry x="1001.5" y="807.5" width="83" height="50" as="geometry" />
        </mxCell>
        <mxCell id="8fD-S27WqBdFzqs_7WYE-108" value="yaşar" style="rhombus;whiteSpace=wrap;html=1;fontFamily=Helvetica;fontSize=11;fontColor=default;labelBackgroundColor=default;" parent="1" vertex="1">
          <mxGeometry x="485.5" y="-47" width="80" height="80" as="geometry" />
        </mxCell>
        <mxCell id="8fD-S27WqBdFzqs_7WYE-111" value="cinsiyet" style="ellipse;whiteSpace=wrap;html=1;fontFamily=Helvetica;fontSize=11;fontColor=default;labelBackgroundColor=default;" parent="1" vertex="1">
          <mxGeometry x="845.03" y="877.5" width="65" height="40" as="geometry" />
        </mxCell>
        <mxCell id="YZ9Vr9Id5WJVoP7LfM_h-41" style="edgeStyle=none;shape=connector;rounded=0;orthogonalLoop=1;jettySize=auto;html=1;exitX=1;exitY=0.5;exitDx=0;exitDy=0;entryX=0;entryY=0.25;entryDx=0;entryDy=0;strokeColor=default;align=center;verticalAlign=middle;fontFamily=Helvetica;fontSize=11;fontColor=default;labelBackgroundColor=default;startFill=0;endArrow=none;" parent="1" source="8fD-S27WqBdFzqs_7WYE-115" target="8fD-S27WqBdFzqs_7WYE-104" edge="1">
          <mxGeometry relative="1" as="geometry" />
        </mxCell>
        <mxCell id="8fD-S27WqBdFzqs_7WYE-115" value="işe giriş&lt;div&gt;tarihi&lt;/div&gt;" style="ellipse;whiteSpace=wrap;html=1;fontFamily=Helvetica;fontSize=11;fontColor=default;labelBackgroundColor=default;" parent="1" vertex="1">
          <mxGeometry x="506" y="632.5" width="80" height="50" as="geometry" />
        </mxCell>
        <mxCell id="8fD-S27WqBdFzqs_7WYE-116" value="işten ayrılma&lt;div&gt;tarihi&lt;/div&gt;" style="ellipse;whiteSpace=wrap;html=1;fontFamily=Helvetica;fontSize=11;fontColor=default;labelBackgroundColor=default;" parent="1" vertex="1">
          <mxGeometry x="489.03" y="695" width="85" height="50" as="geometry" />
        </mxCell>
        <mxCell id="8fD-S27WqBdFzqs_7WYE-127" style="edgeStyle=none;shape=connector;rounded=0;orthogonalLoop=1;jettySize=auto;html=1;exitX=0.5;exitY=0;exitDx=0;exitDy=0;entryX=0.25;entryY=1;entryDx=0;entryDy=0;strokeColor=default;align=center;verticalAlign=middle;fontFamily=Helvetica;fontSize=11;fontColor=default;labelBackgroundColor=default;startFill=0;endArrow=none;" parent="1" source="8fD-S27WqBdFzqs_7WYE-119" target="8fD-S27WqBdFzqs_7WYE-104" edge="1">
          <mxGeometry relative="1" as="geometry" />
        </mxCell>
        <mxCell id="8fD-S27WqBdFzqs_7WYE-119" value="maaş" style="ellipse;whiteSpace=wrap;html=1;fontFamily=Helvetica;fontSize=11;fontColor=default;labelBackgroundColor=default;" parent="1" vertex="1">
          <mxGeometry x="604.03" y="871.25" width="62.5" height="45" as="geometry" />
        </mxCell>
        <mxCell id="8fD-S27WqBdFzqs_7WYE-128" style="edgeStyle=none;shape=connector;rounded=0;orthogonalLoop=1;jettySize=auto;html=1;exitX=0.5;exitY=0;exitDx=0;exitDy=0;entryX=0.411;entryY=0.972;entryDx=0;entryDy=0;entryPerimeter=0;strokeColor=default;align=center;verticalAlign=middle;fontFamily=Helvetica;fontSize=11;fontColor=default;labelBackgroundColor=default;startFill=0;endArrow=none;" parent="1" source="8fD-S27WqBdFzqs_7WYE-111" target="8fD-S27WqBdFzqs_7WYE-104" edge="1">
          <mxGeometry relative="1" as="geometry" />
        </mxCell>
        <mxCell id="8fD-S27WqBdFzqs_7WYE-142" style="edgeStyle=none;shape=connector;rounded=0;orthogonalLoop=1;jettySize=auto;html=1;exitX=0.25;exitY=0;exitDx=0;exitDy=0;entryX=0.5;entryY=1;entryDx=0;entryDy=0;strokeColor=default;align=center;verticalAlign=middle;fontFamily=Helvetica;fontSize=11;fontColor=default;labelBackgroundColor=default;startFill=0;endArrow=none;" parent="1" source="8fD-S27WqBdFzqs_7WYE-132" target="8fD-S27WqBdFzqs_7WYE-141" edge="1">
          <mxGeometry relative="1" as="geometry" />
        </mxCell>
        <mxCell id="8fD-S27WqBdFzqs_7WYE-143" style="edgeStyle=none;shape=connector;rounded=0;orthogonalLoop=1;jettySize=auto;html=1;exitX=0.75;exitY=0;exitDx=0;exitDy=0;entryX=0.5;entryY=1;entryDx=0;entryDy=0;strokeColor=default;align=center;verticalAlign=middle;fontFamily=Helvetica;fontSize=11;fontColor=default;labelBackgroundColor=default;startFill=0;endArrow=none;" parent="1" source="8fD-S27WqBdFzqs_7WYE-132" target="8fD-S27WqBdFzqs_7WYE-140" edge="1">
          <mxGeometry relative="1" as="geometry" />
        </mxCell>
        <mxCell id="O06P7-NGEBOdylAl6Ql0-98" style="edgeStyle=none;shape=connector;rounded=0;orthogonalLoop=1;jettySize=auto;html=1;exitX=0.75;exitY=1;exitDx=0;exitDy=0;entryX=0.5;entryY=0;entryDx=0;entryDy=0;strokeColor=default;align=center;verticalAlign=middle;fontFamily=Helvetica;fontSize=11;fontColor=default;labelBackgroundColor=default;startFill=0;endArrow=none;" parent="1" source="8fD-S27WqBdFzqs_7WYE-132" target="O06P7-NGEBOdylAl6Ql0-69" edge="1">
          <mxGeometry relative="1" as="geometry" />
        </mxCell>
        <mxCell id="O06P7-NGEBOdylAl6Ql0-99" value="&lt;font style=&quot;font-size: 20px;&quot;&gt;1&lt;/font&gt;" style="edgeLabel;html=1;align=center;verticalAlign=middle;resizable=0;points=[];fontFamily=Helvetica;fontSize=11;fontColor=default;labelBackgroundColor=default;" parent="O06P7-NGEBOdylAl6Ql0-98" vertex="1" connectable="0">
          <mxGeometry x="-0.0838" y="1" relative="1" as="geometry">
            <mxPoint as="offset" />
          </mxGeometry>
        </mxCell>
        <mxCell id="8fD-S27WqBdFzqs_7WYE-132" value="bölüm" style="rounded=0;whiteSpace=wrap;html=1;fontFamily=Helvetica;fontSize=11;labelBackgroundColor=default;fillColor=#f8cecc;strokeColor=#b85450;" parent="1" vertex="1">
          <mxGeometry x="1000" y="460" width="100" height="50" as="geometry" />
        </mxCell>
        <mxCell id="YZ9Vr9Id5WJVoP7LfM_h-139" style="edgeStyle=none;shape=connector;rounded=0;orthogonalLoop=1;jettySize=auto;html=1;exitX=1;exitY=0;exitDx=0;exitDy=0;entryX=0;entryY=1;entryDx=0;entryDy=0;strokeColor=default;align=center;verticalAlign=middle;fontFamily=Helvetica;fontSize=11;fontColor=default;labelBackgroundColor=default;resizable=0;startFill=0;endArrow=none;" parent="1" source="8fD-S27WqBdFzqs_7WYE-134" target="8fD-S27WqBdFzqs_7WYE-132" edge="1">
          <mxGeometry relative="1" as="geometry" />
        </mxCell>
        <mxCell id="YZ9Vr9Id5WJVoP7LfM_h-144" value="&lt;font style=&quot;font-size: 20px;&quot;&gt;1&lt;/font&gt;" style="edgeLabel;html=1;align=center;verticalAlign=middle;resizable=0;points=[];fontFamily=Helvetica;fontSize=11;fontColor=default;labelBackgroundColor=default;fillColor=none;gradientColor=none;" parent="YZ9Vr9Id5WJVoP7LfM_h-139" vertex="1" connectable="0">
          <mxGeometry x="-0.0341" y="2" relative="1" as="geometry">
            <mxPoint as="offset" />
          </mxGeometry>
        </mxCell>
        <mxCell id="8fD-S27WqBdFzqs_7WYE-134" value="çalışır" style="rhombus;whiteSpace=wrap;html=1;fontFamily=Helvetica;fontSize=11;fontColor=default;labelBackgroundColor=default;" parent="1" vertex="1">
          <mxGeometry x="893" y="581.25" width="70" height="60" as="geometry" />
        </mxCell>
        <mxCell id="8fD-S27WqBdFzqs_7WYE-140" value="bölüm adı" style="ellipse;whiteSpace=wrap;html=1;fontFamily=Helvetica;fontSize=11;fontColor=default;labelBackgroundColor=default;" parent="1" vertex="1">
          <mxGeometry x="1077.5" y="380" width="94" height="50" as="geometry" />
        </mxCell>
        <mxCell id="8fD-S27WqBdFzqs_7WYE-141" value="bölümID" style="ellipse;whiteSpace=wrap;html=1;fontFamily=Helvetica;fontSize=11;fontColor=default;labelBackgroundColor=default;" parent="1" vertex="1">
          <mxGeometry x="933" y="365.5" width="90" height="55" as="geometry" />
        </mxCell>
        <mxCell id="YZ9Vr9Id5WJVoP7LfM_h-141" style="edgeStyle=none;shape=connector;rounded=0;orthogonalLoop=1;jettySize=auto;html=1;exitX=1;exitY=1;exitDx=0;exitDy=0;entryX=0;entryY=0;entryDx=0;entryDy=0;strokeColor=default;align=center;verticalAlign=middle;fontFamily=Helvetica;fontSize=11;fontColor=default;labelBackgroundColor=default;resizable=0;startFill=0;endArrow=none;" parent="1" source="8fD-S27WqBdFzqs_7WYE-144" target="8fD-S27WqBdFzqs_7WYE-149" edge="1">
          <mxGeometry relative="1" as="geometry" />
        </mxCell>
        <mxCell id="YZ9Vr9Id5WJVoP7LfM_h-142" style="edgeStyle=none;shape=connector;rounded=0;orthogonalLoop=1;jettySize=auto;html=1;exitX=1;exitY=0;exitDx=0;exitDy=0;entryX=0.5;entryY=1;entryDx=0;entryDy=0;strokeColor=default;align=center;verticalAlign=middle;fontFamily=Helvetica;fontSize=11;fontColor=default;labelBackgroundColor=default;resizable=0;startFill=0;endArrow=none;" parent="1" source="8fD-S27WqBdFzqs_7WYE-144" target="8fD-S27WqBdFzqs_7WYE-148" edge="1">
          <mxGeometry relative="1" as="geometry" />
        </mxCell>
        <mxCell id="8fD-S27WqBdFzqs_7WYE-144" value="görev" style="rounded=0;whiteSpace=wrap;html=1;fontFamily=Helvetica;fontSize=11;labelBackgroundColor=default;fillColor=#f8cecc;strokeColor=#b85450;" parent="1" vertex="1">
          <mxGeometry x="1133" y="645" width="110" height="50" as="geometry" />
        </mxCell>
        <mxCell id="8fD-S27WqBdFzqs_7WYE-147" style="edgeStyle=none;shape=connector;rounded=0;orthogonalLoop=1;jettySize=auto;html=1;exitX=1;exitY=0.5;exitDx=0;exitDy=0;entryX=0;entryY=0.5;entryDx=0;entryDy=0;strokeColor=default;align=center;verticalAlign=middle;fontFamily=Helvetica;fontSize=11;fontColor=default;labelBackgroundColor=default;startFill=0;endArrow=none;" parent="1" source="8fD-S27WqBdFzqs_7WYE-145" target="8fD-S27WqBdFzqs_7WYE-144" edge="1">
          <mxGeometry relative="1" as="geometry" />
        </mxCell>
        <mxCell id="YZ9Vr9Id5WJVoP7LfM_h-146" value="&lt;font style=&quot;font-size: 20px;&quot;&gt;1&lt;/font&gt;" style="edgeLabel;html=1;align=center;verticalAlign=middle;resizable=0;points=[];fontFamily=Helvetica;fontSize=11;fontColor=default;labelBackgroundColor=default;fillColor=none;gradientColor=none;" parent="8fD-S27WqBdFzqs_7WYE-147" vertex="1" connectable="0">
          <mxGeometry x="-0.2418" y="-2" relative="1" as="geometry">
            <mxPoint as="offset" />
          </mxGeometry>
        </mxCell>
        <mxCell id="8fD-S27WqBdFzqs_7WYE-145" value="olur" style="rhombus;whiteSpace=wrap;html=1;fontFamily=Helvetica;fontSize=11;fontColor=default;labelBackgroundColor=default;" parent="1" vertex="1">
          <mxGeometry x="980" y="645" width="70" height="70" as="geometry" />
        </mxCell>
        <mxCell id="8fD-S27WqBdFzqs_7WYE-148" value="görev adı" style="ellipse;whiteSpace=wrap;html=1;fontFamily=Helvetica;fontSize=11;fontColor=default;labelBackgroundColor=default;" parent="1" vertex="1">
          <mxGeometry x="1255.5" y="557.5" width="80" height="62.5" as="geometry" />
        </mxCell>
        <mxCell id="8fD-S27WqBdFzqs_7WYE-149" value="görevID" style="ellipse;whiteSpace=wrap;html=1;fontFamily=Helvetica;fontSize=11;fontColor=default;labelBackgroundColor=default;" parent="1" vertex="1">
          <mxGeometry x="1243" y="707.5" width="90" height="60" as="geometry" />
        </mxCell>
        <mxCell id="YZ9Vr9Id5WJVoP7LfM_h-40" style="edgeStyle=none;shape=connector;rounded=0;orthogonalLoop=1;jettySize=auto;html=1;exitX=0.5;exitY=1;exitDx=0;exitDy=0;entryX=0.25;entryY=0;entryDx=0;entryDy=0;strokeColor=default;align=center;verticalAlign=middle;fontFamily=Helvetica;fontSize=11;fontColor=default;labelBackgroundColor=default;startFill=0;endArrow=none;" parent="1" source="8fD-S27WqBdFzqs_7WYE-160" target="8fD-S27WqBdFzqs_7WYE-104" edge="1">
          <mxGeometry relative="1" as="geometry" />
        </mxCell>
        <mxCell id="8fD-S27WqBdFzqs_7WYE-160" value="Telefon" style="ellipse;whiteSpace=wrap;html=1;" parent="1" vertex="1">
          <mxGeometry x="628" y="532.5" width="70" height="50" as="geometry" />
        </mxCell>
        <mxCell id="8fD-S27WqBdFzqs_7WYE-161" value="e-posta" style="ellipse;whiteSpace=wrap;html=1;" parent="1" vertex="1">
          <mxGeometry x="847" y="507.5" width="70" height="50" as="geometry" />
        </mxCell>
        <mxCell id="8fD-S27WqBdFzqs_7WYE-166" value="doğum tarihi" style="ellipse;whiteSpace=wrap;html=1;fontFamily=Helvetica;fontSize=11;fontColor=default;labelBackgroundColor=default;" parent="1" vertex="1">
          <mxGeometry x="540" y="817.5" width="71" height="55" as="geometry" />
        </mxCell>
        <mxCell id="8fD-S27WqBdFzqs_7WYE-167" style="edgeStyle=none;shape=connector;rounded=0;orthogonalLoop=1;jettySize=auto;html=1;exitX=1;exitY=0;exitDx=0;exitDy=0;entryX=0.119;entryY=1.01;entryDx=0;entryDy=0;entryPerimeter=0;strokeColor=default;align=center;verticalAlign=middle;fontFamily=Helvetica;fontSize=11;fontColor=default;labelBackgroundColor=default;startFill=0;endArrow=none;" parent="1" source="8fD-S27WqBdFzqs_7WYE-166" target="8fD-S27WqBdFzqs_7WYE-104" edge="1">
          <mxGeometry relative="1" as="geometry" />
        </mxCell>
        <mxCell id="8fD-S27WqBdFzqs_7WYE-169" style="edgeStyle=none;shape=connector;rounded=0;orthogonalLoop=1;jettySize=auto;html=1;exitX=1;exitY=0;exitDx=0;exitDy=0;entryX=0;entryY=1;entryDx=0;entryDy=0;strokeColor=default;align=center;verticalAlign=middle;fontFamily=Helvetica;fontSize=11;fontColor=default;labelBackgroundColor=default;startFill=0;endArrow=none;" parent="1" source="8fD-S27WqBdFzqs_7WYE-168" target="8fD-S27WqBdFzqs_7WYE-104" edge="1">
          <mxGeometry relative="1" as="geometry" />
        </mxCell>
        <mxCell id="8fD-S27WqBdFzqs_7WYE-168" value="yaş" style="ellipse;whiteSpace=wrap;html=1;fontFamily=Helvetica;fontSize=11;fontColor=default;labelBackgroundColor=default;dashed=1;" parent="1" vertex="1">
          <mxGeometry x="480" y="767.5" width="70" height="50" as="geometry" />
        </mxCell>
        <mxCell id="8fD-S27WqBdFzqs_7WYE-186" style="edgeStyle=none;shape=connector;rounded=0;orthogonalLoop=1;jettySize=auto;html=1;exitX=0.75;exitY=0;exitDx=0;exitDy=0;entryX=0.5;entryY=1;entryDx=0;entryDy=0;strokeColor=default;align=center;verticalAlign=middle;fontFamily=Helvetica;fontSize=11;fontColor=default;labelBackgroundColor=default;startFill=0;endArrow=none;" parent="1" source="8fD-S27WqBdFzqs_7WYE-171" target="8fD-S27WqBdFzqs_7WYE-175" edge="1">
          <mxGeometry relative="1" as="geometry" />
        </mxCell>
        <mxCell id="8fD-S27WqBdFzqs_7WYE-188" style="edgeStyle=none;shape=connector;rounded=0;orthogonalLoop=1;jettySize=auto;html=1;exitX=0.25;exitY=1;exitDx=0;exitDy=0;entryX=0.5;entryY=0;entryDx=0;entryDy=0;strokeColor=default;align=center;verticalAlign=middle;fontFamily=Helvetica;fontSize=11;fontColor=default;labelBackgroundColor=default;startFill=0;endArrow=none;" parent="1" source="8fD-S27WqBdFzqs_7WYE-171" target="8fD-S27WqBdFzqs_7WYE-177" edge="1">
          <mxGeometry relative="1" as="geometry" />
        </mxCell>
        <mxCell id="8fD-S27WqBdFzqs_7WYE-189" style="edgeStyle=none;shape=connector;rounded=0;orthogonalLoop=1;jettySize=auto;html=1;exitX=0.75;exitY=1;exitDx=0;exitDy=0;entryX=0.5;entryY=0;entryDx=0;entryDy=0;strokeColor=default;align=center;verticalAlign=middle;fontFamily=Helvetica;fontSize=11;fontColor=default;labelBackgroundColor=default;startFill=0;endArrow=none;" parent="1" source="8fD-S27WqBdFzqs_7WYE-171" target="8fD-S27WqBdFzqs_7WYE-176" edge="1">
          <mxGeometry relative="1" as="geometry" />
        </mxCell>
        <mxCell id="8fD-S27WqBdFzqs_7WYE-202" value="" style="edgeStyle=none;shape=connector;rounded=0;orthogonalLoop=1;jettySize=auto;html=1;exitX=0.5;exitY=1;exitDx=0;exitDy=0;entryX=0.5;entryY=0;entryDx=0;entryDy=0;strokeColor=default;align=center;verticalAlign=middle;fontFamily=Helvetica;fontSize=11;fontColor=default;labelBackgroundColor=default;startFill=0;endArrow=none;" parent="1" source="8fD-S27WqBdFzqs_7WYE-171" target="8fD-S27WqBdFzqs_7WYE-201" edge="1">
          <mxGeometry relative="1" as="geometry" />
        </mxCell>
        <mxCell id="O06P7-NGEBOdylAl6Ql0-106" value="&lt;font style=&quot;font-size: 20px;&quot;&gt;1&lt;/font&gt;" style="edgeLabel;html=1;align=center;verticalAlign=middle;resizable=0;points=[];fontFamily=Helvetica;fontSize=11;fontColor=default;labelBackgroundColor=default;" parent="8fD-S27WqBdFzqs_7WYE-202" vertex="1" connectable="0">
          <mxGeometry x="-0.0308" y="-1" relative="1" as="geometry">
            <mxPoint as="offset" />
          </mxGeometry>
        </mxCell>
        <mxCell id="8fD-S27WqBdFzqs_7WYE-364" style="edgeStyle=none;shape=connector;rounded=0;orthogonalLoop=1;jettySize=auto;html=1;exitX=0.5;exitY=0;exitDx=0;exitDy=0;entryX=0.5;entryY=1;entryDx=0;entryDy=0;strokeColor=default;align=center;verticalAlign=middle;fontFamily=Helvetica;fontSize=11;fontColor=default;labelBackgroundColor=default;startFill=0;endArrow=none;" parent="1" source="8fD-S27WqBdFzqs_7WYE-171" target="8fD-S27WqBdFzqs_7WYE-174" edge="1">
          <mxGeometry relative="1" as="geometry" />
        </mxCell>
        <mxCell id="r_VLMEdGVBM_KSo3yscy-8" style="edgeStyle=none;shape=connector;rounded=0;orthogonalLoop=1;jettySize=auto;html=1;exitX=1;exitY=0.5;exitDx=0;exitDy=0;entryX=0;entryY=0.5;entryDx=0;entryDy=0;strokeColor=default;align=center;verticalAlign=middle;fontFamily=Helvetica;fontSize=11;fontColor=default;labelBackgroundColor=default;startFill=0;endArrow=none;" parent="1" source="8fD-S27WqBdFzqs_7WYE-171" target="8fD-S27WqBdFzqs_7WYE-183" edge="1">
          <mxGeometry relative="1" as="geometry" />
        </mxCell>
        <mxCell id="r_VLMEdGVBM_KSo3yscy-9" value="&lt;font style=&quot;font-size: 20px;&quot;&gt;n&lt;/font&gt;" style="edgeLabel;html=1;align=center;verticalAlign=middle;resizable=0;points=[];fontFamily=Helvetica;fontSize=11;fontColor=default;labelBackgroundColor=default;" parent="r_VLMEdGVBM_KSo3yscy-8" vertex="1" connectable="0">
          <mxGeometry x="-0.0294" relative="1" as="geometry">
            <mxPoint x="-1" as="offset" />
          </mxGeometry>
        </mxCell>
        <mxCell id="O06P7-NGEBOdylAl6Ql0-103" style="edgeStyle=none;shape=connector;rounded=0;orthogonalLoop=1;jettySize=auto;html=1;exitX=1;exitY=0.25;exitDx=0;exitDy=0;entryX=0;entryY=0.5;entryDx=0;entryDy=0;strokeColor=default;align=center;verticalAlign=middle;fontFamily=Helvetica;fontSize=11;fontColor=default;labelBackgroundColor=default;startFill=0;endArrow=none;" parent="1" source="8fD-S27WqBdFzqs_7WYE-171" target="O06P7-NGEBOdylAl6Ql0-77" edge="1">
          <mxGeometry relative="1" as="geometry" />
        </mxCell>
        <mxCell id="O06P7-NGEBOdylAl6Ql0-104" value="&lt;font style=&quot;font-size: 20px;&quot;&gt;n&lt;/font&gt;" style="edgeLabel;html=1;align=center;verticalAlign=middle;resizable=0;points=[];fontFamily=Helvetica;fontSize=11;fontColor=default;labelBackgroundColor=default;" parent="O06P7-NGEBOdylAl6Ql0-103" vertex="1" connectable="0">
          <mxGeometry x="0.1342" y="-1" relative="1" as="geometry">
            <mxPoint as="offset" />
          </mxGeometry>
        </mxCell>
        <mxCell id="8fD-S27WqBdFzqs_7WYE-171" value="&lt;font style=&quot;vertical-align: inherit;&quot;&gt;&lt;font style=&quot;vertical-align: inherit;&quot;&gt;ÜRÜN&lt;/font&gt;&lt;/font&gt;" style="rounded=0;whiteSpace=wrap;html=1;fontFamily=Helvetica;fontSize=11;labelBackgroundColor=default;fillColor=#f8cecc;strokeColor=#b85450;" parent="1" vertex="1">
          <mxGeometry x="-230" y="822.5" width="120" height="60" as="geometry" />
        </mxCell>
        <mxCell id="8fD-S27WqBdFzqs_7WYE-174" value="ad" style="ellipse;whiteSpace=wrap;html=1;fontFamily=Helvetica;fontSize=11;fontColor=default;labelBackgroundColor=default;" parent="1" vertex="1">
          <mxGeometry x="-204" y="660" width="90" height="55" as="geometry" />
        </mxCell>
        <mxCell id="8fD-S27WqBdFzqs_7WYE-175" value="kod" style="ellipse;whiteSpace=wrap;html=1;fontFamily=Helvetica;fontSize=11;fontColor=default;labelBackgroundColor=default;" parent="1" vertex="1">
          <mxGeometry x="-59.120000000000005" y="670" width="82.5" height="57.5" as="geometry" />
        </mxCell>
        <mxCell id="8fD-S27WqBdFzqs_7WYE-176" value="durum&lt;div&gt;(aktif/pasif)&lt;/div&gt;" style="ellipse;whiteSpace=wrap;html=1;fontFamily=Helvetica;fontSize=11;fontColor=default;labelBackgroundColor=default;" parent="1" vertex="1">
          <mxGeometry x="-71.5" y="927.5" width="77.5" height="56.25" as="geometry" />
        </mxCell>
        <mxCell id="8fD-S27WqBdFzqs_7WYE-177" value="KDV oranı" style="ellipse;whiteSpace=wrap;html=1;fontFamily=Helvetica;fontSize=11;fontColor=default;labelBackgroundColor=default;" parent="1" vertex="1">
          <mxGeometry x="-390" y="837.5" width="80" height="52.5" as="geometry" />
        </mxCell>
        <mxCell id="YZ9Vr9Id5WJVoP7LfM_h-108" style="edgeStyle=none;shape=connector;rounded=0;orthogonalLoop=1;jettySize=auto;html=1;exitX=0.5;exitY=0;exitDx=0;exitDy=0;entryX=0.5;entryY=1;entryDx=0;entryDy=0;strokeColor=default;align=center;verticalAlign=middle;fontFamily=Helvetica;fontSize=11;fontColor=default;labelBackgroundColor=default;startFill=0;endArrow=none;" parent="1" source="8fD-S27WqBdFzqs_7WYE-178" target="8fD-S27WqBdFzqs_7WYE-180" edge="1">
          <mxGeometry relative="1" as="geometry" />
        </mxCell>
        <mxCell id="YZ9Vr9Id5WJVoP7LfM_h-109" style="edgeStyle=none;shape=connector;rounded=0;orthogonalLoop=1;jettySize=auto;html=1;exitX=1;exitY=0.5;exitDx=0;exitDy=0;entryX=0;entryY=0.5;entryDx=0;entryDy=0;strokeColor=default;align=center;verticalAlign=middle;fontFamily=Helvetica;fontSize=11;fontColor=default;labelBackgroundColor=default;startFill=0;endArrow=none;" parent="1" source="8fD-S27WqBdFzqs_7WYE-178" target="8fD-S27WqBdFzqs_7WYE-179" edge="1">
          <mxGeometry relative="1" as="geometry" />
        </mxCell>
        <mxCell id="YZ9Vr9Id5WJVoP7LfM_h-110" style="edgeStyle=none;shape=connector;rounded=0;orthogonalLoop=1;jettySize=auto;html=1;exitX=0.5;exitY=1;exitDx=0;exitDy=0;entryX=0.5;entryY=0;entryDx=0;entryDy=0;strokeColor=default;align=center;verticalAlign=middle;fontFamily=Helvetica;fontSize=11;fontColor=default;labelBackgroundColor=default;startFill=0;endArrow=none;" parent="1" source="8fD-S27WqBdFzqs_7WYE-178" target="8fD-S27WqBdFzqs_7WYE-185" edge="1">
          <mxGeometry relative="1" as="geometry" />
        </mxCell>
        <mxCell id="YZ9Vr9Id5WJVoP7LfM_h-155" value="&lt;span style=&quot;font-size: 20px;&quot;&gt;1&lt;/span&gt;" style="edgeLabel;html=1;align=center;verticalAlign=middle;resizable=0;points=[];fontFamily=Helvetica;fontSize=11;fontColor=default;labelBackgroundColor=default;fillColor=none;gradientColor=none;" parent="YZ9Vr9Id5WJVoP7LfM_h-110" vertex="1" connectable="0">
          <mxGeometry x="-0.047" y="2" relative="1" as="geometry">
            <mxPoint as="offset" />
          </mxGeometry>
        </mxCell>
        <mxCell id="8fD-S27WqBdFzqs_7WYE-178" value="üst kategori" style="rounded=0;whiteSpace=wrap;html=1;fontFamily=Helvetica;fontSize=11;labelBackgroundColor=default;fillColor=#f8cecc;strokeColor=#b85450;" parent="1" vertex="1">
          <mxGeometry x="170" y="950" width="110" height="55" as="geometry" />
        </mxCell>
        <mxCell id="8fD-S27WqBdFzqs_7WYE-179" value="üst kategori&lt;div&gt;açıklaması&lt;/div&gt;" style="ellipse;whiteSpace=wrap;html=1;fontFamily=Helvetica;fontSize=11;fontColor=default;labelBackgroundColor=default;" parent="1" vertex="1">
          <mxGeometry x="275" y="877.5" width="80" height="61.25" as="geometry" />
        </mxCell>
        <mxCell id="8fD-S27WqBdFzqs_7WYE-180" value="üstKategoriID" style="ellipse;whiteSpace=wrap;html=1;fontFamily=Helvetica;fontSize=11;fontColor=default;labelBackgroundColor=default;" parent="1" vertex="1">
          <mxGeometry x="170" y="863.75" width="80" height="60" as="geometry" />
        </mxCell>
        <mxCell id="8fD-S27WqBdFzqs_7WYE-181" value="altKategoriID" style="ellipse;whiteSpace=wrap;html=1;fontFamily=Helvetica;fontSize=11;fontColor=default;labelBackgroundColor=default;" parent="1" vertex="1">
          <mxGeometry x="506" y="923.75" width="90" height="70" as="geometry" />
        </mxCell>
        <mxCell id="8fD-S27WqBdFzqs_7WYE-182" value="alt kategori&amp;nbsp;&lt;div&gt;açıklaması&lt;/div&gt;" style="ellipse;whiteSpace=wrap;html=1;fontFamily=Helvetica;fontSize=11;fontColor=default;labelBackgroundColor=default;" parent="1" vertex="1">
          <mxGeometry x="554.03" y="1020" width="90" height="70" as="geometry" />
        </mxCell>
        <mxCell id="YZ9Vr9Id5WJVoP7LfM_h-149" style="edgeStyle=none;shape=connector;rounded=0;orthogonalLoop=1;jettySize=auto;html=1;exitX=1;exitY=1;exitDx=0;exitDy=0;entryX=0;entryY=0.5;entryDx=0;entryDy=0;strokeColor=default;align=center;verticalAlign=middle;fontFamily=Helvetica;fontSize=11;fontColor=default;labelBackgroundColor=default;resizable=0;startFill=0;endArrow=none;" parent="1" source="8fD-S27WqBdFzqs_7WYE-183" target="8fD-S27WqBdFzqs_7WYE-178" edge="1">
          <mxGeometry relative="1" as="geometry" />
        </mxCell>
        <mxCell id="YZ9Vr9Id5WJVoP7LfM_h-150" value="&lt;font style=&quot;font-size: 20px;&quot;&gt;1&lt;/font&gt;" style="edgeLabel;html=1;align=center;verticalAlign=middle;resizable=0;points=[];fontFamily=Helvetica;fontSize=11;fontColor=default;labelBackgroundColor=default;fillColor=none;gradientColor=none;" parent="YZ9Vr9Id5WJVoP7LfM_h-149" vertex="1" connectable="0">
          <mxGeometry x="-0.0124" y="-2" relative="1" as="geometry">
            <mxPoint as="offset" />
          </mxGeometry>
        </mxCell>
        <mxCell id="8fD-S27WqBdFzqs_7WYE-183" value="olur" style="rhombus;whiteSpace=wrap;html=1;fontFamily=Helvetica;fontSize=11;fontColor=default;labelBackgroundColor=default;" parent="1" vertex="1">
          <mxGeometry x="37.5" y="837.5" width="80" height="80" as="geometry" />
        </mxCell>
        <mxCell id="YZ9Vr9Id5WJVoP7LfM_h-112" style="edgeStyle=none;shape=connector;rounded=0;orthogonalLoop=1;jettySize=auto;html=1;exitX=1;exitY=0;exitDx=0;exitDy=0;entryX=0;entryY=0.5;entryDx=0;entryDy=0;strokeColor=default;align=center;verticalAlign=middle;fontFamily=Helvetica;fontSize=11;fontColor=default;labelBackgroundColor=default;startFill=0;endArrow=none;" parent="1" source="8fD-S27WqBdFzqs_7WYE-184" target="8fD-S27WqBdFzqs_7WYE-181" edge="1">
          <mxGeometry relative="1" as="geometry" />
        </mxCell>
        <mxCell id="YZ9Vr9Id5WJVoP7LfM_h-113" style="edgeStyle=none;shape=connector;rounded=0;orthogonalLoop=1;jettySize=auto;html=1;exitX=1;exitY=0.5;exitDx=0;exitDy=0;entryX=0;entryY=0.5;entryDx=0;entryDy=0;strokeColor=default;align=center;verticalAlign=middle;fontFamily=Helvetica;fontSize=11;fontColor=default;labelBackgroundColor=default;startFill=0;endArrow=none;" parent="1" source="8fD-S27WqBdFzqs_7WYE-184" target="8fD-S27WqBdFzqs_7WYE-182" edge="1">
          <mxGeometry relative="1" as="geometry" />
        </mxCell>
        <mxCell id="O06P7-NGEBOdylAl6Ql0-76" style="edgeStyle=none;shape=connector;rounded=0;orthogonalLoop=1;jettySize=auto;html=1;strokeColor=default;align=center;verticalAlign=middle;fontFamily=Helvetica;fontSize=11;fontColor=default;labelBackgroundColor=default;startFill=0;endArrow=none;entryX=1;entryY=0.5;entryDx=0;entryDy=0;" parent="1" source="8fD-S27WqBdFzqs_7WYE-184" target="O06P7-NGEBOdylAl6Ql0-77" edge="1">
          <mxGeometry relative="1" as="geometry">
            <mxPoint x="450" y="740" as="targetPoint" />
          </mxGeometry>
        </mxCell>
        <mxCell id="O06P7-NGEBOdylAl6Ql0-105" value="&lt;font style=&quot;font-size: 20px;&quot;&gt;1&lt;/font&gt;" style="edgeLabel;html=1;align=center;verticalAlign=middle;resizable=0;points=[];fontFamily=Helvetica;fontSize=11;fontColor=default;labelBackgroundColor=default;" parent="O06P7-NGEBOdylAl6Ql0-76" vertex="1" connectable="0">
          <mxGeometry x="-0.0509" y="1" relative="1" as="geometry">
            <mxPoint as="offset" />
          </mxGeometry>
        </mxCell>
        <mxCell id="8fD-S27WqBdFzqs_7WYE-184" value="alt kategori" style="rounded=0;whiteSpace=wrap;html=1;fontFamily=Helvetica;fontSize=11;labelBackgroundColor=default;fillColor=#f8cecc;strokeColor=#b85450;" parent="1" vertex="1">
          <mxGeometry x="423" y="1020.0000000000001" width="100" height="58.12" as="geometry" />
        </mxCell>
        <mxCell id="r_VLMEdGVBM_KSo3yscy-10" style="edgeStyle=none;shape=connector;rounded=0;orthogonalLoop=1;jettySize=auto;html=1;exitX=1;exitY=0.5;exitDx=0;exitDy=0;entryX=0;entryY=0.5;entryDx=0;entryDy=0;strokeColor=default;align=center;verticalAlign=middle;fontFamily=Helvetica;fontSize=11;fontColor=default;labelBackgroundColor=default;startFill=0;endArrow=none;" parent="1" source="8fD-S27WqBdFzqs_7WYE-185" target="8fD-S27WqBdFzqs_7WYE-184" edge="1">
          <mxGeometry relative="1" as="geometry" />
        </mxCell>
        <mxCell id="r_VLMEdGVBM_KSo3yscy-11" value="&lt;font style=&quot;font-size: 20px;&quot;&gt;n&lt;/font&gt;" style="edgeLabel;html=1;align=center;verticalAlign=middle;resizable=0;points=[];fontFamily=Helvetica;fontSize=11;fontColor=default;labelBackgroundColor=default;" parent="r_VLMEdGVBM_KSo3yscy-10" vertex="1" connectable="0">
          <mxGeometry x="0.1924" y="-3" relative="1" as="geometry">
            <mxPoint as="offset" />
          </mxGeometry>
        </mxCell>
        <mxCell id="8fD-S27WqBdFzqs_7WYE-185" value="olur" style="rhombus;whiteSpace=wrap;html=1;fontFamily=Helvetica;fontSize=11;fontColor=default;labelBackgroundColor=default;" parent="1" vertex="1">
          <mxGeometry x="316" y="1053.75" width="80" height="80" as="geometry" />
        </mxCell>
        <mxCell id="YZ9Vr9Id5WJVoP7LfM_h-156" style="edgeStyle=none;shape=connector;rounded=0;orthogonalLoop=1;jettySize=auto;html=1;exitX=1;exitY=0.5;exitDx=0;exitDy=0;entryX=0;entryY=0;entryDx=0;entryDy=0;strokeColor=default;align=center;verticalAlign=middle;fontFamily=Helvetica;fontSize=11;fontColor=default;labelBackgroundColor=default;resizable=0;startFill=0;endArrow=none;" parent="1" source="8fD-S27WqBdFzqs_7WYE-200" target="8fD-S27WqBdFzqs_7WYE-219" edge="1">
          <mxGeometry relative="1" as="geometry" />
        </mxCell>
        <mxCell id="YZ9Vr9Id5WJVoP7LfM_h-164" value="&lt;font style=&quot;font-size: 20px;&quot;&gt;1&lt;/font&gt;" style="edgeLabel;html=1;align=center;verticalAlign=middle;resizable=0;points=[];fontFamily=Helvetica;fontSize=11;fontColor=default;labelBackgroundColor=default;fillColor=none;gradientColor=none;" parent="YZ9Vr9Id5WJVoP7LfM_h-156" vertex="1" connectable="0">
          <mxGeometry x="0.0029" relative="1" as="geometry">
            <mxPoint y="1" as="offset" />
          </mxGeometry>
        </mxCell>
        <mxCell id="r_VLMEdGVBM_KSo3yscy-6" style="edgeStyle=none;shape=connector;rounded=0;orthogonalLoop=1;jettySize=auto;html=1;exitX=1;exitY=0.25;exitDx=0;exitDy=0;entryX=0;entryY=0.5;entryDx=0;entryDy=0;strokeColor=default;align=center;verticalAlign=middle;fontFamily=Helvetica;fontSize=11;fontColor=default;labelBackgroundColor=default;startFill=0;endArrow=none;" parent="1" source="8fD-S27WqBdFzqs_7WYE-200" target="8fD-S27WqBdFzqs_7WYE-201" edge="1">
          <mxGeometry relative="1" as="geometry">
            <Array as="points" />
          </mxGeometry>
        </mxCell>
        <mxCell id="r_VLMEdGVBM_KSo3yscy-7" value="n" style="edgeLabel;html=1;align=center;verticalAlign=middle;resizable=0;points=[];fontFamily=Helvetica;fontSize=21;fontColor=default;labelBackgroundColor=default;" parent="r_VLMEdGVBM_KSo3yscy-6" vertex="1" connectable="0">
          <mxGeometry x="0.0461" y="-3" relative="1" as="geometry">
            <mxPoint as="offset" />
          </mxGeometry>
        </mxCell>
        <mxCell id="CwLL34Ni06w6Smd44Q-Q-65" style="edgeStyle=none;shape=connector;rounded=0;orthogonalLoop=1;jettySize=auto;html=1;exitX=0.5;exitY=1;exitDx=0;exitDy=0;entryX=0.5;entryY=0;entryDx=0;entryDy=0;strokeColor=default;align=center;verticalAlign=middle;fontFamily=Helvetica;fontSize=11;fontColor=default;labelBackgroundColor=default;startFill=0;endArrow=none;" parent="1" source="8fD-S27WqBdFzqs_7WYE-200" target="CwLL34Ni06w6Smd44Q-Q-64" edge="1">
          <mxGeometry relative="1" as="geometry" />
        </mxCell>
        <mxCell id="8fD-S27WqBdFzqs_7WYE-200" value="BİRİM SETİ" style="rounded=0;whiteSpace=wrap;html=1;fontFamily=Helvetica;fontSize=11;labelBackgroundColor=default;fillColor=#f8cecc;strokeColor=#b85450;" parent="1" vertex="1">
          <mxGeometry x="-829.9999999999999" y="960" width="120" height="60" as="geometry" />
        </mxCell>
        <mxCell id="8fD-S27WqBdFzqs_7WYE-201" value="sahiptir" style="rhombus;whiteSpace=wrap;html=1;fontFamily=Helvetica;fontSize=11;fontColor=default;labelBackgroundColor=default;" parent="1" vertex="1">
          <mxGeometry x="-493" y="981.25" width="80" height="80" as="geometry" />
        </mxCell>
        <mxCell id="8fD-S27WqBdFzqs_7WYE-214" style="edgeStyle=none;shape=connector;rounded=0;orthogonalLoop=1;jettySize=auto;html=1;exitX=1;exitY=1;exitDx=0;exitDy=0;entryX=0;entryY=0.25;entryDx=0;entryDy=0;strokeColor=default;align=center;verticalAlign=middle;fontFamily=Helvetica;fontSize=11;fontColor=default;labelBackgroundColor=default;startFill=0;endArrow=none;" parent="1" source="8fD-S27WqBdFzqs_7WYE-205" target="8fD-S27WqBdFzqs_7WYE-200" edge="1">
          <mxGeometry relative="1" as="geometry" />
        </mxCell>
        <mxCell id="8fD-S27WqBdFzqs_7WYE-205" value="birim adı" style="ellipse;whiteSpace=wrap;html=1;fontFamily=Helvetica;fontSize=11;fontColor=default;labelBackgroundColor=default;" parent="1" vertex="1">
          <mxGeometry x="-1018.07" y="882.5" width="100" height="60" as="geometry" />
        </mxCell>
        <mxCell id="r_VLMEdGVBM_KSo3yscy-3" style="edgeStyle=none;shape=connector;rounded=0;orthogonalLoop=1;jettySize=auto;html=1;exitX=1;exitY=0.25;exitDx=0;exitDy=0;entryX=0;entryY=0.5;entryDx=0;entryDy=0;strokeColor=default;align=center;verticalAlign=middle;fontFamily=Helvetica;fontSize=11;fontColor=default;labelBackgroundColor=default;startFill=0;endArrow=none;" parent="1" source="8fD-S27WqBdFzqs_7WYE-218" target="8fD-S27WqBdFzqs_7WYE-222" edge="1">
          <mxGeometry relative="1" as="geometry" />
        </mxCell>
        <mxCell id="r_VLMEdGVBM_KSo3yscy-5" style="edgeStyle=none;shape=connector;rounded=0;orthogonalLoop=1;jettySize=auto;html=1;exitX=1;exitY=0.75;exitDx=0;exitDy=0;entryX=0;entryY=0.5;entryDx=0;entryDy=0;strokeColor=default;align=center;verticalAlign=middle;fontFamily=Helvetica;fontSize=11;fontColor=default;labelBackgroundColor=default;startFill=0;endArrow=none;" parent="1" source="8fD-S27WqBdFzqs_7WYE-218" target="8fD-S27WqBdFzqs_7WYE-223" edge="1">
          <mxGeometry relative="1" as="geometry" />
        </mxCell>
        <mxCell id="8fD-S27WqBdFzqs_7WYE-218" value="BARKOD" style="rounded=0;whiteSpace=wrap;html=1;fontFamily=Helvetica;fontSize=11;labelBackgroundColor=default;fillColor=#f8cecc;strokeColor=#b85450;" parent="1" vertex="1">
          <mxGeometry x="-557" y="1090" width="120" height="60" as="geometry" />
        </mxCell>
        <mxCell id="YZ9Vr9Id5WJVoP7LfM_h-161" style="edgeStyle=none;shape=connector;rounded=0;orthogonalLoop=1;jettySize=auto;html=1;exitX=1;exitY=0.5;exitDx=0;exitDy=0;entryX=0;entryY=0.5;entryDx=0;entryDy=0;strokeColor=default;align=center;verticalAlign=middle;fontFamily=Helvetica;fontSize=11;fontColor=default;labelBackgroundColor=default;resizable=0;startFill=0;endArrow=none;" parent="1" source="8fD-S27WqBdFzqs_7WYE-219" target="8fD-S27WqBdFzqs_7WYE-218" edge="1">
          <mxGeometry relative="1" as="geometry" />
        </mxCell>
        <mxCell id="YZ9Vr9Id5WJVoP7LfM_h-163" value="&lt;font style=&quot;font-size: 20px;&quot;&gt;n&lt;/font&gt;" style="edgeLabel;html=1;align=center;verticalAlign=middle;resizable=0;points=[];fontFamily=Helvetica;fontSize=11;fontColor=default;labelBackgroundColor=default;fillColor=none;gradientColor=none;" parent="YZ9Vr9Id5WJVoP7LfM_h-161" vertex="1" connectable="0">
          <mxGeometry x="-0.0578" y="1" relative="1" as="geometry">
            <mxPoint as="offset" />
          </mxGeometry>
        </mxCell>
        <mxCell id="8fD-S27WqBdFzqs_7WYE-219" value="tanımlanır" style="rhombus;whiteSpace=wrap;html=1;fontFamily=Helvetica;fontSize=11;fontColor=default;labelBackgroundColor=default;" parent="1" vertex="1">
          <mxGeometry x="-679.9999999999999" y="1053.75" width="70" height="70" as="geometry" />
        </mxCell>
        <mxCell id="8fD-S27WqBdFzqs_7WYE-222" value="barkod NO" style="ellipse;whiteSpace=wrap;html=1;fontFamily=Helvetica;fontSize=11;fontColor=default;labelBackgroundColor=default;" parent="1" vertex="1">
          <mxGeometry x="-350.75" y="1061.25" width="81" height="55" as="geometry" />
        </mxCell>
        <mxCell id="8fD-S27WqBdFzqs_7WYE-223" value="barkodID" style="ellipse;whiteSpace=wrap;html=1;fontFamily=Helvetica;fontSize=11;fontColor=default;labelBackgroundColor=default;" parent="1" vertex="1">
          <mxGeometry x="-350" y="1133.75" width="70" height="50" as="geometry" />
        </mxCell>
        <mxCell id="YZ9Vr9Id5WJVoP7LfM_h-46" style="edgeStyle=none;shape=connector;rounded=0;orthogonalLoop=1;jettySize=auto;html=1;exitX=0.25;exitY=1;exitDx=0;exitDy=0;strokeColor=default;align=center;verticalAlign=middle;fontFamily=Helvetica;fontSize=11;fontColor=default;labelBackgroundColor=default;startFill=0;endArrow=none;" parent="1" source="8fD-S27WqBdFzqs_7WYE-256" target="YZ9Vr9Id5WJVoP7LfM_h-44" edge="1">
          <mxGeometry relative="1" as="geometry" />
        </mxCell>
        <mxCell id="YZ9Vr9Id5WJVoP7LfM_h-174" value="&lt;font style=&quot;font-size: 20px;&quot;&gt;n&lt;/font&gt;" style="edgeLabel;html=1;align=center;verticalAlign=middle;resizable=0;points=[];fontFamily=Helvetica;fontSize=11;fontColor=default;labelBackgroundColor=default;fillColor=none;gradientColor=none;" parent="YZ9Vr9Id5WJVoP7LfM_h-46" vertex="1" connectable="0">
          <mxGeometry x="0.1534" relative="1" as="geometry">
            <mxPoint y="1" as="offset" />
          </mxGeometry>
        </mxCell>
        <mxCell id="YZ9Vr9Id5WJVoP7LfM_h-93" style="edgeStyle=none;shape=connector;rounded=0;orthogonalLoop=1;jettySize=auto;html=1;exitX=1;exitY=0;exitDx=0;exitDy=0;entryX=0;entryY=1;entryDx=0;entryDy=0;strokeColor=default;align=center;verticalAlign=middle;fontFamily=Helvetica;fontSize=11;fontColor=default;labelBackgroundColor=default;startFill=0;endArrow=none;" parent="1" source="8fD-S27WqBdFzqs_7WYE-256" target="8fD-S27WqBdFzqs_7WYE-265" edge="1">
          <mxGeometry relative="1" as="geometry" />
        </mxCell>
        <mxCell id="YZ9Vr9Id5WJVoP7LfM_h-171" style="edgeStyle=none;shape=connector;rounded=0;orthogonalLoop=1;jettySize=auto;html=1;exitX=1;exitY=0.25;exitDx=0;exitDy=0;entryX=0;entryY=1;entryDx=0;entryDy=0;strokeColor=default;align=center;verticalAlign=middle;fontFamily=Helvetica;fontSize=11;fontColor=default;labelBackgroundColor=default;resizable=0;startFill=0;endArrow=none;" parent="1" source="8fD-S27WqBdFzqs_7WYE-256" target="8fD-S27WqBdFzqs_7WYE-266" edge="1">
          <mxGeometry relative="1" as="geometry" />
        </mxCell>
        <mxCell id="YZ9Vr9Id5WJVoP7LfM_h-218" style="edgeStyle=none;shape=connector;rounded=0;orthogonalLoop=1;jettySize=auto;html=1;exitX=1;exitY=1;exitDx=0;exitDy=0;entryX=0;entryY=0;entryDx=0;entryDy=0;strokeColor=default;align=center;verticalAlign=middle;fontFamily=Helvetica;fontSize=11;fontColor=default;labelBackgroundColor=default;resizable=0;startFill=0;endArrow=none;" parent="1" source="8fD-S27WqBdFzqs_7WYE-256" target="8fD-S27WqBdFzqs_7WYE-307" edge="1">
          <mxGeometry relative="1" as="geometry" />
        </mxCell>
        <mxCell id="YZ9Vr9Id5WJVoP7LfM_h-219" value="&lt;font style=&quot;font-size: 20px;&quot;&gt;1&lt;/font&gt;" style="edgeLabel;html=1;align=center;verticalAlign=middle;resizable=0;points=[];fontFamily=Helvetica;fontSize=11;fontColor=default;labelBackgroundColor=default;fillColor=none;gradientColor=none;" parent="YZ9Vr9Id5WJVoP7LfM_h-218" vertex="1" connectable="0">
          <mxGeometry x="-0.0056" relative="1" as="geometry">
            <mxPoint as="offset" />
          </mxGeometry>
        </mxCell>
        <mxCell id="8fD-S27WqBdFzqs_7WYE-256" value="DEPO" style="rounded=0;whiteSpace=wrap;html=1;fontFamily=Helvetica;fontSize=11;labelBackgroundColor=default;fillColor=#f8cecc;strokeColor=#b85450;" parent="1" vertex="1">
          <mxGeometry x="-828" y="-465" width="120" height="60" as="geometry" />
        </mxCell>
        <mxCell id="8fD-S27WqBdFzqs_7WYE-271" style="edgeStyle=none;shape=connector;rounded=0;orthogonalLoop=1;jettySize=auto;html=1;exitX=0.5;exitY=1;exitDx=0;exitDy=0;entryX=0.5;entryY=0;entryDx=0;entryDy=0;strokeColor=default;align=center;verticalAlign=middle;fontFamily=Helvetica;fontSize=11;fontColor=default;labelBackgroundColor=default;startFill=0;endArrow=none;" parent="1" source="8fD-S27WqBdFzqs_7WYE-259" target="8fD-S27WqBdFzqs_7WYE-256" edge="1">
          <mxGeometry relative="1" as="geometry" />
        </mxCell>
        <mxCell id="8fD-S27WqBdFzqs_7WYE-259" value="depo adı" style="ellipse;whiteSpace=wrap;html=1;fontFamily=Helvetica;fontSize=11;fontColor=default;labelBackgroundColor=default;" parent="1" vertex="1">
          <mxGeometry x="-815" y="-705" width="90" height="62.5" as="geometry" />
        </mxCell>
        <mxCell id="8fD-S27WqBdFzqs_7WYE-270" style="edgeStyle=none;shape=connector;rounded=0;orthogonalLoop=1;jettySize=auto;html=1;exitX=0.5;exitY=1;exitDx=0;exitDy=0;entryX=0.75;entryY=0;entryDx=0;entryDy=0;strokeColor=default;align=center;verticalAlign=middle;fontFamily=Helvetica;fontSize=11;fontColor=default;labelBackgroundColor=default;startFill=0;endArrow=none;" parent="1" source="8fD-S27WqBdFzqs_7WYE-260" target="8fD-S27WqBdFzqs_7WYE-256" edge="1">
          <mxGeometry relative="1" as="geometry" />
        </mxCell>
        <mxCell id="8fD-S27WqBdFzqs_7WYE-260" value="depo kodu" style="ellipse;whiteSpace=wrap;html=1;fontFamily=Helvetica;fontSize=11;fontColor=default;labelBackgroundColor=default;" parent="1" vertex="1">
          <mxGeometry x="-716.5" y="-712.5" width="97" height="63.75" as="geometry" />
        </mxCell>
        <mxCell id="8fD-S27WqBdFzqs_7WYE-272" style="edgeStyle=none;shape=connector;rounded=0;orthogonalLoop=1;jettySize=auto;html=1;exitX=1;exitY=1;exitDx=0;exitDy=0;entryX=0.25;entryY=0;entryDx=0;entryDy=0;strokeColor=default;align=center;verticalAlign=middle;fontFamily=Helvetica;fontSize=11;fontColor=default;labelBackgroundColor=default;startFill=0;endArrow=none;" parent="1" source="8fD-S27WqBdFzqs_7WYE-261" target="8fD-S27WqBdFzqs_7WYE-256" edge="1">
          <mxGeometry relative="1" as="geometry" />
        </mxCell>
        <mxCell id="8fD-S27WqBdFzqs_7WYE-261" value="depo açıklaması" style="ellipse;whiteSpace=wrap;html=1;fontFamily=Helvetica;fontSize=11;fontColor=default;labelBackgroundColor=default;" parent="1" vertex="1">
          <mxGeometry x="-935" y="-685" width="90.5" height="60" as="geometry" />
        </mxCell>
        <mxCell id="YZ9Vr9Id5WJVoP7LfM_h-94" style="edgeStyle=none;shape=connector;rounded=0;orthogonalLoop=1;jettySize=auto;html=1;exitX=0;exitY=0.5;exitDx=0;exitDy=0;entryX=1;entryY=0.5;entryDx=0;entryDy=0;strokeColor=default;align=center;verticalAlign=middle;fontFamily=Helvetica;fontSize=11;fontColor=default;labelBackgroundColor=default;startFill=0;endArrow=none;" parent="1" source="8fD-S27WqBdFzqs_7WYE-262" target="8fD-S27WqBdFzqs_7WYE-256" edge="1">
          <mxGeometry relative="1" as="geometry" />
        </mxCell>
        <mxCell id="YZ9Vr9Id5WJVoP7LfM_h-165" value="&lt;font size=&quot;1&quot;&gt;1&lt;/font&gt;" style="edgeLabel;html=1;align=center;verticalAlign=middle;resizable=0;points=[];fontFamily=Helvetica;fontSize=11;fontColor=default;labelBackgroundColor=default;fillColor=none;gradientColor=none;" parent="YZ9Vr9Id5WJVoP7LfM_h-94" vertex="1" connectable="0">
          <mxGeometry x="-0.0347" relative="1" as="geometry">
            <mxPoint as="offset" />
          </mxGeometry>
        </mxCell>
        <mxCell id="YZ9Vr9Id5WJVoP7LfM_h-169" value="&lt;font style=&quot;font-size: 20px;&quot;&gt;1&lt;/font&gt;" style="edgeLabel;html=1;align=center;verticalAlign=middle;resizable=0;points=[];fontFamily=Helvetica;fontSize=11;fontColor=default;labelBackgroundColor=default;fillColor=none;gradientColor=none;" parent="YZ9Vr9Id5WJVoP7LfM_h-94" vertex="1" connectable="0">
          <mxGeometry x="-0.0375" y="1" relative="1" as="geometry">
            <mxPoint as="offset" />
          </mxGeometry>
        </mxCell>
        <mxCell id="YZ9Vr9Id5WJVoP7LfM_h-95" style="edgeStyle=none;shape=connector;rounded=0;orthogonalLoop=1;jettySize=auto;html=1;exitX=1;exitY=0.5;exitDx=0;exitDy=0;entryX=0;entryY=0.5;entryDx=0;entryDy=0;strokeColor=default;align=center;verticalAlign=middle;fontFamily=Helvetica;fontSize=11;fontColor=default;labelBackgroundColor=default;startFill=0;endArrow=none;" parent="1" source="8fD-S27WqBdFzqs_7WYE-262" target="8fD-S27WqBdFzqs_7WYE-6" edge="1">
          <mxGeometry relative="1" as="geometry" />
        </mxCell>
        <mxCell id="YZ9Vr9Id5WJVoP7LfM_h-166" value="&lt;font style=&quot;font-size: 20px;&quot;&gt;1&lt;/font&gt;" style="edgeLabel;html=1;align=center;verticalAlign=middle;resizable=0;points=[];fontFamily=Helvetica;fontSize=11;fontColor=default;labelBackgroundColor=default;fillColor=none;gradientColor=none;" parent="YZ9Vr9Id5WJVoP7LfM_h-95" vertex="1" connectable="0">
          <mxGeometry x="-0.0707" y="-3" relative="1" as="geometry">
            <mxPoint x="-56" y="-3" as="offset" />
          </mxGeometry>
        </mxCell>
        <mxCell id="8fD-S27WqBdFzqs_7WYE-262" value="olur" style="rhombus;whiteSpace=wrap;html=1;fontFamily=Helvetica;fontSize=11;fontColor=default;labelBackgroundColor=default;" parent="1" vertex="1">
          <mxGeometry x="-450" y="-504" width="80" height="80" as="geometry" />
        </mxCell>
        <mxCell id="8fD-S27WqBdFzqs_7WYE-265" value="doluluk oranı" style="ellipse;whiteSpace=wrap;html=1;fontFamily=Helvetica;fontSize=11;fontColor=default;labelBackgroundColor=default;dashed=1;" parent="1" vertex="1">
          <mxGeometry x="-607" y="-662.5" width="80" height="70" as="geometry" />
        </mxCell>
        <mxCell id="8fD-S27WqBdFzqs_7WYE-266" value="doluluk" style="ellipse;whiteSpace=wrap;html=1;fontFamily=Helvetica;fontSize=11;fontColor=default;labelBackgroundColor=default;" parent="1" vertex="1">
          <mxGeometry x="-557" y="-584.37" width="87" height="70" as="geometry" />
        </mxCell>
        <mxCell id="YZ9Vr9Id5WJVoP7LfM_h-45" style="edgeStyle=none;shape=connector;rounded=0;orthogonalLoop=1;jettySize=auto;html=1;exitX=1;exitY=0.5;exitDx=0;exitDy=0;entryX=0;entryY=1;entryDx=0;entryDy=0;strokeColor=default;align=center;verticalAlign=middle;fontFamily=Helvetica;fontSize=11;fontColor=default;labelBackgroundColor=default;startFill=0;endArrow=none;" parent="1" source="8fD-S27WqBdFzqs_7WYE-267" target="8fD-S27WqBdFzqs_7WYE-256" edge="1">
          <mxGeometry relative="1" as="geometry" />
        </mxCell>
        <mxCell id="8fD-S27WqBdFzqs_7WYE-267" value="kapasite" style="ellipse;whiteSpace=wrap;html=1;fontFamily=Helvetica;fontSize=11;fontColor=default;labelBackgroundColor=default;" parent="1" vertex="1">
          <mxGeometry x="-1183" y="-360" width="103" height="60" as="geometry" />
        </mxCell>
        <mxCell id="YZ9Vr9Id5WJVoP7LfM_h-170" style="edgeStyle=none;shape=connector;rounded=0;orthogonalLoop=1;jettySize=auto;html=1;exitX=1;exitY=0.5;exitDx=0;exitDy=0;entryX=0;entryY=0.75;entryDx=0;entryDy=0;strokeColor=default;align=center;verticalAlign=middle;fontFamily=Helvetica;fontSize=11;fontColor=default;labelBackgroundColor=default;resizable=0;startFill=0;endArrow=none;" parent="1" source="8fD-S27WqBdFzqs_7WYE-268" target="8fD-S27WqBdFzqs_7WYE-256" edge="1">
          <mxGeometry relative="1" as="geometry" />
        </mxCell>
        <mxCell id="8fD-S27WqBdFzqs_7WYE-268" value="telefon" style="ellipse;whiteSpace=wrap;html=1;fontFamily=Helvetica;fontSize=11;fontColor=default;labelBackgroundColor=default;" parent="1" vertex="1">
          <mxGeometry x="-1157" y="-434" width="82" height="60" as="geometry" />
        </mxCell>
        <mxCell id="8fD-S27WqBdFzqs_7WYE-269" style="edgeStyle=none;shape=connector;rounded=0;orthogonalLoop=1;jettySize=auto;html=1;exitX=1;exitY=0.5;exitDx=0;exitDy=0;strokeColor=default;align=center;verticalAlign=middle;fontFamily=Helvetica;fontSize=11;fontColor=default;labelBackgroundColor=default;startFill=0;endArrow=none;" parent="1" edge="1">
          <mxGeometry relative="1" as="geometry">
            <mxPoint x="-356.9999999999918" y="163.25" as="sourcePoint" />
            <mxPoint x="-356.9999999999918" y="163.25" as="targetPoint" />
          </mxGeometry>
        </mxCell>
        <mxCell id="8fD-S27WqBdFzqs_7WYE-447" style="edgeStyle=none;shape=connector;rounded=0;orthogonalLoop=1;jettySize=auto;html=1;exitX=1;exitY=0.75;exitDx=0;exitDy=0;entryX=0;entryY=0.5;entryDx=0;entryDy=0;strokeColor=default;align=center;verticalAlign=middle;fontFamily=Helvetica;fontSize=11;fontColor=default;labelBackgroundColor=default;startFill=0;endArrow=none;" parent="1" source="8fD-S27WqBdFzqs_7WYE-305" target="8fD-S27WqBdFzqs_7WYE-446" edge="1">
          <mxGeometry relative="1" as="geometry" />
        </mxCell>
        <mxCell id="YZ9Vr9Id5WJVoP7LfM_h-216" value="&lt;font style=&quot;font-size: 20px;&quot;&gt;1&lt;/font&gt;" style="edgeLabel;html=1;align=center;verticalAlign=middle;resizable=0;points=[];fontFamily=Helvetica;fontSize=11;fontColor=default;labelBackgroundColor=default;fillColor=none;gradientColor=none;" parent="8fD-S27WqBdFzqs_7WYE-447" vertex="1" connectable="0">
          <mxGeometry x="0.0049" y="-1" relative="1" as="geometry">
            <mxPoint as="offset" />
          </mxGeometry>
        </mxCell>
        <mxCell id="YZ9Vr9Id5WJVoP7LfM_h-54" style="edgeStyle=none;shape=connector;rounded=0;orthogonalLoop=1;jettySize=auto;html=1;exitX=0.75;exitY=1;exitDx=0;exitDy=0;entryX=0.5;entryY=0;entryDx=0;entryDy=0;strokeColor=default;align=center;verticalAlign=middle;fontFamily=Helvetica;fontSize=11;fontColor=default;labelBackgroundColor=default;startFill=0;endArrow=none;" parent="1" source="8fD-S27WqBdFzqs_7WYE-305" target="YZ9Vr9Id5WJVoP7LfM_h-53" edge="1">
          <mxGeometry relative="1" as="geometry" />
        </mxCell>
        <mxCell id="YZ9Vr9Id5WJVoP7LfM_h-130" style="edgeStyle=none;shape=connector;rounded=0;orthogonalLoop=1;jettySize=auto;html=1;exitX=0.75;exitY=0;exitDx=0;exitDy=0;entryX=0;entryY=1;entryDx=0;entryDy=0;strokeColor=default;align=center;verticalAlign=middle;fontFamily=Helvetica;fontSize=11;fontColor=default;labelBackgroundColor=default;resizable=0;startFill=0;endArrow=none;" parent="1" source="8fD-S27WqBdFzqs_7WYE-305" target="8fD-S27WqBdFzqs_7WYE-333" edge="1">
          <mxGeometry relative="1" as="geometry" />
        </mxCell>
        <mxCell id="YZ9Vr9Id5WJVoP7LfM_h-131" value="&lt;font style=&quot;font-size: 20px;&quot;&gt;n&lt;/font&gt;" style="edgeLabel;html=1;align=center;verticalAlign=middle;resizable=0;points=[];fontFamily=Helvetica;fontSize=11;fontColor=default;labelBackgroundColor=default;fillColor=none;gradientColor=none;" parent="YZ9Vr9Id5WJVoP7LfM_h-130" vertex="1" connectable="0">
          <mxGeometry x="-0.0244" y="-1" relative="1" as="geometry">
            <mxPoint as="offset" />
          </mxGeometry>
        </mxCell>
        <mxCell id="YZ9Vr9Id5WJVoP7LfM_h-132" style="edgeStyle=none;shape=connector;rounded=0;orthogonalLoop=1;jettySize=auto;html=1;exitX=1;exitY=0;exitDx=0;exitDy=0;entryX=0;entryY=0.5;entryDx=0;entryDy=0;strokeColor=default;align=center;verticalAlign=middle;fontFamily=Helvetica;fontSize=11;fontColor=default;labelBackgroundColor=default;resizable=0;startFill=0;endArrow=none;" parent="1" source="8fD-S27WqBdFzqs_7WYE-305" target="8fD-S27WqBdFzqs_7WYE-339" edge="1">
          <mxGeometry relative="1" as="geometry" />
        </mxCell>
        <mxCell id="YZ9Vr9Id5WJVoP7LfM_h-133" style="edgeStyle=none;shape=connector;rounded=0;orthogonalLoop=1;jettySize=auto;html=1;exitX=1;exitY=0.25;exitDx=0;exitDy=0;entryX=0;entryY=0.5;entryDx=0;entryDy=0;strokeColor=default;align=center;verticalAlign=middle;fontFamily=Helvetica;fontSize=11;fontColor=default;labelBackgroundColor=default;resizable=0;startFill=0;endArrow=none;" parent="1" source="8fD-S27WqBdFzqs_7WYE-305" target="8fD-S27WqBdFzqs_7WYE-341" edge="1">
          <mxGeometry relative="1" as="geometry" />
        </mxCell>
        <mxCell id="YZ9Vr9Id5WJVoP7LfM_h-134" style="edgeStyle=none;shape=connector;rounded=0;orthogonalLoop=1;jettySize=auto;html=1;exitX=1;exitY=0.5;exitDx=0;exitDy=0;entryX=0;entryY=0.5;entryDx=0;entryDy=0;strokeColor=default;align=center;verticalAlign=middle;fontFamily=Helvetica;fontSize=11;fontColor=default;labelBackgroundColor=default;resizable=0;startFill=0;endArrow=none;" parent="1" source="8fD-S27WqBdFzqs_7WYE-305" target="YZ9Vr9Id5WJVoP7LfM_h-51" edge="1">
          <mxGeometry relative="1" as="geometry" />
        </mxCell>
        <mxCell id="YZ9Vr9Id5WJVoP7LfM_h-177" style="edgeStyle=none;shape=connector;rounded=0;orthogonalLoop=1;jettySize=auto;html=1;exitX=0.25;exitY=0;exitDx=0;exitDy=0;entryX=0.5;entryY=1;entryDx=0;entryDy=0;strokeColor=default;align=center;verticalAlign=middle;fontFamily=Helvetica;fontSize=11;fontColor=default;labelBackgroundColor=default;resizable=0;startFill=0;endArrow=none;" parent="1" source="8fD-S27WqBdFzqs_7WYE-305" target="8fD-S27WqBdFzqs_7WYE-377" edge="1">
          <mxGeometry relative="1" as="geometry" />
        </mxCell>
        <mxCell id="8fD-S27WqBdFzqs_7WYE-305" value="SİPARİŞ" style="rounded=0;whiteSpace=wrap;html=1;fontFamily=Helvetica;fontSize=11;labelBackgroundColor=default;fillColor=#f8cecc;strokeColor=#b85450;" parent="1" vertex="1">
          <mxGeometry x="-152" y="150" width="120" height="60" as="geometry" />
        </mxCell>
        <mxCell id="8fD-S27WqBdFzqs_7WYE-309" style="edgeStyle=none;shape=connector;rounded=0;orthogonalLoop=1;jettySize=auto;html=1;exitX=1;exitY=1;exitDx=0;exitDy=0;entryX=0;entryY=0;entryDx=0;entryDy=0;strokeColor=default;align=center;verticalAlign=middle;fontFamily=Helvetica;fontSize=11;fontColor=default;labelBackgroundColor=default;startFill=0;endArrow=none;" parent="1" source="8fD-S27WqBdFzqs_7WYE-307" target="8fD-S27WqBdFzqs_7WYE-305" edge="1">
          <mxGeometry relative="1" as="geometry" />
        </mxCell>
        <mxCell id="YZ9Vr9Id5WJVoP7LfM_h-220" value="&lt;font style=&quot;font-size: 20px;&quot;&gt;n&lt;/font&gt;" style="edgeLabel;html=1;align=center;verticalAlign=middle;resizable=0;points=[];fontFamily=Helvetica;fontSize=11;fontColor=default;labelBackgroundColor=default;fillColor=none;gradientColor=none;" parent="8fD-S27WqBdFzqs_7WYE-309" vertex="1" connectable="0">
          <mxGeometry x="-0.1409" y="3" relative="1" as="geometry">
            <mxPoint as="offset" />
          </mxGeometry>
        </mxCell>
        <mxCell id="8fD-S27WqBdFzqs_7WYE-307" value="bağlıdır" style="rhombus;whiteSpace=wrap;html=1;fontFamily=Helvetica;fontSize=11;fontColor=default;labelBackgroundColor=default;" parent="1" vertex="1">
          <mxGeometry x="-549.5" y="-280" width="77" height="75" as="geometry" />
        </mxCell>
        <mxCell id="8fD-S27WqBdFzqs_7WYE-323" style="edgeStyle=none;shape=connector;rounded=0;orthogonalLoop=1;jettySize=auto;html=1;exitX=1;exitY=0.5;exitDx=0;exitDy=0;entryX=0;entryY=0.5;entryDx=0;entryDy=0;strokeColor=default;align=center;verticalAlign=middle;fontFamily=Helvetica;fontSize=11;fontColor=default;labelBackgroundColor=default;startFill=0;endArrow=none;" parent="1" source="8fD-S27WqBdFzqs_7WYE-314" target="8fD-S27WqBdFzqs_7WYE-305" edge="1">
          <mxGeometry relative="1" as="geometry" />
        </mxCell>
        <mxCell id="8fD-S27WqBdFzqs_7WYE-314" value="net toplam" style="ellipse;whiteSpace=wrap;html=1;fontFamily=Helvetica;fontSize=11;fontColor=default;labelBackgroundColor=default;dashed=1;" parent="1" vertex="1">
          <mxGeometry x="-519" y="20" width="69" height="45" as="geometry" />
        </mxCell>
        <mxCell id="8fD-S27WqBdFzqs_7WYE-328" style="edgeStyle=none;shape=connector;rounded=0;orthogonalLoop=1;jettySize=auto;html=1;exitX=0.5;exitY=0;exitDx=0;exitDy=0;entryX=0.25;entryY=1;entryDx=0;entryDy=0;strokeColor=default;align=center;verticalAlign=middle;fontFamily=Helvetica;fontSize=11;fontColor=default;labelBackgroundColor=default;startFill=0;endArrow=none;" parent="1" source="8fD-S27WqBdFzqs_7WYE-315" target="8fD-S27WqBdFzqs_7WYE-305" edge="1">
          <mxGeometry relative="1" as="geometry" />
        </mxCell>
        <mxCell id="8fD-S27WqBdFzqs_7WYE-315" value="kalan tutar" style="ellipse;whiteSpace=wrap;html=1;fontFamily=Helvetica;fontSize=11;fontColor=default;labelBackgroundColor=default;dashed=1;" parent="1" vertex="1">
          <mxGeometry x="-97" y="340" width="70" height="50" as="geometry" />
        </mxCell>
        <mxCell id="8fD-S27WqBdFzqs_7WYE-324" style="edgeStyle=none;shape=connector;rounded=0;orthogonalLoop=1;jettySize=auto;html=1;exitX=1;exitY=0.5;exitDx=0;exitDy=0;entryX=0;entryY=0.75;entryDx=0;entryDy=0;strokeColor=default;align=center;verticalAlign=middle;fontFamily=Helvetica;fontSize=11;fontColor=default;labelBackgroundColor=default;startFill=0;endArrow=none;" parent="1" source="8fD-S27WqBdFzqs_7WYE-316" target="8fD-S27WqBdFzqs_7WYE-305" edge="1">
          <mxGeometry relative="1" as="geometry" />
        </mxCell>
        <mxCell id="8fD-S27WqBdFzqs_7WYE-316" value="toplam KDV" style="ellipse;whiteSpace=wrap;html=1;fontFamily=Helvetica;fontSize=11;fontColor=default;labelBackgroundColor=default;" parent="1" vertex="1">
          <mxGeometry x="-370" y="320.5" width="70" height="40" as="geometry" />
        </mxCell>
        <mxCell id="8fD-S27WqBdFzqs_7WYE-325" style="edgeStyle=none;shape=connector;rounded=0;orthogonalLoop=1;jettySize=auto;html=1;exitX=1;exitY=0.5;exitDx=0;exitDy=0;entryX=0;entryY=0.75;entryDx=0;entryDy=0;strokeColor=default;align=center;verticalAlign=middle;fontFamily=Helvetica;fontSize=11;fontColor=default;labelBackgroundColor=default;startFill=0;endArrow=none;" parent="1" source="8fD-S27WqBdFzqs_7WYE-317" target="8fD-S27WqBdFzqs_7WYE-305" edge="1">
          <mxGeometry relative="1" as="geometry" />
        </mxCell>
        <mxCell id="8fD-S27WqBdFzqs_7WYE-317" value="genel toplam" style="ellipse;whiteSpace=wrap;html=1;fontFamily=Helvetica;fontSize=11;fontColor=default;labelBackgroundColor=default;dashed=1;" parent="1" vertex="1">
          <mxGeometry x="-269.75" y="345" width="65.75" height="40" as="geometry" />
        </mxCell>
        <mxCell id="8fD-S27WqBdFzqs_7WYE-326" style="edgeStyle=none;shape=connector;rounded=0;orthogonalLoop=1;jettySize=auto;html=1;exitX=1;exitY=0;exitDx=0;exitDy=0;entryX=0;entryY=1;entryDx=0;entryDy=0;strokeColor=default;align=center;verticalAlign=middle;fontFamily=Helvetica;fontSize=11;fontColor=default;labelBackgroundColor=default;startFill=0;endArrow=none;" parent="1" source="8fD-S27WqBdFzqs_7WYE-318" target="8fD-S27WqBdFzqs_7WYE-305" edge="1">
          <mxGeometry relative="1" as="geometry" />
        </mxCell>
        <mxCell id="8fD-S27WqBdFzqs_7WYE-318" value="ödenen&lt;div&gt;&amp;nbsp;toplam&lt;/div&gt;" style="ellipse;whiteSpace=wrap;html=1;fontFamily=Helvetica;fontSize=11;fontColor=default;labelBackgroundColor=default;" parent="1" vertex="1">
          <mxGeometry x="-187" y="355.5" width="59.5" height="45" as="geometry" />
        </mxCell>
        <mxCell id="8fD-S27WqBdFzqs_7WYE-322" style="edgeStyle=none;shape=connector;rounded=0;orthogonalLoop=1;jettySize=auto;html=1;exitX=1;exitY=1;exitDx=0;exitDy=0;entryX=0;entryY=0.25;entryDx=0;entryDy=0;strokeColor=default;align=center;verticalAlign=middle;fontFamily=Helvetica;fontSize=11;fontColor=default;labelBackgroundColor=default;startFill=0;endArrow=none;" parent="1" source="8fD-S27WqBdFzqs_7WYE-319" target="8fD-S27WqBdFzqs_7WYE-305" edge="1">
          <mxGeometry relative="1" as="geometry" />
        </mxCell>
        <mxCell id="8fD-S27WqBdFzqs_7WYE-319" value="indirim toplamı" style="ellipse;whiteSpace=wrap;html=1;fontFamily=Helvetica;fontSize=11;fontColor=default;labelBackgroundColor=default;" parent="1" vertex="1">
          <mxGeometry x="-524.75" y="-60" width="74.75" height="50" as="geometry" />
        </mxCell>
        <mxCell id="8fD-S27WqBdFzqs_7WYE-321" style="edgeStyle=none;shape=connector;rounded=0;orthogonalLoop=1;jettySize=auto;html=1;exitX=1;exitY=0.5;exitDx=0;exitDy=0;entryX=0;entryY=0;entryDx=0;entryDy=0;strokeColor=default;align=center;verticalAlign=middle;fontFamily=Helvetica;fontSize=11;fontColor=default;labelBackgroundColor=default;startFill=0;endArrow=none;" parent="1" source="8fD-S27WqBdFzqs_7WYE-320" target="8fD-S27WqBdFzqs_7WYE-305" edge="1">
          <mxGeometry relative="1" as="geometry" />
        </mxCell>
        <mxCell id="8fD-S27WqBdFzqs_7WYE-320" value="brüt toplam" style="ellipse;whiteSpace=wrap;html=1;fontFamily=Helvetica;fontSize=11;fontColor=default;labelBackgroundColor=default;" parent="1" vertex="1">
          <mxGeometry x="-488.25" y="-120" width="69.5" height="50" as="geometry" />
        </mxCell>
        <mxCell id="8fD-S27WqBdFzqs_7WYE-333" value="olur" style="rhombus;whiteSpace=wrap;html=1;fontFamily=Helvetica;fontSize=11;fontColor=default;labelBackgroundColor=default;" parent="1" vertex="1">
          <mxGeometry x="100" y="-140" width="80" height="80" as="geometry" />
        </mxCell>
        <mxCell id="8fD-S27WqBdFzqs_7WYE-338" style="edgeStyle=none;shape=connector;rounded=0;orthogonalLoop=1;jettySize=auto;html=1;exitX=0;exitY=0;exitDx=0;exitDy=0;entryX=1;entryY=0.75;entryDx=0;entryDy=0;strokeColor=default;align=center;verticalAlign=middle;fontFamily=Helvetica;fontSize=11;fontColor=default;labelBackgroundColor=default;startFill=0;endArrow=none;" parent="1" source="8fD-S27WqBdFzqs_7WYE-336" target="8fD-S27WqBdFzqs_7WYE-305" edge="1">
          <mxGeometry relative="1" as="geometry" />
        </mxCell>
        <mxCell id="YZ9Vr9Id5WJVoP7LfM_h-187" value="&lt;font style=&quot;font-size: 20px;&quot;&gt;n&lt;/font&gt;" style="edgeLabel;html=1;align=center;verticalAlign=middle;resizable=0;points=[];fontFamily=Helvetica;fontSize=11;fontColor=default;labelBackgroundColor=default;fillColor=none;gradientColor=none;" parent="8fD-S27WqBdFzqs_7WYE-338" vertex="1" connectable="0">
          <mxGeometry x="-0.1172" y="-4" relative="1" as="geometry">
            <mxPoint as="offset" />
          </mxGeometry>
        </mxCell>
        <mxCell id="8fD-S27WqBdFzqs_7WYE-336" value="alır" style="rhombus;whiteSpace=wrap;html=1;fontFamily=Helvetica;fontSize=11;fontColor=default;labelBackgroundColor=default;" parent="1" vertex="1">
          <mxGeometry x="230" y="430" width="80" height="80" as="geometry" />
        </mxCell>
        <mxCell id="8fD-S27WqBdFzqs_7WYE-339" value="açıklama" style="ellipse;whiteSpace=wrap;html=1;fontFamily=Helvetica;fontSize=11;fontColor=default;labelBackgroundColor=default;" parent="1" vertex="1">
          <mxGeometry x="212.75" y="45" width="90" height="50" as="geometry" />
        </mxCell>
        <mxCell id="8fD-S27WqBdFzqs_7WYE-341" value="faturalandırıldı mı&lt;div&gt;(evet/hayır)&lt;/div&gt;" style="ellipse;whiteSpace=wrap;html=1;fontFamily=Helvetica;fontSize=11;fontColor=default;labelBackgroundColor=default;" parent="1" vertex="1">
          <mxGeometry x="215.5" y="104.5" width="94.5" height="60" as="geometry" />
        </mxCell>
        <mxCell id="YZ9Vr9Id5WJVoP7LfM_h-57" style="edgeStyle=none;shape=connector;rounded=0;orthogonalLoop=1;jettySize=auto;html=1;exitX=0.75;exitY=0;exitDx=0;exitDy=0;entryX=0.5;entryY=1;entryDx=0;entryDy=0;strokeColor=default;align=center;verticalAlign=middle;fontFamily=Helvetica;fontSize=11;fontColor=default;labelBackgroundColor=default;startFill=0;endArrow=none;" parent="1" source="8fD-S27WqBdFzqs_7WYE-361" target="YZ9Vr9Id5WJVoP7LfM_h-56" edge="1">
          <mxGeometry relative="1" as="geometry" />
        </mxCell>
        <mxCell id="YZ9Vr9Id5WJVoP7LfM_h-115" style="edgeStyle=none;shape=connector;rounded=0;orthogonalLoop=1;jettySize=auto;html=1;exitX=1;exitY=0.5;exitDx=0;exitDy=0;entryX=0;entryY=0;entryDx=0;entryDy=0;strokeColor=default;align=center;verticalAlign=middle;fontFamily=Helvetica;fontSize=11;fontColor=default;labelBackgroundColor=default;startFill=0;endArrow=none;" parent="1" source="8fD-S27WqBdFzqs_7WYE-361" target="8fD-S27WqBdFzqs_7WYE-362" edge="1">
          <mxGeometry relative="1" as="geometry" />
        </mxCell>
        <mxCell id="O06P7-NGEBOdylAl6Ql0-120" value="&lt;font style=&quot;font-size: 20px;&quot;&gt;n&lt;/font&gt;" style="edgeLabel;html=1;align=center;verticalAlign=middle;resizable=0;points=[];fontFamily=Helvetica;fontSize=11;fontColor=default;labelBackgroundColor=default;" parent="YZ9Vr9Id5WJVoP7LfM_h-115" vertex="1" connectable="0">
          <mxGeometry x="-0.0407" y="4" relative="1" as="geometry">
            <mxPoint x="-1" as="offset" />
          </mxGeometry>
        </mxCell>
        <mxCell id="YZ9Vr9Id5WJVoP7LfM_h-190" style="edgeStyle=none;shape=connector;rounded=0;orthogonalLoop=1;jettySize=auto;html=1;exitX=1;exitY=0;exitDx=0;exitDy=0;entryX=0.5;entryY=1;entryDx=0;entryDy=0;strokeColor=default;align=center;verticalAlign=middle;fontFamily=Helvetica;fontSize=11;fontColor=default;labelBackgroundColor=default;resizable=0;startFill=0;endArrow=none;" parent="1" source="8fD-S27WqBdFzqs_7WYE-361" target="YZ9Vr9Id5WJVoP7LfM_h-58" edge="1">
          <mxGeometry relative="1" as="geometry" />
        </mxCell>
        <mxCell id="YZ9Vr9Id5WJVoP7LfM_h-193" style="edgeStyle=none;shape=connector;rounded=0;orthogonalLoop=1;jettySize=auto;html=1;exitX=1;exitY=0.25;exitDx=0;exitDy=0;entryX=0;entryY=0.5;entryDx=0;entryDy=0;strokeColor=default;align=center;verticalAlign=middle;fontFamily=Helvetica;fontSize=11;fontColor=default;labelBackgroundColor=default;resizable=0;startFill=0;endArrow=none;" parent="1" source="8fD-S27WqBdFzqs_7WYE-361" target="YZ9Vr9Id5WJVoP7LfM_h-192" edge="1">
          <mxGeometry relative="1" as="geometry" />
        </mxCell>
        <mxCell id="YZ9Vr9Id5WJVoP7LfM_h-195" value="&lt;span style=&quot;font-size: 20px;&quot;&gt;n&lt;/span&gt;" style="edgeLabel;html=1;align=center;verticalAlign=middle;resizable=0;points=[];fontFamily=Helvetica;fontSize=11;fontColor=default;labelBackgroundColor=default;fillColor=none;gradientColor=none;" parent="YZ9Vr9Id5WJVoP7LfM_h-193" vertex="1" connectable="0">
          <mxGeometry x="0.0367" y="-1" relative="1" as="geometry">
            <mxPoint as="offset" />
          </mxGeometry>
        </mxCell>
        <mxCell id="CwLL34Ni06w6Smd44Q-Q-20" style="edgeStyle=none;shape=connector;rounded=0;orthogonalLoop=1;jettySize=auto;html=1;exitX=0.75;exitY=1;exitDx=0;exitDy=0;entryX=0.5;entryY=0;entryDx=0;entryDy=0;strokeColor=default;align=center;verticalAlign=middle;fontFamily=Helvetica;fontSize=11;fontColor=default;labelBackgroundColor=default;startFill=0;endArrow=none;" parent="1" source="8fD-S27WqBdFzqs_7WYE-361" target="CwLL34Ni06w6Smd44Q-Q-19" edge="1">
          <mxGeometry relative="1" as="geometry" />
        </mxCell>
        <mxCell id="CwLL34Ni06w6Smd44Q-Q-25" value="&lt;font style=&quot;font-size: 20px;&quot;&gt;n&lt;/font&gt;" style="edgeLabel;html=1;align=center;verticalAlign=middle;resizable=0;points=[];fontFamily=Helvetica;fontSize=11;fontColor=default;labelBackgroundColor=default;" parent="CwLL34Ni06w6Smd44Q-Q-20" vertex="1" connectable="0">
          <mxGeometry x="-0.2713" y="2" relative="1" as="geometry">
            <mxPoint y="-1" as="offset" />
          </mxGeometry>
        </mxCell>
        <mxCell id="CwLL34Ni06w6Smd44Q-Q-70" style="edgeStyle=none;shape=connector;rounded=0;orthogonalLoop=1;jettySize=auto;html=1;exitX=1;exitY=0.5;exitDx=0;exitDy=0;entryX=0;entryY=0.5;entryDx=0;entryDy=0;strokeColor=default;align=center;verticalAlign=middle;fontFamily=Helvetica;fontSize=11;fontColor=default;labelBackgroundColor=default;startFill=0;endArrow=none;" parent="1" source="8fD-S27WqBdFzqs_7WYE-361" target="CwLL34Ni06w6Smd44Q-Q-69" edge="1">
          <mxGeometry relative="1" as="geometry" />
        </mxCell>
        <mxCell id="8fD-S27WqBdFzqs_7WYE-361" value="SİPARİŞ ÜRÜN" style="rounded=0;whiteSpace=wrap;html=1;fontFamily=Helvetica;fontSize=11;labelBackgroundColor=default;fillColor=#f8cecc;strokeColor=#b85450;" parent="1" vertex="1">
          <mxGeometry x="-845" y="442.5" width="120" height="60" as="geometry" />
        </mxCell>
        <mxCell id="O06P7-NGEBOdylAl6Ql0-122" style="edgeStyle=none;shape=connector;rounded=0;orthogonalLoop=1;jettySize=auto;html=1;exitX=1;exitY=0.5;exitDx=0;exitDy=0;entryX=0;entryY=0.25;entryDx=0;entryDy=0;strokeColor=default;align=center;verticalAlign=middle;fontFamily=Helvetica;fontSize=11;fontColor=default;labelBackgroundColor=default;startFill=0;endArrow=none;" parent="1" source="8fD-S27WqBdFzqs_7WYE-362" target="8fD-S27WqBdFzqs_7WYE-171" edge="1">
          <mxGeometry relative="1" as="geometry" />
        </mxCell>
        <mxCell id="O06P7-NGEBOdylAl6Ql0-123" value="&lt;font style=&quot;font-size: 20px;&quot;&gt;1&lt;/font&gt;" style="edgeLabel;html=1;align=center;verticalAlign=middle;resizable=0;points=[];fontFamily=Helvetica;fontSize=11;fontColor=default;labelBackgroundColor=default;" parent="O06P7-NGEBOdylAl6Ql0-122" vertex="1" connectable="0">
          <mxGeometry x="0.006" y="-3" relative="1" as="geometry">
            <mxPoint as="offset" />
          </mxGeometry>
        </mxCell>
        <mxCell id="8fD-S27WqBdFzqs_7WYE-362" value="içerir" style="rhombus;whiteSpace=wrap;html=1;fontFamily=Helvetica;fontSize=11;fontColor=default;labelBackgroundColor=default;" parent="1" vertex="1">
          <mxGeometry x="-552.5" y="727.5" width="80" height="80" as="geometry" />
        </mxCell>
        <mxCell id="8fD-S27WqBdFzqs_7WYE-399" style="edgeStyle=none;shape=connector;rounded=0;orthogonalLoop=1;jettySize=auto;html=1;exitX=1;exitY=0.5;exitDx=0;exitDy=0;entryX=0;entryY=0.25;entryDx=0;entryDy=0;strokeColor=default;align=center;verticalAlign=middle;fontFamily=Helvetica;fontSize=11;fontColor=default;labelBackgroundColor=default;startFill=0;endArrow=none;" parent="1" source="8fD-S27WqBdFzqs_7WYE-366" target="8fD-S27WqBdFzqs_7WYE-361" edge="1">
          <mxGeometry relative="1" as="geometry" />
        </mxCell>
        <mxCell id="8fD-S27WqBdFzqs_7WYE-366" value="miktar" style="ellipse;whiteSpace=wrap;html=1;fontFamily=Helvetica;fontSize=11;fontColor=default;labelBackgroundColor=default;" parent="1" vertex="1">
          <mxGeometry x="-1007.5" y="359" width="72.5" height="51" as="geometry" />
        </mxCell>
        <mxCell id="8fD-S27WqBdFzqs_7WYE-400" style="edgeStyle=none;shape=connector;rounded=0;orthogonalLoop=1;jettySize=auto;html=1;exitX=1;exitY=1;exitDx=0;exitDy=0;entryX=0.25;entryY=0;entryDx=0;entryDy=0;strokeColor=default;align=center;verticalAlign=middle;fontFamily=Helvetica;fontSize=11;fontColor=default;labelBackgroundColor=default;startFill=0;endArrow=none;" parent="1" source="8fD-S27WqBdFzqs_7WYE-367" target="8fD-S27WqBdFzqs_7WYE-361" edge="1">
          <mxGeometry relative="1" as="geometry" />
        </mxCell>
        <mxCell id="8fD-S27WqBdFzqs_7WYE-367" value="toplam sevk&lt;div&gt;edilen miktar&lt;/div&gt;" style="ellipse;whiteSpace=wrap;html=1;fontFamily=Helvetica;fontSize=11;fontColor=default;labelBackgroundColor=default;" parent="1" vertex="1">
          <mxGeometry x="-941" y="285.5" width="77" height="70" as="geometry" />
        </mxCell>
        <mxCell id="YZ9Vr9Id5WJVoP7LfM_h-175" style="edgeStyle=none;shape=connector;rounded=0;orthogonalLoop=1;jettySize=auto;html=1;exitX=0.5;exitY=1;exitDx=0;exitDy=0;entryX=0.5;entryY=0;entryDx=0;entryDy=0;strokeColor=default;align=center;verticalAlign=middle;fontFamily=Helvetica;fontSize=11;fontColor=default;labelBackgroundColor=default;resizable=0;startFill=0;endArrow=none;" parent="1" source="8fD-S27WqBdFzqs_7WYE-374" target="8fD-S27WqBdFzqs_7WYE-305" edge="1">
          <mxGeometry relative="1" as="geometry" />
        </mxCell>
        <mxCell id="YZ9Vr9Id5WJVoP7LfM_h-176" value="&lt;font style=&quot;font-size: 20px;&quot;&gt;n&lt;/font&gt;" style="edgeLabel;html=1;align=center;verticalAlign=middle;resizable=0;points=[];fontFamily=Helvetica;fontSize=11;fontColor=default;labelBackgroundColor=default;fillColor=none;gradientColor=none;" parent="YZ9Vr9Id5WJVoP7LfM_h-175" vertex="1" connectable="0">
          <mxGeometry x="-0.0497" y="2" relative="1" as="geometry">
            <mxPoint as="offset" />
          </mxGeometry>
        </mxCell>
        <mxCell id="CwLL34Ni06w6Smd44Q-Q-31" style="edgeStyle=none;shape=connector;rounded=0;orthogonalLoop=1;jettySize=auto;html=1;exitX=0.5;exitY=0;exitDx=0;exitDy=0;entryX=0.25;entryY=1;entryDx=0;entryDy=0;strokeColor=default;align=center;verticalAlign=middle;fontFamily=Helvetica;fontSize=11;fontColor=default;labelBackgroundColor=default;startFill=0;endArrow=none;" parent="1" source="8fD-S27WqBdFzqs_7WYE-374" target="EaoSCeDMWYsuYTVSq__j-1" edge="1">
          <mxGeometry relative="1" as="geometry" />
        </mxCell>
        <mxCell id="CwLL34Ni06w6Smd44Q-Q-32" value="&lt;font style=&quot;font-size: 20px;&quot;&gt;1&lt;/font&gt;" style="edgeLabel;html=1;align=center;verticalAlign=middle;resizable=0;points=[];fontFamily=Helvetica;fontSize=11;fontColor=default;labelBackgroundColor=default;" parent="CwLL34Ni06w6Smd44Q-Q-31" vertex="1" connectable="0">
          <mxGeometry x="0.0927" y="3" relative="1" as="geometry">
            <mxPoint y="-1" as="offset" />
          </mxGeometry>
        </mxCell>
        <mxCell id="8fD-S27WqBdFzqs_7WYE-374" value="verir" style="rhombus;whiteSpace=wrap;html=1;fontFamily=Helvetica;fontSize=11;fontColor=default;labelBackgroundColor=default;" parent="1" vertex="1">
          <mxGeometry x="-224.5" y="-340" width="80" height="80" as="geometry" />
        </mxCell>
        <mxCell id="8fD-S27WqBdFzqs_7WYE-377" value="sipariş türü" style="ellipse;whiteSpace=wrap;html=1;fontFamily=Helvetica;fontSize=11;fontColor=default;labelBackgroundColor=default;" parent="1" vertex="1">
          <mxGeometry x="-237.31" y="-76.25" width="72.5" height="52.5" as="geometry" />
        </mxCell>
        <mxCell id="YZ9Vr9Id5WJVoP7LfM_h-97" style="edgeStyle=none;shape=connector;rounded=0;orthogonalLoop=1;jettySize=auto;html=1;exitX=0;exitY=0.5;exitDx=0;exitDy=0;entryX=1;entryY=0.5;entryDx=0;entryDy=0;strokeColor=default;align=center;verticalAlign=middle;fontFamily=Helvetica;fontSize=11;fontColor=default;labelBackgroundColor=default;startFill=0;endArrow=none;" parent="1" source="8fD-S27WqBdFzqs_7WYE-378" target="8fD-S27WqBdFzqs_7WYE-374" edge="1">
          <mxGeometry relative="1" as="geometry" />
        </mxCell>
        <mxCell id="8fD-S27WqBdFzqs_7WYE-378" value="sipariş tarihi" style="ellipse;whiteSpace=wrap;html=1;fontFamily=Helvetica;fontSize=11;fontColor=default;labelBackgroundColor=default;" parent="1" vertex="1">
          <mxGeometry x="-120" y="-328.74" width="75.75" height="55" as="geometry" />
        </mxCell>
        <mxCell id="YZ9Vr9Id5WJVoP7LfM_h-98" style="edgeStyle=none;shape=connector;rounded=0;orthogonalLoop=1;jettySize=auto;html=1;exitX=1;exitY=0.5;exitDx=0;exitDy=0;entryX=0;entryY=0.5;entryDx=0;entryDy=0;strokeColor=default;align=center;verticalAlign=middle;fontFamily=Helvetica;fontSize=11;fontColor=default;labelBackgroundColor=default;startFill=0;endArrow=none;" parent="1" source="8fD-S27WqBdFzqs_7WYE-379" target="8fD-S27WqBdFzqs_7WYE-374" edge="1">
          <mxGeometry relative="1" as="geometry" />
        </mxCell>
        <mxCell id="8fD-S27WqBdFzqs_7WYE-379" value="sipariş&amp;nbsp;&lt;div&gt;numarası&lt;/div&gt;" style="ellipse;whiteSpace=wrap;html=1;fontFamily=Helvetica;fontSize=11;fontColor=default;labelBackgroundColor=default;" parent="1" vertex="1">
          <mxGeometry x="-362.75" y="-334.37" width="76.75" height="47.5" as="geometry" />
        </mxCell>
        <mxCell id="8fD-S27WqBdFzqs_7WYE-398" style="edgeStyle=none;shape=connector;rounded=0;orthogonalLoop=1;jettySize=auto;html=1;exitX=1;exitY=0.5;exitDx=0;exitDy=0;entryX=0;entryY=0.5;entryDx=0;entryDy=0;strokeColor=default;align=center;verticalAlign=middle;fontFamily=Helvetica;fontSize=11;fontColor=default;labelBackgroundColor=default;startFill=0;endArrow=none;" parent="1" source="8fD-S27WqBdFzqs_7WYE-389" target="8fD-S27WqBdFzqs_7WYE-361" edge="1">
          <mxGeometry relative="1" as="geometry" />
        </mxCell>
        <mxCell id="8fD-S27WqBdFzqs_7WYE-389" value="brüt tutar" style="ellipse;whiteSpace=wrap;html=1;fontFamily=Helvetica;fontSize=11;fontColor=default;labelBackgroundColor=default;dashed=1;" parent="1" vertex="1">
          <mxGeometry x="-1057" y="420" width="69.5" height="50" as="geometry" />
        </mxCell>
        <mxCell id="8fD-S27WqBdFzqs_7WYE-394" style="edgeStyle=none;shape=connector;rounded=0;orthogonalLoop=1;jettySize=auto;html=1;exitX=1;exitY=0;exitDx=0;exitDy=0;entryX=0;entryY=1;entryDx=0;entryDy=0;strokeColor=default;align=center;verticalAlign=middle;fontFamily=Helvetica;fontSize=11;fontColor=default;labelBackgroundColor=default;startFill=0;endArrow=none;" parent="1" source="8fD-S27WqBdFzqs_7WYE-390" target="8fD-S27WqBdFzqs_7WYE-361" edge="1">
          <mxGeometry relative="1" as="geometry" />
        </mxCell>
        <mxCell id="8fD-S27WqBdFzqs_7WYE-390" value="indirim tutarı" style="ellipse;whiteSpace=wrap;html=1;fontFamily=Helvetica;fontSize=11;fontColor=default;labelBackgroundColor=default;" parent="1" vertex="1">
          <mxGeometry x="-990" y="612.5" width="74.75" height="50" as="geometry" />
        </mxCell>
        <mxCell id="8fD-S27WqBdFzqs_7WYE-393" style="edgeStyle=none;shape=connector;rounded=0;orthogonalLoop=1;jettySize=auto;html=1;exitX=0.5;exitY=0;exitDx=0;exitDy=0;entryX=0.25;entryY=1;entryDx=0;entryDy=0;strokeColor=default;align=center;verticalAlign=middle;fontFamily=Helvetica;fontSize=11;fontColor=default;labelBackgroundColor=default;startFill=0;endArrow=none;" parent="1" source="8fD-S27WqBdFzqs_7WYE-391" target="8fD-S27WqBdFzqs_7WYE-361" edge="1">
          <mxGeometry relative="1" as="geometry" />
        </mxCell>
        <mxCell id="8fD-S27WqBdFzqs_7WYE-391" value="net tutar" style="ellipse;whiteSpace=wrap;html=1;fontFamily=Helvetica;fontSize=11;fontColor=default;labelBackgroundColor=default;dashed=1;" parent="1" vertex="1">
          <mxGeometry x="-900.0699999999999" y="628.75" width="69" height="45" as="geometry" />
        </mxCell>
        <mxCell id="8fD-S27WqBdFzqs_7WYE-396" style="edgeStyle=none;shape=connector;rounded=0;orthogonalLoop=1;jettySize=auto;html=1;exitX=1;exitY=0.5;exitDx=0;exitDy=0;entryX=0;entryY=0.75;entryDx=0;entryDy=0;strokeColor=default;align=center;verticalAlign=middle;fontFamily=Helvetica;fontSize=11;fontColor=default;labelBackgroundColor=default;startFill=0;endArrow=none;" parent="1" source="8fD-S27WqBdFzqs_7WYE-392" target="8fD-S27WqBdFzqs_7WYE-361" edge="1">
          <mxGeometry relative="1" as="geometry" />
        </mxCell>
        <mxCell id="8fD-S27WqBdFzqs_7WYE-392" value="KDV tutarı" style="ellipse;whiteSpace=wrap;html=1;fontFamily=Helvetica;fontSize=11;fontColor=default;labelBackgroundColor=default;" parent="1" vertex="1">
          <mxGeometry x="-1060" y="577.5" width="70" height="40" as="geometry" />
        </mxCell>
        <mxCell id="YZ9Vr9Id5WJVoP7LfM_h-43" style="edgeStyle=none;shape=connector;rounded=0;orthogonalLoop=1;jettySize=auto;html=1;exitX=1;exitY=0;exitDx=0;exitDy=0;entryX=0;entryY=1;entryDx=0;entryDy=0;strokeColor=default;align=center;verticalAlign=middle;fontFamily=Helvetica;fontSize=11;fontColor=default;labelBackgroundColor=default;startFill=0;endArrow=none;" parent="1" source="8fD-S27WqBdFzqs_7WYE-404" target="8fD-S27WqBdFzqs_7WYE-426" edge="1">
          <mxGeometry relative="1" as="geometry" />
        </mxCell>
        <mxCell id="YZ9Vr9Id5WJVoP7LfM_h-61" style="edgeStyle=none;shape=connector;rounded=0;orthogonalLoop=1;jettySize=auto;html=1;exitX=1;exitY=0.25;exitDx=0;exitDy=0;entryX=0;entryY=0.5;entryDx=0;entryDy=0;strokeColor=default;align=center;verticalAlign=middle;fontFamily=Helvetica;fontSize=11;fontColor=default;labelBackgroundColor=default;startFill=0;endArrow=none;" parent="1" source="8fD-S27WqBdFzqs_7WYE-404" target="8fD-S27WqBdFzqs_7WYE-410" edge="1">
          <mxGeometry relative="1" as="geometry" />
        </mxCell>
        <mxCell id="YZ9Vr9Id5WJVoP7LfM_h-62" style="edgeStyle=none;shape=connector;rounded=0;orthogonalLoop=1;jettySize=auto;html=1;exitX=1;exitY=0.5;exitDx=0;exitDy=0;entryX=0;entryY=0.5;entryDx=0;entryDy=0;strokeColor=default;align=center;verticalAlign=middle;fontFamily=Helvetica;fontSize=11;fontColor=default;labelBackgroundColor=default;startFill=0;endArrow=none;" parent="1" source="8fD-S27WqBdFzqs_7WYE-404" target="8fD-S27WqBdFzqs_7WYE-408" edge="1">
          <mxGeometry relative="1" as="geometry" />
        </mxCell>
        <mxCell id="YZ9Vr9Id5WJVoP7LfM_h-64" style="edgeStyle=none;shape=connector;rounded=0;orthogonalLoop=1;jettySize=auto;html=1;exitX=1;exitY=0.75;exitDx=0;exitDy=0;entryX=0;entryY=0.5;entryDx=0;entryDy=0;strokeColor=default;align=center;verticalAlign=middle;fontFamily=Helvetica;fontSize=11;fontColor=default;labelBackgroundColor=default;startFill=0;endArrow=none;" parent="1" source="8fD-S27WqBdFzqs_7WYE-404" target="8fD-S27WqBdFzqs_7WYE-409" edge="1">
          <mxGeometry relative="1" as="geometry" />
        </mxCell>
        <mxCell id="YZ9Vr9Id5WJVoP7LfM_h-74" style="edgeStyle=none;shape=connector;rounded=0;orthogonalLoop=1;jettySize=auto;html=1;exitX=0.25;exitY=1;exitDx=0;exitDy=0;entryX=0.5;entryY=0;entryDx=0;entryDy=0;strokeColor=default;align=center;verticalAlign=middle;fontFamily=Helvetica;fontSize=11;fontColor=default;labelBackgroundColor=default;startFill=0;endArrow=none;" parent="1" source="8fD-S27WqBdFzqs_7WYE-404" target="YZ9Vr9Id5WJVoP7LfM_h-71" edge="1">
          <mxGeometry relative="1" as="geometry" />
        </mxCell>
        <mxCell id="O06P7-NGEBOdylAl6Ql0-124" value="&lt;font style=&quot;font-size: 20px;&quot;&gt;n&lt;/font&gt;" style="edgeLabel;html=1;align=center;verticalAlign=middle;resizable=0;points=[];fontFamily=Helvetica;fontSize=11;fontColor=default;labelBackgroundColor=default;" parent="YZ9Vr9Id5WJVoP7LfM_h-74" vertex="1" connectable="0">
          <mxGeometry x="0.003" y="5" relative="1" as="geometry">
            <mxPoint y="1" as="offset" />
          </mxGeometry>
        </mxCell>
        <mxCell id="YZ9Vr9Id5WJVoP7LfM_h-201" style="edgeStyle=none;shape=connector;rounded=0;orthogonalLoop=1;jettySize=auto;html=1;exitX=1;exitY=1;exitDx=0;exitDy=0;entryX=0;entryY=0.5;entryDx=0;entryDy=0;strokeColor=default;align=center;verticalAlign=middle;fontFamily=Helvetica;fontSize=11;fontColor=default;labelBackgroundColor=default;resizable=0;startFill=0;endArrow=none;" parent="1" source="8fD-S27WqBdFzqs_7WYE-404" target="YZ9Vr9Id5WJVoP7LfM_h-200" edge="1">
          <mxGeometry relative="1" as="geometry" />
        </mxCell>
        <mxCell id="YZ9Vr9Id5WJVoP7LfM_h-203" value="&lt;font style=&quot;font-size: 20px;&quot;&gt;1&lt;/font&gt;" style="edgeLabel;html=1;align=center;verticalAlign=middle;resizable=0;points=[];fontFamily=Helvetica;fontSize=11;fontColor=default;labelBackgroundColor=default;fillColor=none;gradientColor=none;" parent="YZ9Vr9Id5WJVoP7LfM_h-201" vertex="1" connectable="0">
          <mxGeometry x="-0.0721" relative="1" as="geometry">
            <mxPoint as="offset" />
          </mxGeometry>
        </mxCell>
        <mxCell id="YZ9Vr9Id5WJVoP7LfM_h-210" style="edgeStyle=none;shape=connector;rounded=0;orthogonalLoop=1;jettySize=auto;html=1;exitX=1;exitY=1;exitDx=0;exitDy=0;entryX=0;entryY=0.5;entryDx=0;entryDy=0;strokeColor=default;align=center;verticalAlign=middle;fontFamily=Helvetica;fontSize=11;fontColor=default;labelBackgroundColor=default;resizable=0;startFill=0;endArrow=none;" parent="1" source="8fD-S27WqBdFzqs_7WYE-404" target="8fD-S27WqBdFzqs_7WYE-424" edge="1">
          <mxGeometry relative="1" as="geometry" />
        </mxCell>
        <mxCell id="8fD-S27WqBdFzqs_7WYE-404" value="İRSALİYE FİŞİ" style="rounded=0;whiteSpace=wrap;html=1;fontFamily=Helvetica;fontSize=11;labelBackgroundColor=default;fillColor=#f8cecc;strokeColor=#b85450;" parent="1" vertex="1">
          <mxGeometry x="-1162" y="140" width="120" height="60" as="geometry" />
        </mxCell>
        <mxCell id="8fD-S27WqBdFzqs_7WYE-408" value="irsaliye tarihi&amp;nbsp;&lt;div&gt;ve saati&lt;/div&gt;" style="ellipse;whiteSpace=wrap;html=1;fontFamily=Helvetica;fontSize=11;fontColor=default;labelBackgroundColor=default;" parent="1" vertex="1">
          <mxGeometry x="-918.07" y="-170" width="87" height="60" as="geometry" />
        </mxCell>
        <mxCell id="8fD-S27WqBdFzqs_7WYE-409" value="sevk tarihi&lt;div&gt;ve saati&lt;/div&gt;" style="ellipse;whiteSpace=wrap;html=1;fontFamily=Helvetica;fontSize=11;fontColor=default;labelBackgroundColor=default;" parent="1" vertex="1">
          <mxGeometry x="-831.07" y="-120" width="77" height="60" as="geometry" />
        </mxCell>
        <mxCell id="8fD-S27WqBdFzqs_7WYE-410" value="teslimat tarihi&amp;nbsp;&lt;div&gt;ve saati&lt;/div&gt;" style="ellipse;whiteSpace=wrap;html=1;fontFamily=Helvetica;fontSize=11;fontColor=default;labelBackgroundColor=default;" parent="1" vertex="1">
          <mxGeometry x="-1028" y="-196" width="87" height="66" as="geometry" />
        </mxCell>
        <mxCell id="8fD-S27WqBdFzqs_7WYE-415" style="edgeStyle=none;shape=connector;rounded=0;orthogonalLoop=1;jettySize=auto;html=1;exitX=1;exitY=1;exitDx=0;exitDy=0;entryX=0;entryY=0;entryDx=0;entryDy=0;strokeColor=default;align=center;verticalAlign=middle;fontFamily=Helvetica;fontSize=11;fontColor=default;labelBackgroundColor=default;startFill=0;endArrow=none;" parent="1" source="8fD-S27WqBdFzqs_7WYE-414" target="8fD-S27WqBdFzqs_7WYE-404" edge="1">
          <mxGeometry relative="1" as="geometry" />
        </mxCell>
        <mxCell id="YZ9Vr9Id5WJVoP7LfM_h-212" value="&lt;font style=&quot;font-size: 20px;&quot;&gt;n&lt;/font&gt;" style="edgeLabel;html=1;align=center;verticalAlign=middle;resizable=0;points=[];fontFamily=Helvetica;fontSize=11;fontColor=default;labelBackgroundColor=default;fillColor=none;gradientColor=none;" parent="8fD-S27WqBdFzqs_7WYE-415" vertex="1" connectable="0">
          <mxGeometry x="-0.0819" relative="1" as="geometry">
            <mxPoint as="offset" />
          </mxGeometry>
        </mxCell>
        <mxCell id="8fD-S27WqBdFzqs_7WYE-414" value="olur" style="rhombus;whiteSpace=wrap;html=1;fontFamily=Helvetica;fontSize=11;fontColor=default;labelBackgroundColor=default;" parent="1" vertex="1">
          <mxGeometry x="-1427" y="-70" width="80" height="80" as="geometry" />
        </mxCell>
        <mxCell id="8fD-S27WqBdFzqs_7WYE-421" style="edgeStyle=none;shape=connector;rounded=0;orthogonalLoop=1;jettySize=auto;html=1;exitX=0.25;exitY=0;exitDx=0;exitDy=0;entryX=0.5;entryY=1;entryDx=0;entryDy=0;strokeColor=default;align=center;verticalAlign=middle;fontFamily=Helvetica;fontSize=11;fontColor=default;labelBackgroundColor=default;startFill=0;endArrow=none;" parent="1" source="8fD-S27WqBdFzqs_7WYE-417" target="8fD-S27WqBdFzqs_7WYE-419" edge="1">
          <mxGeometry relative="1" as="geometry" />
        </mxCell>
        <mxCell id="YZ9Vr9Id5WJVoP7LfM_h-66" style="edgeStyle=none;shape=connector;rounded=0;orthogonalLoop=1;jettySize=auto;html=1;exitX=0.75;exitY=0;exitDx=0;exitDy=0;entryX=0.5;entryY=1;entryDx=0;entryDy=0;strokeColor=default;align=center;verticalAlign=middle;fontFamily=Helvetica;fontSize=11;fontColor=default;labelBackgroundColor=default;startFill=0;endArrow=none;" parent="1" source="8fD-S27WqBdFzqs_7WYE-417" target="YZ9Vr9Id5WJVoP7LfM_h-65" edge="1">
          <mxGeometry relative="1" as="geometry" />
        </mxCell>
        <mxCell id="YZ9Vr9Id5WJVoP7LfM_h-100" style="edgeStyle=none;shape=connector;rounded=0;orthogonalLoop=1;jettySize=auto;html=1;exitX=0.5;exitY=1;exitDx=0;exitDy=0;entryX=0;entryY=0;entryDx=0;entryDy=0;strokeColor=default;align=center;verticalAlign=middle;fontFamily=Helvetica;fontSize=11;fontColor=default;labelBackgroundColor=default;startFill=0;endArrow=none;" parent="1" source="8fD-S27WqBdFzqs_7WYE-417" target="8fD-S27WqBdFzqs_7WYE-414" edge="1">
          <mxGeometry relative="1" as="geometry" />
        </mxCell>
        <mxCell id="YZ9Vr9Id5WJVoP7LfM_h-211" value="&lt;font style=&quot;font-size: 20px;&quot;&gt;1&lt;/font&gt;" style="edgeLabel;html=1;align=center;verticalAlign=middle;resizable=0;points=[];fontFamily=Helvetica;fontSize=11;fontColor=default;labelBackgroundColor=default;fillColor=none;gradientColor=none;" parent="YZ9Vr9Id5WJVoP7LfM_h-100" vertex="1" connectable="0">
          <mxGeometry x="-0.1029" y="1" relative="1" as="geometry">
            <mxPoint as="offset" />
          </mxGeometry>
        </mxCell>
        <mxCell id="8fD-S27WqBdFzqs_7WYE-417" value="Kargo Firması" style="rounded=0;whiteSpace=wrap;html=1;fontFamily=Helvetica;fontSize=11;labelBackgroundColor=default;fillColor=#f8cecc;strokeColor=#b85450;" parent="1" vertex="1">
          <mxGeometry x="-1530" y="-218.75" width="120" height="60" as="geometry" />
        </mxCell>
        <mxCell id="8fD-S27WqBdFzqs_7WYE-419" value="Kargo Firması&lt;div&gt;Adı&lt;/div&gt;" style="ellipse;whiteSpace=wrap;html=1;fontFamily=Helvetica;fontSize=11;fontColor=default;labelBackgroundColor=default;" parent="1" vertex="1">
          <mxGeometry x="-1540" y="-340" width="100" height="68.75" as="geometry" />
        </mxCell>
        <mxCell id="8fD-S27WqBdFzqs_7WYE-428" style="edgeStyle=none;shape=connector;rounded=0;orthogonalLoop=1;jettySize=auto;html=1;exitX=1;exitY=0.5;exitDx=0;exitDy=0;entryX=0;entryY=0.5;entryDx=0;entryDy=0;strokeColor=default;align=center;verticalAlign=middle;fontFamily=Helvetica;fontSize=11;fontColor=default;labelBackgroundColor=default;startFill=0;endArrow=none;" parent="1" source="8fD-S27WqBdFzqs_7WYE-423" target="8fD-S27WqBdFzqs_7WYE-404" edge="1">
          <mxGeometry relative="1" as="geometry" />
        </mxCell>
        <mxCell id="8fD-S27WqBdFzqs_7WYE-423" value="açıklama" style="ellipse;whiteSpace=wrap;html=1;fontFamily=Helvetica;fontSize=11;fontColor=default;labelBackgroundColor=default;" parent="1" vertex="1">
          <mxGeometry x="-1347" y="179" width="90" height="60" as="geometry" />
        </mxCell>
        <mxCell id="8fD-S27WqBdFzqs_7WYE-424" value="net tutar" style="ellipse;whiteSpace=wrap;html=1;fontFamily=Helvetica;fontSize=11;fontColor=default;labelBackgroundColor=default;" parent="1" vertex="1">
          <mxGeometry x="-826" y="-37" width="90" height="60" as="geometry" />
        </mxCell>
        <mxCell id="8fD-S27WqBdFzqs_7WYE-429" style="edgeStyle=none;shape=connector;rounded=0;orthogonalLoop=1;jettySize=auto;html=1;exitX=0.5;exitY=1;exitDx=0;exitDy=0;entryX=0.25;entryY=0;entryDx=0;entryDy=0;strokeColor=default;align=center;verticalAlign=middle;fontFamily=Helvetica;fontSize=11;fontColor=default;labelBackgroundColor=default;startFill=0;endArrow=none;" parent="1" source="8fD-S27WqBdFzqs_7WYE-425" target="8fD-S27WqBdFzqs_7WYE-404" edge="1">
          <mxGeometry relative="1" as="geometry" />
        </mxCell>
        <mxCell id="8fD-S27WqBdFzqs_7WYE-425" value="fiş numarası" style="ellipse;whiteSpace=wrap;html=1;fontFamily=Helvetica;fontSize=11;fontColor=default;labelBackgroundColor=default;" parent="1" vertex="1">
          <mxGeometry x="-1337" y="-100" width="100" height="60" as="geometry" />
        </mxCell>
        <mxCell id="8fD-S27WqBdFzqs_7WYE-426" value="teslim alan&lt;div&gt;adı&lt;/div&gt;" style="ellipse;whiteSpace=wrap;html=1;fontFamily=Helvetica;fontSize=11;fontColor=default;labelBackgroundColor=default;" parent="1" vertex="1">
          <mxGeometry x="-1142" y="-200" width="100" height="60" as="geometry" />
        </mxCell>
        <mxCell id="8fD-S27WqBdFzqs_7WYE-430" style="edgeStyle=none;shape=connector;rounded=0;orthogonalLoop=1;jettySize=auto;html=1;exitX=0.5;exitY=1;exitDx=0;exitDy=0;entryX=0.5;entryY=0;entryDx=0;entryDy=0;strokeColor=default;align=center;verticalAlign=middle;fontFamily=Helvetica;fontSize=11;fontColor=default;labelBackgroundColor=default;startFill=0;endArrow=none;" parent="1" source="8fD-S27WqBdFzqs_7WYE-427" target="8fD-S27WqBdFzqs_7WYE-404" edge="1">
          <mxGeometry relative="1" as="geometry" />
        </mxCell>
        <mxCell id="8fD-S27WqBdFzqs_7WYE-427" value="teslim alan soyadı" style="ellipse;whiteSpace=wrap;html=1;fontFamily=Helvetica;fontSize=11;fontColor=default;labelBackgroundColor=default;" parent="1" vertex="1">
          <mxGeometry x="-1257" y="-180" width="100" height="65" as="geometry" />
        </mxCell>
        <mxCell id="YZ9Vr9Id5WJVoP7LfM_h-75" style="edgeStyle=none;shape=connector;rounded=0;orthogonalLoop=1;jettySize=auto;html=1;exitX=1;exitY=0.5;exitDx=0;exitDy=0;entryX=0;entryY=0.5;entryDx=0;entryDy=0;strokeColor=default;align=center;verticalAlign=middle;fontFamily=Helvetica;fontSize=11;fontColor=default;labelBackgroundColor=default;startFill=0;endArrow=none;" parent="1" source="8fD-S27WqBdFzqs_7WYE-443" target="YZ9Vr9Id5WJVoP7LfM_h-71" edge="1">
          <mxGeometry relative="1" as="geometry" />
        </mxCell>
        <mxCell id="8fD-S27WqBdFzqs_7WYE-443" value="miktar" style="ellipse;whiteSpace=wrap;html=1;fontFamily=Helvetica;fontSize=11;fontColor=default;labelBackgroundColor=default;" parent="1" vertex="1">
          <mxGeometry x="-1369.5" y="566.25" width="85" height="62.5" as="geometry" />
        </mxCell>
        <mxCell id="8fD-S27WqBdFzqs_7WYE-457" style="edgeStyle=none;shape=connector;rounded=0;orthogonalLoop=1;jettySize=auto;html=1;exitX=1;exitY=0.5;exitDx=0;exitDy=0;entryX=0;entryY=0.5;entryDx=0;entryDy=0;strokeColor=default;align=center;verticalAlign=middle;fontFamily=Helvetica;fontSize=11;fontColor=default;labelBackgroundColor=default;startFill=0;endArrow=none;" parent="1" source="8fD-S27WqBdFzqs_7WYE-445" target="8fD-S27WqBdFzqs_7WYE-455" edge="1">
          <mxGeometry relative="1" as="geometry" />
        </mxCell>
        <mxCell id="O06P7-NGEBOdylAl6Ql0-132" value="&lt;font style=&quot;font-size: 20px;&quot;&gt;n&lt;/font&gt;" style="edgeLabel;html=1;align=center;verticalAlign=middle;resizable=0;points=[];fontFamily=Helvetica;fontSize=11;fontColor=default;labelBackgroundColor=default;" parent="8fD-S27WqBdFzqs_7WYE-457" vertex="1" connectable="0">
          <mxGeometry x="-0.0477" relative="1" as="geometry">
            <mxPoint x="-1" as="offset" />
          </mxGeometry>
        </mxCell>
        <mxCell id="YZ9Vr9Id5WJVoP7LfM_h-102" style="edgeStyle=none;shape=connector;rounded=0;orthogonalLoop=1;jettySize=auto;html=1;exitX=0.5;exitY=0;exitDx=0;exitDy=0;entryX=0.5;entryY=1;entryDx=0;entryDy=0;strokeColor=default;align=center;verticalAlign=middle;fontFamily=Helvetica;fontSize=11;fontColor=default;labelBackgroundColor=default;startFill=0;endArrow=none;" parent="1" source="8fD-S27WqBdFzqs_7WYE-445" target="8fD-S27WqBdFzqs_7WYE-452" edge="1">
          <mxGeometry relative="1" as="geometry" />
        </mxCell>
        <mxCell id="YZ9Vr9Id5WJVoP7LfM_h-103" style="edgeStyle=none;shape=connector;rounded=0;orthogonalLoop=1;jettySize=auto;html=1;exitX=0.5;exitY=1;exitDx=0;exitDy=0;entryX=0.5;entryY=0;entryDx=0;entryDy=0;strokeColor=default;align=center;verticalAlign=middle;fontFamily=Helvetica;fontSize=11;fontColor=default;labelBackgroundColor=default;startFill=0;endArrow=none;" parent="1" source="8fD-S27WqBdFzqs_7WYE-445" target="8fD-S27WqBdFzqs_7WYE-451" edge="1">
          <mxGeometry relative="1" as="geometry" />
        </mxCell>
        <mxCell id="8fD-S27WqBdFzqs_7WYE-445" value="TAHSİLAT" style="rounded=0;whiteSpace=wrap;html=1;fontFamily=Helvetica;fontSize=11;labelBackgroundColor=default;fillColor=#f8cecc;strokeColor=#b85450;" parent="1" vertex="1">
          <mxGeometry x="850" y="141" width="120" height="60" as="geometry" />
        </mxCell>
        <mxCell id="8fD-S27WqBdFzqs_7WYE-450" style="edgeStyle=none;shape=connector;rounded=0;orthogonalLoop=1;jettySize=auto;html=1;exitX=0.5;exitY=0;exitDx=0;exitDy=0;entryX=0.5;entryY=1;entryDx=0;entryDy=0;strokeColor=default;align=center;verticalAlign=middle;fontFamily=Helvetica;fontSize=11;fontColor=default;labelBackgroundColor=default;startFill=0;endArrow=none;" parent="1" source="8fD-S27WqBdFzqs_7WYE-446" target="8fD-S27WqBdFzqs_7WYE-449" edge="1">
          <mxGeometry relative="1" as="geometry" />
        </mxCell>
        <mxCell id="CwLL34Ni06w6Smd44Q-Q-23" style="edgeStyle=none;shape=connector;rounded=0;orthogonalLoop=1;jettySize=auto;html=1;exitX=1;exitY=0.5;exitDx=0;exitDy=0;entryX=0;entryY=0.5;entryDx=0;entryDy=0;strokeColor=default;align=center;verticalAlign=middle;fontFamily=Helvetica;fontSize=11;fontColor=default;labelBackgroundColor=default;startFill=0;endArrow=none;" parent="1" source="8fD-S27WqBdFzqs_7WYE-446" target="8fD-S27WqBdFzqs_7WYE-445" edge="1">
          <mxGeometry relative="1" as="geometry" />
        </mxCell>
        <mxCell id="CwLL34Ni06w6Smd44Q-Q-24" value="&lt;font style=&quot;font-size: 20px;&quot;&gt;n&lt;/font&gt;" style="edgeLabel;html=1;align=center;verticalAlign=middle;resizable=0;points=[];fontFamily=Helvetica;fontSize=11;fontColor=default;labelBackgroundColor=default;" parent="CwLL34Ni06w6Smd44Q-Q-23" vertex="1" connectable="0">
          <mxGeometry x="-0.0235" relative="1" as="geometry">
            <mxPoint as="offset" />
          </mxGeometry>
        </mxCell>
        <mxCell id="8fD-S27WqBdFzqs_7WYE-446" value="olur" style="rhombus;whiteSpace=wrap;html=1;fontFamily=Helvetica;fontSize=11;fontColor=default;labelBackgroundColor=default;" parent="1" vertex="1">
          <mxGeometry x="448" y="285.5" width="80" height="80" as="geometry" />
        </mxCell>
        <mxCell id="8fD-S27WqBdFzqs_7WYE-449" value="tahsilat tarihi" style="ellipse;whiteSpace=wrap;html=1;fontFamily=Helvetica;fontSize=11;fontColor=default;labelBackgroundColor=default;" parent="1" vertex="1">
          <mxGeometry x="423" y="171.5" width="83" height="65" as="geometry" />
        </mxCell>
        <mxCell id="8fD-S27WqBdFzqs_7WYE-451" value="tahsilat&amp;nbsp;&lt;div&gt;numarası&lt;/div&gt;" style="ellipse;whiteSpace=wrap;html=1;fontFamily=Helvetica;fontSize=11;fontColor=default;labelBackgroundColor=default;" parent="1" vertex="1">
          <mxGeometry x="886" y="259.5" width="99" height="70" as="geometry" />
        </mxCell>
        <mxCell id="8fD-S27WqBdFzqs_7WYE-452" value="tutar" style="ellipse;whiteSpace=wrap;html=1;fontFamily=Helvetica;fontSize=11;fontColor=default;labelBackgroundColor=default;" parent="1" vertex="1">
          <mxGeometry x="893" y="23" width="87" height="60" as="geometry" />
        </mxCell>
        <mxCell id="8fD-S27WqBdFzqs_7WYE-458" style="edgeStyle=none;shape=connector;rounded=0;orthogonalLoop=1;jettySize=auto;html=1;exitX=1;exitY=0.5;exitDx=0;exitDy=0;entryX=0;entryY=0.5;entryDx=0;entryDy=0;strokeColor=default;align=center;verticalAlign=middle;fontFamily=Helvetica;fontSize=11;fontColor=default;labelBackgroundColor=default;startFill=0;endArrow=none;" parent="1" source="8fD-S27WqBdFzqs_7WYE-455" target="8fD-S27WqBdFzqs_7WYE-456" edge="1">
          <mxGeometry relative="1" as="geometry" />
        </mxCell>
        <mxCell id="O06P7-NGEBOdylAl6Ql0-131" value="&lt;font style=&quot;font-size: 20px;&quot;&gt;1&lt;/font&gt;" style="edgeLabel;html=1;align=center;verticalAlign=middle;resizable=0;points=[];fontFamily=Helvetica;fontSize=11;fontColor=default;labelBackgroundColor=default;" parent="8fD-S27WqBdFzqs_7WYE-458" vertex="1" connectable="0">
          <mxGeometry x="-0.0152" relative="1" as="geometry">
            <mxPoint as="offset" />
          </mxGeometry>
        </mxCell>
        <mxCell id="8fD-S27WqBdFzqs_7WYE-455" value="olur" style="rhombus;whiteSpace=wrap;html=1;fontFamily=Helvetica;fontSize=11;fontColor=default;labelBackgroundColor=default;" parent="1" vertex="1">
          <mxGeometry x="1084.5" y="141" width="80" height="80" as="geometry" />
        </mxCell>
        <mxCell id="8fD-S27WqBdFzqs_7WYE-461" style="edgeStyle=none;shape=connector;rounded=0;orthogonalLoop=1;jettySize=auto;html=1;exitX=0.25;exitY=0;exitDx=0;exitDy=0;entryX=0.5;entryY=1;entryDx=0;entryDy=0;strokeColor=default;align=center;verticalAlign=middle;fontFamily=Helvetica;fontSize=11;fontColor=default;labelBackgroundColor=default;startFill=0;endArrow=none;" parent="1" source="8fD-S27WqBdFzqs_7WYE-456" target="8fD-S27WqBdFzqs_7WYE-460" edge="1">
          <mxGeometry relative="1" as="geometry" />
        </mxCell>
        <mxCell id="8fD-S27WqBdFzqs_7WYE-462" style="edgeStyle=none;shape=connector;rounded=0;orthogonalLoop=1;jettySize=auto;html=1;exitX=1;exitY=0;exitDx=0;exitDy=0;entryX=0.5;entryY=1;entryDx=0;entryDy=0;strokeColor=default;align=center;verticalAlign=middle;fontFamily=Helvetica;fontSize=11;fontColor=default;labelBackgroundColor=default;startFill=0;endArrow=none;" parent="1" source="8fD-S27WqBdFzqs_7WYE-456" target="8fD-S27WqBdFzqs_7WYE-459" edge="1">
          <mxGeometry relative="1" as="geometry" />
        </mxCell>
        <mxCell id="8fD-S27WqBdFzqs_7WYE-456" value="tahsilat türü" style="rounded=0;whiteSpace=wrap;html=1;fontFamily=Helvetica;fontSize=11;labelBackgroundColor=default;fillColor=#f8cecc;strokeColor=#b85450;" parent="1" vertex="1">
          <mxGeometry x="1264.5" y="152" width="120" height="60" as="geometry" />
        </mxCell>
        <mxCell id="8fD-S27WqBdFzqs_7WYE-459" value="açıklama" style="ellipse;whiteSpace=wrap;html=1;fontFamily=Helvetica;fontSize=11;fontColor=default;labelBackgroundColor=default;" parent="1" vertex="1">
          <mxGeometry x="1394.5" y="52" width="100" height="70" as="geometry" />
        </mxCell>
        <mxCell id="8fD-S27WqBdFzqs_7WYE-460" value="tahsilat türü&amp;nbsp;&lt;div&gt;ID&lt;/div&gt;" style="ellipse;whiteSpace=wrap;html=1;fontFamily=Helvetica;fontSize=11;fontColor=default;labelBackgroundColor=default;" parent="1" vertex="1">
          <mxGeometry x="1255.5" y="42" width="102" height="70" as="geometry" />
        </mxCell>
        <mxCell id="YZ9Vr9Id5WJVoP7LfM_h-1" style="edgeStyle=none;shape=connector;rounded=0;orthogonalLoop=1;jettySize=auto;html=1;exitX=0.5;exitY=0;exitDx=0;exitDy=0;entryX=0.339;entryY=0.954;entryDx=0;entryDy=0;entryPerimeter=0;strokeColor=default;align=center;verticalAlign=middle;fontFamily=Helvetica;fontSize=11;fontColor=default;labelBackgroundColor=default;startFill=0;endArrow=none;" parent="1" source="EaoSCeDMWYsuYTVSq__j-1" target="8fD-S27WqBdFzqs_7WYE-13" edge="1">
          <mxGeometry relative="1" as="geometry" />
        </mxCell>
        <mxCell id="YZ9Vr9Id5WJVoP7LfM_h-3" value="Satıcı&lt;div&gt;Ziyaret Günü&lt;/div&gt;" style="ellipse;whiteSpace=wrap;html=1;fontFamily=Helvetica;fontSize=11;fontColor=default;labelBackgroundColor=default;" parent="1" vertex="1">
          <mxGeometry x="579.03" y="-1230" width="100" height="60" as="geometry" />
        </mxCell>
        <mxCell id="YZ9Vr9Id5WJVoP7LfM_h-13" style="edgeStyle=none;shape=connector;rounded=0;orthogonalLoop=1;jettySize=auto;html=1;exitX=1;exitY=0.75;exitDx=0;exitDy=0;entryX=0.048;entryY=0.319;entryDx=0;entryDy=0;entryPerimeter=0;strokeColor=default;align=center;verticalAlign=middle;fontFamily=Helvetica;fontSize=11;fontColor=default;labelBackgroundColor=default;startFill=0;endArrow=none;" parent="1" source="EaoSCeDMWYsuYTVSq__j-1" target="8fD-S27WqBdFzqs_7WYE-27" edge="1">
          <mxGeometry relative="1" as="geometry" />
        </mxCell>
        <mxCell id="YZ9Vr9Id5WJVoP7LfM_h-15" style="edgeStyle=none;shape=connector;rounded=0;orthogonalLoop=1;jettySize=auto;html=1;exitX=0;exitY=1;exitDx=0;exitDy=0;entryX=0.952;entryY=-0.004;entryDx=0;entryDy=0;entryPerimeter=0;strokeColor=default;align=center;verticalAlign=middle;fontFamily=Helvetica;fontSize=11;fontColor=default;labelBackgroundColor=default;startFill=0;endArrow=none;" parent="1" source="EaoSCeDMWYsuYTVSq__j-11" target="EaoSCeDMWYsuYTVSq__j-1" edge="1">
          <mxGeometry relative="1" as="geometry" />
        </mxCell>
        <mxCell id="YZ9Vr9Id5WJVoP7LfM_h-16" style="edgeStyle=none;shape=connector;rounded=0;orthogonalLoop=1;jettySize=auto;html=1;exitX=0;exitY=1;exitDx=0;exitDy=0;entryX=0.861;entryY=0.019;entryDx=0;entryDy=0;entryPerimeter=0;strokeColor=default;align=center;verticalAlign=middle;fontFamily=Helvetica;fontSize=11;fontColor=default;labelBackgroundColor=default;startFill=0;endArrow=none;" parent="1" source="YZ9Vr9Id5WJVoP7LfM_h-3" target="EaoSCeDMWYsuYTVSq__j-1" edge="1">
          <mxGeometry relative="1" as="geometry" />
        </mxCell>
        <mxCell id="YZ9Vr9Id5WJVoP7LfM_h-17" style="edgeStyle=none;shape=connector;rounded=0;orthogonalLoop=1;jettySize=auto;html=1;exitX=1;exitY=0;exitDx=0;exitDy=0;entryX=-0.03;entryY=0.595;entryDx=0;entryDy=0;entryPerimeter=0;strokeColor=default;align=center;verticalAlign=middle;fontFamily=Helvetica;fontSize=11;fontColor=default;labelBackgroundColor=default;startFill=0;endArrow=none;" parent="1" source="EaoSCeDMWYsuYTVSq__j-1" target="EaoSCeDMWYsuYTVSq__j-8" edge="1">
          <mxGeometry relative="1" as="geometry" />
        </mxCell>
        <mxCell id="YZ9Vr9Id5WJVoP7LfM_h-19" style="edgeStyle=none;shape=connector;rounded=0;orthogonalLoop=1;jettySize=auto;html=1;exitX=0;exitY=0.5;exitDx=0;exitDy=0;entryX=1.006;entryY=0.122;entryDx=0;entryDy=0;entryPerimeter=0;strokeColor=default;align=center;verticalAlign=middle;fontFamily=Helvetica;fontSize=11;fontColor=default;labelBackgroundColor=default;startFill=0;endArrow=none;" parent="1" source="EaoSCeDMWYsuYTVSq__j-6" target="EaoSCeDMWYsuYTVSq__j-1" edge="1">
          <mxGeometry relative="1" as="geometry" />
        </mxCell>
        <mxCell id="YZ9Vr9Id5WJVoP7LfM_h-22" style="edgeStyle=none;shape=connector;rounded=0;orthogonalLoop=1;jettySize=auto;html=1;exitX=1;exitY=1;exitDx=0;exitDy=0;entryX=0;entryY=0;entryDx=0;entryDy=0;strokeColor=default;align=center;verticalAlign=middle;fontFamily=Helvetica;fontSize=20;fontColor=default;labelBackgroundColor=default;startFill=0;endArrow=none;" parent="1" source="YZ9Vr9Id5WJVoP7LfM_h-20" target="EaoSCeDMWYsuYTVSq__j-1" edge="1">
          <mxGeometry relative="1" as="geometry" />
        </mxCell>
        <mxCell id="YZ9Vr9Id5WJVoP7LfM_h-124" value="&lt;font style=&quot;font-size: 20px;&quot;&gt;n&lt;/font&gt;" style="edgeLabel;html=1;align=center;verticalAlign=middle;resizable=0;points=[];fontFamily=Helvetica;fontSize=11;fontColor=default;labelBackgroundColor=default;fillColor=none;gradientColor=none;" parent="YZ9Vr9Id5WJVoP7LfM_h-22" vertex="1" connectable="0">
          <mxGeometry x="0.0298" y="-3" relative="1" as="geometry">
            <mxPoint as="offset" />
          </mxGeometry>
        </mxCell>
        <mxCell id="YZ9Vr9Id5WJVoP7LfM_h-20" value="olur" style="rhombus;whiteSpace=wrap;html=1;fontFamily=Helvetica;fontSize=11;fontColor=default;labelBackgroundColor=default;" parent="1" vertex="1">
          <mxGeometry x="115.53" y="-1035" width="76.75" height="65" as="geometry" />
        </mxCell>
        <mxCell id="YZ9Vr9Id5WJVoP7LfM_h-31" style="edgeStyle=none;shape=connector;rounded=0;orthogonalLoop=1;jettySize=auto;html=1;exitX=1;exitY=1;exitDx=0;exitDy=0;entryX=0.25;entryY=0;entryDx=0;entryDy=0;strokeColor=default;align=center;verticalAlign=middle;fontFamily=Helvetica;fontSize=11;fontColor=default;labelBackgroundColor=default;startFill=0;endArrow=none;" parent="1" source="YZ9Vr9Id5WJVoP7LfM_h-27" target="EaoSCeDMWYsuYTVSq__j-1" edge="1">
          <mxGeometry relative="1" as="geometry" />
        </mxCell>
        <mxCell id="YZ9Vr9Id5WJVoP7LfM_h-27" value="Cari Hesap&lt;div&gt;Türü&lt;/div&gt;" style="ellipse;whiteSpace=wrap;html=1;fontFamily=Helvetica;fontSize=11;fontColor=default;labelBackgroundColor=default;" parent="1" vertex="1">
          <mxGeometry x="191.03" y="-1240" width="100" height="60" as="geometry" />
        </mxCell>
        <mxCell id="YZ9Vr9Id5WJVoP7LfM_h-30" style="edgeStyle=none;shape=connector;rounded=0;orthogonalLoop=1;jettySize=auto;html=1;exitX=0.5;exitY=1;exitDx=0;exitDy=0;entryX=0.423;entryY=0.03;entryDx=0;entryDy=0;entryPerimeter=0;strokeColor=default;align=center;verticalAlign=middle;fontFamily=Helvetica;fontSize=11;fontColor=default;labelBackgroundColor=default;startFill=0;endArrow=none;" parent="1" source="EaoSCeDMWYsuYTVSq__j-13" target="EaoSCeDMWYsuYTVSq__j-1" edge="1">
          <mxGeometry relative="1" as="geometry" />
        </mxCell>
        <mxCell id="YZ9Vr9Id5WJVoP7LfM_h-32" style="edgeStyle=none;shape=connector;rounded=0;orthogonalLoop=1;jettySize=auto;html=1;exitX=1;exitY=1;exitDx=0;exitDy=0;entryX=0.106;entryY=0.007;entryDx=0;entryDy=0;entryPerimeter=0;strokeColor=default;align=center;verticalAlign=middle;fontFamily=Helvetica;fontSize=11;fontColor=default;labelBackgroundColor=default;startFill=0;endArrow=none;" parent="1" source="EaoSCeDMWYsuYTVSq__j-14" target="EaoSCeDMWYsuYTVSq__j-1" edge="1">
          <mxGeometry relative="1" as="geometry" />
        </mxCell>
        <mxCell id="YZ9Vr9Id5WJVoP7LfM_h-172" style="edgeStyle=none;shape=connector;rounded=0;orthogonalLoop=1;jettySize=auto;html=1;exitX=1;exitY=1;exitDx=0;exitDy=0;entryX=0;entryY=0;entryDx=0;entryDy=0;strokeColor=default;align=center;verticalAlign=middle;fontFamily=Helvetica;fontSize=11;fontColor=default;labelBackgroundColor=default;resizable=0;startFill=0;endArrow=none;" parent="1" source="YZ9Vr9Id5WJVoP7LfM_h-44" target="8fD-S27WqBdFzqs_7WYE-171" edge="1">
          <mxGeometry relative="1" as="geometry" />
        </mxCell>
        <mxCell id="YZ9Vr9Id5WJVoP7LfM_h-173" value="&lt;font style=&quot;font-size: 19px;&quot;&gt;m&lt;/font&gt;" style="edgeLabel;html=1;align=center;verticalAlign=middle;resizable=0;points=[];fontFamily=Helvetica;fontSize=11;fontColor=default;labelBackgroundColor=default;fillColor=none;gradientColor=none;" parent="YZ9Vr9Id5WJVoP7LfM_h-172" vertex="1" connectable="0">
          <mxGeometry x="0.0754" y="3" relative="1" as="geometry">
            <mxPoint y="-1" as="offset" />
          </mxGeometry>
        </mxCell>
        <mxCell id="YZ9Vr9Id5WJVoP7LfM_h-44" value="olur" style="rhombus;whiteSpace=wrap;html=1;fontFamily=Helvetica;fontSize=11;fontColor=default;labelBackgroundColor=default;" parent="1" vertex="1">
          <mxGeometry x="-326.5" y="552.5" width="80" height="80" as="geometry" />
        </mxCell>
        <mxCell id="YZ9Vr9Id5WJVoP7LfM_h-50" style="edgeStyle=none;shape=connector;rounded=0;orthogonalLoop=1;jettySize=auto;html=1;exitX=1;exitY=0.5;exitDx=0;exitDy=0;entryX=0;entryY=0;entryDx=0;entryDy=0;strokeColor=default;align=center;verticalAlign=middle;fontFamily=Helvetica;fontSize=11;fontColor=default;labelBackgroundColor=default;startFill=0;endArrow=none;" parent="1" source="YZ9Vr9Id5WJVoP7LfM_h-49" target="YZ9Vr9Id5WJVoP7LfM_h-44" edge="1">
          <mxGeometry relative="1" as="geometry" />
        </mxCell>
        <mxCell id="YZ9Vr9Id5WJVoP7LfM_h-49" value="Miktar" style="ellipse;whiteSpace=wrap;html=1;fontFamily=Helvetica;fontSize=11;fontColor=default;labelBackgroundColor=default;" parent="1" vertex="1">
          <mxGeometry x="-508.75" y="490" width="90" height="70" as="geometry" />
        </mxCell>
        <mxCell id="YZ9Vr9Id5WJVoP7LfM_h-51" value="Sipariş Durumu" style="ellipse;whiteSpace=wrap;html=1;fontFamily=Helvetica;fontSize=11;fontColor=default;labelBackgroundColor=default;" parent="1" vertex="1">
          <mxGeometry x="194.25" y="172.75" width="100" height="62.5" as="geometry" />
        </mxCell>
        <mxCell id="YZ9Vr9Id5WJVoP7LfM_h-53" value="Onay bilgisi" style="ellipse;whiteSpace=wrap;html=1;fontFamily=Helvetica;fontSize=11;fontColor=default;labelBackgroundColor=default;" parent="1" vertex="1">
          <mxGeometry x="-27" y="310.5" width="80" height="50" as="geometry" />
        </mxCell>
        <mxCell id="YZ9Vr9Id5WJVoP7LfM_h-56" value="Onay bilgisi" style="ellipse;whiteSpace=wrap;html=1;fontFamily=Helvetica;fontSize=11;fontColor=default;labelBackgroundColor=default;" parent="1" vertex="1">
          <mxGeometry x="-840" y="279.5" width="80" height="50" as="geometry" />
        </mxCell>
        <mxCell id="YZ9Vr9Id5WJVoP7LfM_h-58" value="Birim Fiyat&lt;div&gt;(Alınan Tarih)&lt;/div&gt;" style="ellipse;whiteSpace=wrap;html=1;fontFamily=Helvetica;fontSize=11;fontColor=default;labelBackgroundColor=default;" parent="1" vertex="1">
          <mxGeometry x="-746.4999999999999" y="289.5" width="100" height="55" as="geometry" />
        </mxCell>
        <mxCell id="YZ9Vr9Id5WJVoP7LfM_h-65" value="Kargo Firması&lt;div&gt;ID&lt;/div&gt;" style="ellipse;whiteSpace=wrap;html=1;fontFamily=Helvetica;fontSize=11;fontColor=default;labelBackgroundColor=default;" parent="1" vertex="1">
          <mxGeometry x="-1410" y="-330.62" width="93" height="61.25" as="geometry" />
        </mxCell>
        <mxCell id="YZ9Vr9Id5WJVoP7LfM_h-69" style="edgeStyle=none;shape=connector;rounded=0;orthogonalLoop=1;jettySize=auto;html=1;exitX=1;exitY=0.5;exitDx=0;exitDy=0;entryX=0;entryY=0.25;entryDx=0;entryDy=0;strokeColor=default;align=center;verticalAlign=middle;fontFamily=Helvetica;fontSize=11;fontColor=default;labelBackgroundColor=default;startFill=0;endArrow=none;" parent="1" source="YZ9Vr9Id5WJVoP7LfM_h-68" target="8fD-S27WqBdFzqs_7WYE-404" edge="1">
          <mxGeometry relative="1" as="geometry" />
        </mxCell>
        <mxCell id="YZ9Vr9Id5WJVoP7LfM_h-68" value="Kargo Takip&lt;div&gt;No&lt;/div&gt;" style="ellipse;whiteSpace=wrap;html=1;fontFamily=Helvetica;fontSize=11;fontColor=default;labelBackgroundColor=default;" parent="1" vertex="1">
          <mxGeometry x="-1420" y="104.5" width="90" height="70" as="geometry" />
        </mxCell>
        <mxCell id="YZ9Vr9Id5WJVoP7LfM_h-73" style="edgeStyle=none;shape=connector;rounded=0;orthogonalLoop=1;jettySize=auto;html=1;exitX=1;exitY=0;exitDx=0;exitDy=0;entryX=0;entryY=0.5;entryDx=0;entryDy=0;strokeColor=default;align=center;verticalAlign=middle;fontFamily=Helvetica;fontSize=11;fontColor=default;labelBackgroundColor=default;startFill=0;endArrow=none;" parent="1" source="YZ9Vr9Id5WJVoP7LfM_h-71" target="8fD-S27WqBdFzqs_7WYE-361" edge="1">
          <mxGeometry relative="1" as="geometry" />
        </mxCell>
        <mxCell id="O06P7-NGEBOdylAl6Ql0-125" value="&lt;font style=&quot;font-size: 20px;&quot;&gt;m&lt;/font&gt;" style="edgeLabel;html=1;align=center;verticalAlign=middle;resizable=0;points=[];fontFamily=Helvetica;fontSize=11;fontColor=default;labelBackgroundColor=default;" parent="YZ9Vr9Id5WJVoP7LfM_h-73" vertex="1" connectable="0">
          <mxGeometry x="-0.2302" y="-3" relative="1" as="geometry">
            <mxPoint as="offset" />
          </mxGeometry>
        </mxCell>
        <mxCell id="O06P7-NGEBOdylAl6Ql0-128" style="edgeStyle=none;shape=connector;rounded=0;orthogonalLoop=1;jettySize=auto;html=1;exitX=1;exitY=1;exitDx=0;exitDy=0;entryX=0.5;entryY=0;entryDx=0;entryDy=0;strokeColor=default;align=center;verticalAlign=middle;fontFamily=Helvetica;fontSize=11;fontColor=default;labelBackgroundColor=default;startFill=0;endArrow=none;" parent="1" source="YZ9Vr9Id5WJVoP7LfM_h-71" target="8fD-S27WqBdFzqs_7WYE-200" edge="1">
          <mxGeometry relative="1" as="geometry" />
        </mxCell>
        <mxCell id="O06P7-NGEBOdylAl6Ql0-129" value="&lt;font style=&quot;font-size: 20px;&quot;&gt;p&lt;/font&gt;" style="edgeLabel;html=1;align=center;verticalAlign=middle;resizable=0;points=[];fontFamily=Helvetica;fontSize=11;fontColor=default;labelBackgroundColor=default;" parent="O06P7-NGEBOdylAl6Ql0-128" vertex="1" connectable="0">
          <mxGeometry x="-0.0239" y="3" relative="1" as="geometry">
            <mxPoint x="1" y="1" as="offset" />
          </mxGeometry>
        </mxCell>
        <mxCell id="YZ9Vr9Id5WJVoP7LfM_h-71" value="içerir" style="rhombus;whiteSpace=wrap;html=1;fontFamily=Helvetica;fontSize=11;fontColor=default;labelBackgroundColor=default;" parent="1" vertex="1">
          <mxGeometry x="-1217" y="557.5" width="80" height="80" as="geometry" />
        </mxCell>
        <mxCell id="CwLL34Ni06w6Smd44Q-Q-17" style="edgeStyle=none;shape=connector;rounded=0;orthogonalLoop=1;jettySize=auto;html=1;exitX=0.5;exitY=0;exitDx=0;exitDy=0;entryX=0.25;entryY=1;entryDx=0;entryDy=0;strokeColor=default;align=center;verticalAlign=middle;fontFamily=Helvetica;fontSize=11;fontColor=default;labelBackgroundColor=default;startFill=0;endArrow=none;" parent="1" source="YZ9Vr9Id5WJVoP7LfM_h-157" target="8fD-S27WqBdFzqs_7WYE-200" edge="1">
          <mxGeometry relative="1" as="geometry" />
        </mxCell>
        <mxCell id="YZ9Vr9Id5WJVoP7LfM_h-157" value="ana birim mi" style="ellipse;whiteSpace=wrap;html=1;fontFamily=Helvetica;fontSize=11;fontColor=default;labelBackgroundColor=default;" parent="1" vertex="1">
          <mxGeometry x="-987.4999999999999" y="1109" width="100" height="60" as="geometry" />
        </mxCell>
        <mxCell id="YZ9Vr9Id5WJVoP7LfM_h-194" style="edgeStyle=none;shape=connector;rounded=0;orthogonalLoop=1;jettySize=auto;html=1;exitX=1;exitY=0;exitDx=0;exitDy=0;entryX=0;entryY=0.75;entryDx=0;entryDy=0;strokeColor=default;align=center;verticalAlign=middle;fontFamily=Helvetica;fontSize=11;fontColor=default;labelBackgroundColor=default;resizable=0;startFill=0;endArrow=none;" parent="1" source="YZ9Vr9Id5WJVoP7LfM_h-192" target="8fD-S27WqBdFzqs_7WYE-305" edge="1">
          <mxGeometry relative="1" as="geometry" />
        </mxCell>
        <mxCell id="YZ9Vr9Id5WJVoP7LfM_h-196" value="&lt;font style=&quot;font-size: 20px;&quot;&gt;1&lt;/font&gt;" style="edgeLabel;html=1;align=center;verticalAlign=middle;resizable=0;points=[];fontFamily=Helvetica;fontSize=11;fontColor=default;labelBackgroundColor=default;fillColor=none;gradientColor=none;" parent="YZ9Vr9Id5WJVoP7LfM_h-194" vertex="1" connectable="0">
          <mxGeometry x="-0.0238" y="-2" relative="1" as="geometry">
            <mxPoint as="offset" />
          </mxGeometry>
        </mxCell>
        <mxCell id="YZ9Vr9Id5WJVoP7LfM_h-192" value="olur" style="rhombus;whiteSpace=wrap;html=1;align=center;verticalAlign=middle;fontFamily=Helvetica;fontSize=11;fontColor=default;labelBackgroundColor=default;resizable=0;fillColor=none;gradientColor=none;" parent="1" vertex="1">
          <mxGeometry x="-547" y="275.5" width="80" height="80" as="geometry" />
        </mxCell>
        <mxCell id="YZ9Vr9Id5WJVoP7LfM_h-202" style="edgeStyle=none;shape=connector;rounded=0;orthogonalLoop=1;jettySize=auto;html=1;exitX=1;exitY=0.5;exitDx=0;exitDy=0;entryX=0;entryY=0.75;entryDx=0;entryDy=0;strokeColor=default;align=center;verticalAlign=middle;fontFamily=Helvetica;fontSize=11;fontColor=default;labelBackgroundColor=default;resizable=0;startFill=0;endArrow=none;" parent="1" source="YZ9Vr9Id5WJVoP7LfM_h-200" target="8fD-S27WqBdFzqs_7WYE-305" edge="1">
          <mxGeometry relative="1" as="geometry" />
        </mxCell>
        <mxCell id="YZ9Vr9Id5WJVoP7LfM_h-204" value="&lt;font style=&quot;font-size: 20px;&quot;&gt;1&lt;/font&gt;" style="edgeLabel;html=1;align=center;verticalAlign=middle;resizable=0;points=[];fontFamily=Helvetica;fontSize=11;fontColor=default;labelBackgroundColor=default;fillColor=none;gradientColor=none;" parent="YZ9Vr9Id5WJVoP7LfM_h-202" vertex="1" connectable="0">
          <mxGeometry x="0.1448" y="2" relative="1" as="geometry">
            <mxPoint as="offset" />
          </mxGeometry>
        </mxCell>
        <mxCell id="YZ9Vr9Id5WJVoP7LfM_h-200" value="olur" style="rhombus;whiteSpace=wrap;html=1;align=center;verticalAlign=middle;fontFamily=Helvetica;fontSize=11;fontColor=default;labelBackgroundColor=default;resizable=0;fillColor=none;gradientColor=none;" parent="1" vertex="1">
          <mxGeometry x="-746.5" y="141" width="80" height="80" as="geometry" />
        </mxCell>
        <mxCell id="O06P7-NGEBOdylAl6Ql0-9" style="edgeStyle=none;shape=connector;rounded=0;orthogonalLoop=1;jettySize=auto;html=1;exitX=1;exitY=0.5;exitDx=0;exitDy=0;entryX=0;entryY=0.5;entryDx=0;entryDy=0;strokeColor=default;align=center;verticalAlign=middle;fontFamily=Helvetica;fontSize=11;fontColor=default;labelBackgroundColor=default;startFill=0;endArrow=none;" parent="1" source="O06P7-NGEBOdylAl6Ql0-1" target="O06P7-NGEBOdylAl6Ql0-5" edge="1">
          <mxGeometry relative="1" as="geometry" />
        </mxCell>
        <mxCell id="O06P7-NGEBOdylAl6Ql0-16" value="&lt;font style=&quot;font-size: 20px;&quot;&gt;1&lt;/font&gt;" style="edgeLabel;html=1;align=center;verticalAlign=middle;resizable=0;points=[];fontFamily=Helvetica;fontSize=11;fontColor=default;labelBackgroundColor=default;" parent="O06P7-NGEBOdylAl6Ql0-9" vertex="1" connectable="0">
          <mxGeometry x="0.0232" y="-2" relative="1" as="geometry">
            <mxPoint x="-1" as="offset" />
          </mxGeometry>
        </mxCell>
        <mxCell id="O06P7-NGEBOdylAl6Ql0-37" style="edgeStyle=none;shape=connector;rounded=0;orthogonalLoop=1;jettySize=auto;html=1;exitX=0.25;exitY=1;exitDx=0;exitDy=0;entryX=0.5;entryY=0;entryDx=0;entryDy=0;strokeColor=default;align=center;verticalAlign=middle;fontFamily=Helvetica;fontSize=11;fontColor=default;labelBackgroundColor=default;startFill=0;endArrow=none;" parent="1" source="O06P7-NGEBOdylAl6Ql0-1" target="O06P7-NGEBOdylAl6Ql0-30" edge="1">
          <mxGeometry relative="1" as="geometry" />
        </mxCell>
        <mxCell id="O06P7-NGEBOdylAl6Ql0-38" style="edgeStyle=none;shape=connector;rounded=0;orthogonalLoop=1;jettySize=auto;html=1;exitX=0.75;exitY=1;exitDx=0;exitDy=0;entryX=0.5;entryY=0;entryDx=0;entryDy=0;strokeColor=default;align=center;verticalAlign=middle;fontFamily=Helvetica;fontSize=11;fontColor=default;labelBackgroundColor=default;startFill=0;endArrow=none;" parent="1" source="O06P7-NGEBOdylAl6Ql0-1" target="O06P7-NGEBOdylAl6Ql0-32" edge="1">
          <mxGeometry relative="1" as="geometry" />
        </mxCell>
        <mxCell id="O06P7-NGEBOdylAl6Ql0-1" value="İL" style="rounded=0;whiteSpace=wrap;html=1;fillColor=#f8cecc;strokeColor=#b85450;" parent="1" vertex="1">
          <mxGeometry x="735.03" y="-685" width="120" height="60" as="geometry" />
        </mxCell>
        <mxCell id="O06P7-NGEBOdylAl6Ql0-39" style="edgeStyle=none;shape=connector;rounded=0;orthogonalLoop=1;jettySize=auto;html=1;exitX=0.25;exitY=0;exitDx=0;exitDy=0;entryX=0.5;entryY=1;entryDx=0;entryDy=0;strokeColor=default;align=center;verticalAlign=middle;fontFamily=Helvetica;fontSize=11;fontColor=default;labelBackgroundColor=default;startFill=0;endArrow=none;" parent="1" source="O06P7-NGEBOdylAl6Ql0-2" target="O06P7-NGEBOdylAl6Ql0-34" edge="1">
          <mxGeometry relative="1" as="geometry" />
        </mxCell>
        <mxCell id="O06P7-NGEBOdylAl6Ql0-40" style="edgeStyle=none;shape=connector;rounded=0;orthogonalLoop=1;jettySize=auto;html=1;exitX=0.75;exitY=0;exitDx=0;exitDy=0;entryX=0.5;entryY=1;entryDx=0;entryDy=0;strokeColor=default;align=center;verticalAlign=middle;fontFamily=Helvetica;fontSize=11;fontColor=default;labelBackgroundColor=default;startFill=0;endArrow=none;" parent="1" source="O06P7-NGEBOdylAl6Ql0-2" target="O06P7-NGEBOdylAl6Ql0-36" edge="1">
          <mxGeometry relative="1" as="geometry" />
        </mxCell>
        <mxCell id="atge_e-wKlO63fTJiIF2-3" style="edgeStyle=orthogonalEdgeStyle;rounded=0;orthogonalLoop=1;jettySize=auto;html=1;exitX=0.5;exitY=1;exitDx=0;exitDy=0;entryX=0.5;entryY=0;entryDx=0;entryDy=0;endArrow=none;startFill=0;" parent="1" source="O06P7-NGEBOdylAl6Ql0-2" target="O06P7-NGEBOdylAl6Ql0-6" edge="1">
          <mxGeometry relative="1" as="geometry" />
        </mxCell>
        <mxCell id="atge_e-wKlO63fTJiIF2-4" value="1" style="edgeLabel;html=1;align=center;verticalAlign=middle;resizable=0;points=[];" parent="atge_e-wKlO63fTJiIF2-3" vertex="1" connectable="0">
          <mxGeometry x="0.1223" y="2" relative="1" as="geometry">
            <mxPoint as="offset" />
          </mxGeometry>
        </mxCell>
        <mxCell id="atge_e-wKlO63fTJiIF2-20" value="&lt;font style=&quot;font-size: 20px;&quot;&gt;1&lt;/font&gt;" style="edgeLabel;html=1;align=center;verticalAlign=middle;resizable=0;points=[];" parent="atge_e-wKlO63fTJiIF2-3" vertex="1" connectable="0">
          <mxGeometry x="0.0962" y="5" relative="1" as="geometry">
            <mxPoint as="offset" />
          </mxGeometry>
        </mxCell>
        <mxCell id="atge_e-wKlO63fTJiIF2-5" style="edgeStyle=orthogonalEdgeStyle;rounded=0;orthogonalLoop=1;jettySize=auto;html=1;exitX=0;exitY=1;exitDx=0;exitDy=0;entryX=1;entryY=0.5;entryDx=0;entryDy=0;endArrow=none;startFill=0;" parent="1" source="O06P7-NGEBOdylAl6Ql0-2" target="atge_e-wKlO63fTJiIF2-1" edge="1">
          <mxGeometry relative="1" as="geometry" />
        </mxCell>
        <mxCell id="atge_e-wKlO63fTJiIF2-17" value="&lt;font style=&quot;font-size: 20px;&quot;&gt;n&lt;/font&gt;" style="edgeLabel;html=1;align=center;verticalAlign=middle;resizable=0;points=[];" parent="atge_e-wKlO63fTJiIF2-5" vertex="1" connectable="0">
          <mxGeometry x="0.1325" relative="1" as="geometry">
            <mxPoint as="offset" />
          </mxGeometry>
        </mxCell>
        <mxCell id="O06P7-NGEBOdylAl6Ql0-2" value="İLÇE" style="rounded=0;whiteSpace=wrap;html=1;fillColor=#f8cecc;strokeColor=#b85450;" parent="1" vertex="1">
          <mxGeometry x="1135.5" y="-685" width="120" height="60" as="geometry" />
        </mxCell>
        <mxCell id="CwLL34Ni06w6Smd44Q-Q-2" style="rounded=0;orthogonalLoop=1;jettySize=auto;html=1;exitX=1;exitY=0.5;exitDx=0;exitDy=0;entryX=0;entryY=0.5;entryDx=0;entryDy=0;endArrow=none;startFill=0;" parent="1" source="O06P7-NGEBOdylAl6Ql0-3" target="CwLL34Ni06w6Smd44Q-Q-1" edge="1">
          <mxGeometry relative="1" as="geometry" />
        </mxCell>
        <mxCell id="CwLL34Ni06w6Smd44Q-Q-4" value="&lt;font style=&quot;font-size: 20px;&quot;&gt;1&lt;/font&gt;" style="edgeLabel;html=1;align=center;verticalAlign=middle;resizable=0;points=[];fontFamily=Helvetica;fontSize=11;fontColor=default;labelBackgroundColor=default;" parent="CwLL34Ni06w6Smd44Q-Q-2" vertex="1" connectable="0">
          <mxGeometry x="0.0941" y="-1" relative="1" as="geometry">
            <mxPoint as="offset" />
          </mxGeometry>
        </mxCell>
        <mxCell id="atge_e-wKlO63fTJiIF2-8" style="edgeStyle=orthogonalEdgeStyle;rounded=0;orthogonalLoop=1;jettySize=auto;html=1;exitX=0.25;exitY=0;exitDx=0;exitDy=0;entryX=1;entryY=0.5;entryDx=0;entryDy=0;endArrow=none;startFill=0;" parent="1" source="O06P7-NGEBOdylAl6Ql0-3" target="atge_e-wKlO63fTJiIF2-7" edge="1">
          <mxGeometry relative="1" as="geometry" />
        </mxCell>
        <mxCell id="atge_e-wKlO63fTJiIF2-21" value="&lt;font style=&quot;font-size: 20px;&quot;&gt;n&lt;/font&gt;" style="edgeLabel;html=1;align=center;verticalAlign=middle;resizable=0;points=[];" parent="atge_e-wKlO63fTJiIF2-8" vertex="1" connectable="0">
          <mxGeometry x="0.0924" y="2" relative="1" as="geometry">
            <mxPoint as="offset" />
          </mxGeometry>
        </mxCell>
        <mxCell id="O06P7-NGEBOdylAl6Ql0-3" value="MAHALLE" style="rounded=0;whiteSpace=wrap;html=1;fillColor=#f8cecc;strokeColor=#b85450;" parent="1" vertex="1">
          <mxGeometry x="1101" y="-310" width="120" height="60" as="geometry" />
        </mxCell>
        <mxCell id="8bvtnb7ogH4JscniOlgQ-3" style="edgeStyle=orthogonalEdgeStyle;rounded=0;orthogonalLoop=1;jettySize=auto;html=1;exitX=1;exitY=0.5;exitDx=0;exitDy=0;entryX=0;entryY=0.5;entryDx=0;entryDy=0;endArrow=none;startFill=0;" edge="1" parent="1" source="O06P7-NGEBOdylAl6Ql0-4" target="O06P7-NGEBOdylAl6Ql0-1">
          <mxGeometry relative="1" as="geometry" />
        </mxCell>
        <mxCell id="8bvtnb7ogH4JscniOlgQ-4" value="&lt;font style=&quot;font-size: 20px;&quot;&gt;1&lt;/font&gt;" style="edgeLabel;html=1;align=center;verticalAlign=middle;resizable=0;points=[];" vertex="1" connectable="0" parent="8bvtnb7ogH4JscniOlgQ-3">
          <mxGeometry x="-0.0437" y="-1" relative="1" as="geometry">
            <mxPoint x="-1" as="offset" />
          </mxGeometry>
        </mxCell>
        <mxCell id="O06P7-NGEBOdylAl6Ql0-4" value="olur" style="rhombus;whiteSpace=wrap;html=1;" parent="1" vertex="1">
          <mxGeometry x="540" y="-695" width="80" height="80" as="geometry" />
        </mxCell>
        <mxCell id="O06P7-NGEBOdylAl6Ql0-10" style="edgeStyle=none;shape=connector;rounded=0;orthogonalLoop=1;jettySize=auto;html=1;exitX=1;exitY=0.5;exitDx=0;exitDy=0;entryX=0;entryY=0.5;entryDx=0;entryDy=0;strokeColor=default;align=center;verticalAlign=middle;fontFamily=Helvetica;fontSize=11;fontColor=default;labelBackgroundColor=default;startFill=0;endArrow=none;" parent="1" source="O06P7-NGEBOdylAl6Ql0-5" target="O06P7-NGEBOdylAl6Ql0-2" edge="1">
          <mxGeometry relative="1" as="geometry" />
        </mxCell>
        <mxCell id="O06P7-NGEBOdylAl6Ql0-17" value="&lt;font style=&quot;font-size: 20px;&quot;&gt;n&lt;/font&gt;" style="edgeLabel;html=1;align=center;verticalAlign=middle;resizable=0;points=[];fontFamily=Helvetica;fontSize=11;fontColor=default;labelBackgroundColor=default;" parent="O06P7-NGEBOdylAl6Ql0-10" vertex="1" connectable="0">
          <mxGeometry x="0.0897" relative="1" as="geometry">
            <mxPoint x="-1" as="offset" />
          </mxGeometry>
        </mxCell>
        <mxCell id="O06P7-NGEBOdylAl6Ql0-5" value="olur" style="rhombus;whiteSpace=wrap;html=1;" parent="1" vertex="1">
          <mxGeometry x="963" y="-695" width="80" height="80" as="geometry" />
        </mxCell>
        <mxCell id="O06P7-NGEBOdylAl6Ql0-12" style="edgeStyle=none;shape=connector;rounded=0;orthogonalLoop=1;jettySize=auto;html=1;exitX=0.5;exitY=1;exitDx=0;exitDy=0;entryX=0.5;entryY=0;entryDx=0;entryDy=0;strokeColor=default;align=center;verticalAlign=middle;fontFamily=Helvetica;fontSize=11;fontColor=default;labelBackgroundColor=default;startFill=0;endArrow=none;" parent="1" source="O06P7-NGEBOdylAl6Ql0-6" target="O06P7-NGEBOdylAl6Ql0-3" edge="1">
          <mxGeometry relative="1" as="geometry" />
        </mxCell>
        <mxCell id="O06P7-NGEBOdylAl6Ql0-19" value="&lt;font style=&quot;font-size: 20px;&quot;&gt;n&lt;/font&gt;" style="edgeLabel;html=1;align=center;verticalAlign=middle;resizable=0;points=[];fontFamily=Helvetica;fontSize=11;fontColor=default;labelBackgroundColor=default;" parent="O06P7-NGEBOdylAl6Ql0-12" vertex="1" connectable="0">
          <mxGeometry x="-0.2996" y="-6" relative="1" as="geometry">
            <mxPoint as="offset" />
          </mxGeometry>
        </mxCell>
        <mxCell id="O06P7-NGEBOdylAl6Ql0-6" value="olur" style="rhombus;whiteSpace=wrap;html=1;" parent="1" vertex="1">
          <mxGeometry x="1155.5" y="-469.06" width="80" height="80" as="geometry" />
        </mxCell>
        <mxCell id="O06P7-NGEBOdylAl6Ql0-58" style="edgeStyle=none;shape=connector;rounded=0;orthogonalLoop=1;jettySize=auto;html=1;exitX=1;exitY=0.5;exitDx=0;exitDy=0;entryX=0;entryY=0.5;entryDx=0;entryDy=0;strokeColor=default;align=center;verticalAlign=middle;fontFamily=Helvetica;fontSize=11;fontColor=default;labelBackgroundColor=default;startFill=0;endArrow=none;" parent="1" source="O06P7-NGEBOdylAl6Ql0-20" target="O06P7-NGEBOdylAl6Ql0-56" edge="1">
          <mxGeometry relative="1" as="geometry" />
        </mxCell>
        <mxCell id="O06P7-NGEBOdylAl6Ql0-59" value="&lt;font style=&quot;font-size: 20px;&quot;&gt;1&lt;/font&gt;" style="edgeLabel;html=1;align=center;verticalAlign=middle;resizable=0;points=[];fontFamily=Helvetica;fontSize=11;fontColor=default;labelBackgroundColor=default;" parent="O06P7-NGEBOdylAl6Ql0-58" vertex="1" connectable="0">
          <mxGeometry x="-0.0204" y="2" relative="1" as="geometry">
            <mxPoint as="offset" />
          </mxGeometry>
        </mxCell>
        <mxCell id="atge_e-wKlO63fTJiIF2-2" style="edgeStyle=orthogonalEdgeStyle;rounded=0;orthogonalLoop=1;jettySize=auto;html=1;exitX=0;exitY=0.25;exitDx=0;exitDy=0;entryX=1;entryY=0.5;entryDx=0;entryDy=0;endArrow=none;startFill=0;" parent="1" source="O06P7-NGEBOdylAl6Ql0-20" target="O06P7-NGEBOdylAl6Ql0-22" edge="1">
          <mxGeometry relative="1" as="geometry" />
        </mxCell>
        <mxCell id="O06P7-NGEBOdylAl6Ql0-20" value="VERGİ DAİRESİ" style="rounded=0;whiteSpace=wrap;html=1;fontFamily=Helvetica;fontSize=11;labelBackgroundColor=default;fillColor=#f8cecc;strokeColor=#b85450;" parent="1" vertex="1">
          <mxGeometry x="-296.97" y="-960" width="120" height="60" as="geometry" />
        </mxCell>
        <mxCell id="O06P7-NGEBOdylAl6Ql0-22" value="ad" style="ellipse;whiteSpace=wrap;html=1;fontFamily=Helvetica;fontSize=11;fontColor=default;labelBackgroundColor=default;" parent="1" vertex="1">
          <mxGeometry x="-480" y="-1020" width="110" height="70" as="geometry" />
        </mxCell>
        <mxCell id="O06P7-NGEBOdylAl6Ql0-25" style="edgeStyle=none;shape=connector;rounded=0;orthogonalLoop=1;jettySize=auto;html=1;exitX=1;exitY=1;exitDx=0;exitDy=0;entryX=0.25;entryY=0;entryDx=0;entryDy=0;strokeColor=default;align=center;verticalAlign=middle;fontFamily=Helvetica;fontSize=11;fontColor=default;labelBackgroundColor=default;startFill=0;endArrow=none;" parent="1" source="O06P7-NGEBOdylAl6Ql0-23" target="O06P7-NGEBOdylAl6Ql0-20" edge="1">
          <mxGeometry relative="1" as="geometry" />
        </mxCell>
        <mxCell id="O06P7-NGEBOdylAl6Ql0-23" value="vergi dairesi&lt;div&gt;ID&lt;/div&gt;" style="ellipse;whiteSpace=wrap;html=1;fontFamily=Helvetica;fontSize=11;fontColor=default;labelBackgroundColor=default;" parent="1" vertex="1">
          <mxGeometry x="-396.5" y="-1095" width="93" height="72.5" as="geometry" />
        </mxCell>
        <mxCell id="O06P7-NGEBOdylAl6Ql0-26" value="adres ID" style="ellipse;whiteSpace=wrap;html=1;fontFamily=Helvetica;fontSize=11;fontColor=default;labelBackgroundColor=default;" parent="1" vertex="1">
          <mxGeometry x="240" y="-298.12" width="70" height="45.63" as="geometry" />
        </mxCell>
        <mxCell id="O06P7-NGEBOdylAl6Ql0-30" value="il ID" style="ellipse;whiteSpace=wrap;html=1;fontFamily=Helvetica;fontSize=11;fontColor=default;labelBackgroundColor=default;" parent="1" vertex="1">
          <mxGeometry x="691.5" y="-592.5" width="70" height="45.63" as="geometry" />
        </mxCell>
        <mxCell id="O06P7-NGEBOdylAl6Ql0-32" value="ad" style="ellipse;whiteSpace=wrap;html=1;fontFamily=Helvetica;fontSize=11;fontColor=default;labelBackgroundColor=default;" parent="1" vertex="1">
          <mxGeometry x="800" y="-590.62" width="77" height="48.75" as="geometry" />
        </mxCell>
        <mxCell id="O06P7-NGEBOdylAl6Ql0-41" style="edgeStyle=none;shape=connector;rounded=0;orthogonalLoop=1;jettySize=auto;html=1;exitX=1;exitY=0.5;exitDx=0;exitDy=0;entryX=0;entryY=0.25;entryDx=0;entryDy=0;strokeColor=default;align=center;verticalAlign=middle;fontFamily=Helvetica;fontSize=11;fontColor=default;labelBackgroundColor=default;startFill=0;endArrow=none;" parent="1" source="O06P7-NGEBOdylAl6Ql0-33" target="O06P7-NGEBOdylAl6Ql0-3" edge="1">
          <mxGeometry relative="1" as="geometry" />
        </mxCell>
        <mxCell id="O06P7-NGEBOdylAl6Ql0-33" value="mahalle ID" style="ellipse;whiteSpace=wrap;html=1;fontFamily=Helvetica;fontSize=11;fontColor=default;labelBackgroundColor=default;" parent="1" vertex="1">
          <mxGeometry x="970" y="-327.5" width="70" height="45.63" as="geometry" />
        </mxCell>
        <mxCell id="O06P7-NGEBOdylAl6Ql0-34" value="ilçe ID" style="ellipse;whiteSpace=wrap;html=1;fontFamily=Helvetica;fontSize=11;fontColor=default;labelBackgroundColor=default;" parent="1" vertex="1">
          <mxGeometry x="1140" y="-799.37" width="70" height="45.63" as="geometry" />
        </mxCell>
        <mxCell id="O06P7-NGEBOdylAl6Ql0-42" style="edgeStyle=none;shape=connector;rounded=0;orthogonalLoop=1;jettySize=auto;html=1;exitX=1;exitY=0.5;exitDx=0;exitDy=0;entryX=0;entryY=0.75;entryDx=0;entryDy=0;strokeColor=default;align=center;verticalAlign=middle;fontFamily=Helvetica;fontSize=11;fontColor=default;labelBackgroundColor=default;startFill=0;endArrow=none;" parent="1" source="O06P7-NGEBOdylAl6Ql0-35" target="O06P7-NGEBOdylAl6Ql0-3" edge="1">
          <mxGeometry relative="1" as="geometry" />
        </mxCell>
        <mxCell id="O06P7-NGEBOdylAl6Ql0-35" value="ad" style="ellipse;whiteSpace=wrap;html=1;fontFamily=Helvetica;fontSize=11;fontColor=default;labelBackgroundColor=default;" parent="1" vertex="1">
          <mxGeometry x="970" y="-270" width="77" height="48.75" as="geometry" />
        </mxCell>
        <mxCell id="O06P7-NGEBOdylAl6Ql0-36" value="ad" style="ellipse;whiteSpace=wrap;html=1;fontFamily=Helvetica;fontSize=11;fontColor=default;labelBackgroundColor=default;" parent="1" vertex="1">
          <mxGeometry x="1263" y="-795.62" width="77" height="48.75" as="geometry" />
        </mxCell>
        <mxCell id="O06P7-NGEBOdylAl6Ql0-46" style="edgeStyle=none;shape=connector;rounded=0;orthogonalLoop=1;jettySize=auto;html=1;exitX=0.5;exitY=0;exitDx=0;exitDy=0;entryX=1;entryY=1;entryDx=0;entryDy=0;strokeColor=default;align=center;verticalAlign=middle;fontFamily=Helvetica;fontSize=11;fontColor=default;labelBackgroundColor=default;startFill=0;endArrow=none;" parent="1" source="O06P7-NGEBOdylAl6Ql0-44" target="EaoSCeDMWYsuYTVSq__j-1" edge="1">
          <mxGeometry relative="1" as="geometry" />
        </mxCell>
        <mxCell id="O06P7-NGEBOdylAl6Ql0-48" value="&lt;font style=&quot;font-size: 20px;&quot;&gt;n&lt;/font&gt;" style="edgeLabel;html=1;align=center;verticalAlign=middle;resizable=0;points=[];fontFamily=Helvetica;fontSize=11;fontColor=default;labelBackgroundColor=default;" parent="O06P7-NGEBOdylAl6Ql0-46" vertex="1" connectable="0">
          <mxGeometry x="-0.3989" y="5" relative="1" as="geometry">
            <mxPoint as="offset" />
          </mxGeometry>
        </mxCell>
        <mxCell id="O06P7-NGEBOdylAl6Ql0-44" value="sorumludur" style="rhombus;whiteSpace=wrap;html=1;fontFamily=Helvetica;fontSize=11;fontColor=default;labelBackgroundColor=default;" parent="1" vertex="1">
          <mxGeometry x="628" y="-180" width="80" height="80" as="geometry" />
        </mxCell>
        <mxCell id="O06P7-NGEBOdylAl6Ql0-52" style="edgeStyle=none;shape=connector;rounded=0;orthogonalLoop=1;jettySize=auto;html=1;exitX=1;exitY=0.5;exitDx=0;exitDy=0;entryX=0;entryY=0.5;entryDx=0;entryDy=0;strokeColor=default;align=center;verticalAlign=middle;fontFamily=Helvetica;fontSize=11;fontColor=default;labelBackgroundColor=default;startFill=0;endArrow=none;" parent="1" source="O06P7-NGEBOdylAl6Ql0-49" target="O06P7-NGEBOdylAl6Ql0-51" edge="1">
          <mxGeometry relative="1" as="geometry" />
        </mxCell>
        <mxCell id="O06P7-NGEBOdylAl6Ql0-65" value="&lt;font style=&quot;font-size: 20px;&quot;&gt;n&lt;/font&gt;" style="edgeLabel;html=1;align=center;verticalAlign=middle;resizable=0;points=[];fontFamily=Helvetica;fontSize=11;fontColor=default;labelBackgroundColor=default;" parent="O06P7-NGEBOdylAl6Ql0-52" vertex="1" connectable="0">
          <mxGeometry x="-0.1722" y="-4" relative="1" as="geometry">
            <mxPoint as="offset" />
          </mxGeometry>
        </mxCell>
        <mxCell id="atge_e-wKlO63fTJiIF2-24" style="edgeStyle=orthogonalEdgeStyle;rounded=0;orthogonalLoop=1;jettySize=auto;html=1;exitX=0;exitY=1;exitDx=0;exitDy=0;entryX=1;entryY=0.5;entryDx=0;entryDy=0;endArrow=none;startFill=0;" parent="1" source="O06P7-NGEBOdylAl6Ql0-49" target="O06P7-NGEBOdylAl6Ql0-55" edge="1">
          <mxGeometry relative="1" as="geometry" />
        </mxCell>
        <mxCell id="O06P7-NGEBOdylAl6Ql0-49" value="BANKA" style="rounded=0;whiteSpace=wrap;html=1;fontFamily=Helvetica;fontSize=11;labelBackgroundColor=default;fillColor=#f8cecc;strokeColor=#b85450;" parent="1" vertex="1">
          <mxGeometry x="-191.97" y="-778.44" width="117" height="62.5" as="geometry" />
        </mxCell>
        <mxCell id="O06P7-NGEBOdylAl6Ql0-53" style="edgeStyle=none;shape=connector;rounded=0;orthogonalLoop=1;jettySize=auto;html=1;exitX=1;exitY=0.5;exitDx=0;exitDy=0;entryX=0;entryY=1;entryDx=0;entryDy=0;strokeColor=default;align=center;verticalAlign=middle;fontFamily=Helvetica;fontSize=11;fontColor=default;labelBackgroundColor=default;startFill=0;endArrow=none;" parent="1" source="O06P7-NGEBOdylAl6Ql0-51" target="EaoSCeDMWYsuYTVSq__j-1" edge="1">
          <mxGeometry relative="1" as="geometry" />
        </mxCell>
        <mxCell id="O06P7-NGEBOdylAl6Ql0-66" value="&lt;font style=&quot;font-size: 20px;&quot;&gt;m&lt;/font&gt;" style="edgeLabel;html=1;align=center;verticalAlign=middle;resizable=0;points=[];fontFamily=Helvetica;fontSize=11;fontColor=default;labelBackgroundColor=default;" parent="O06P7-NGEBOdylAl6Ql0-53" vertex="1" connectable="0">
          <mxGeometry x="-0.2072" y="-2" relative="1" as="geometry">
            <mxPoint as="offset" />
          </mxGeometry>
        </mxCell>
        <mxCell id="O06P7-NGEBOdylAl6Ql0-51" value="olur" style="rhombus;whiteSpace=wrap;html=1;fontFamily=Helvetica;fontSize=11;fontColor=default;labelBackgroundColor=default;" parent="1" vertex="1">
          <mxGeometry x="58.03" y="-835" width="80" height="80" as="geometry" />
        </mxCell>
        <mxCell id="O06P7-NGEBOdylAl6Ql0-63" style="edgeStyle=none;shape=connector;rounded=0;orthogonalLoop=1;jettySize=auto;html=1;exitX=1;exitY=0.5;exitDx=0;exitDy=0;entryX=0;entryY=0.5;entryDx=0;entryDy=0;strokeColor=default;align=center;verticalAlign=middle;fontFamily=Helvetica;fontSize=11;fontColor=default;labelBackgroundColor=default;startFill=0;endArrow=none;" parent="1" source="O06P7-NGEBOdylAl6Ql0-54" target="O06P7-NGEBOdylAl6Ql0-49" edge="1">
          <mxGeometry relative="1" as="geometry" />
        </mxCell>
        <mxCell id="O06P7-NGEBOdylAl6Ql0-54" value="banka adı" style="ellipse;whiteSpace=wrap;html=1;fontFamily=Helvetica;fontSize=11;fontColor=default;labelBackgroundColor=default;" parent="1" vertex="1">
          <mxGeometry x="-328.47" y="-779" width="89.88" height="55" as="geometry" />
        </mxCell>
        <mxCell id="O06P7-NGEBOdylAl6Ql0-55" value="banka hesap no" style="ellipse;whiteSpace=wrap;html=1;fontFamily=Helvetica;fontSize=11;fontColor=default;labelBackgroundColor=default;" parent="1" vertex="1">
          <mxGeometry x="-339.5" y="-708.13" width="100" height="55.01" as="geometry" />
        </mxCell>
        <mxCell id="O06P7-NGEBOdylAl6Ql0-57" style="edgeStyle=none;shape=connector;rounded=0;orthogonalLoop=1;jettySize=auto;html=1;exitX=1;exitY=0.5;exitDx=0;exitDy=0;entryX=0;entryY=0.5;entryDx=0;entryDy=0;strokeColor=default;align=center;verticalAlign=middle;fontFamily=Helvetica;fontSize=11;fontColor=default;labelBackgroundColor=default;startFill=0;endArrow=none;" parent="1" source="O06P7-NGEBOdylAl6Ql0-56" target="EaoSCeDMWYsuYTVSq__j-1" edge="1">
          <mxGeometry relative="1" as="geometry" />
        </mxCell>
        <mxCell id="O06P7-NGEBOdylAl6Ql0-60" value="&lt;font style=&quot;font-size: 20px;&quot;&gt;n&lt;/font&gt;" style="edgeLabel;html=1;align=center;verticalAlign=middle;resizable=0;points=[];fontFamily=Helvetica;fontSize=11;fontColor=default;labelBackgroundColor=default;" parent="O06P7-NGEBOdylAl6Ql0-57" vertex="1" connectable="0">
          <mxGeometry x="-0.1668" y="6" relative="1" as="geometry">
            <mxPoint x="1" as="offset" />
          </mxGeometry>
        </mxCell>
        <mxCell id="O06P7-NGEBOdylAl6Ql0-56" value="bağlıdır" style="rhombus;whiteSpace=wrap;html=1;fontFamily=Helvetica;fontSize=11;fontColor=default;labelBackgroundColor=default;" parent="1" vertex="1">
          <mxGeometry x="-33.97" y="-945" width="72" height="65" as="geometry" />
        </mxCell>
        <mxCell id="O06P7-NGEBOdylAl6Ql0-62" style="edgeStyle=none;shape=connector;rounded=0;orthogonalLoop=1;jettySize=auto;html=1;exitX=1;exitY=0.5;exitDx=0;exitDy=0;entryX=0.5;entryY=0;entryDx=0;entryDy=0;strokeColor=default;align=center;verticalAlign=middle;fontFamily=Helvetica;fontSize=11;fontColor=default;labelBackgroundColor=default;startFill=0;endArrow=none;" parent="1" source="O06P7-NGEBOdylAl6Ql0-61" target="O06P7-NGEBOdylAl6Ql0-49" edge="1">
          <mxGeometry relative="1" as="geometry" />
        </mxCell>
        <mxCell id="O06P7-NGEBOdylAl6Ql0-61" value="banka id" style="ellipse;whiteSpace=wrap;html=1;fontFamily=Helvetica;fontSize=11;fontColor=default;labelBackgroundColor=default;" parent="1" vertex="1">
          <mxGeometry x="-327.78000000000003" y="-842.5" width="88.5" height="57.5" as="geometry" />
        </mxCell>
        <mxCell id="O06P7-NGEBOdylAl6Ql0-101" style="edgeStyle=none;shape=connector;rounded=0;orthogonalLoop=1;jettySize=auto;html=1;exitX=1;exitY=1;exitDx=0;exitDy=0;entryX=0.5;entryY=0;entryDx=0;entryDy=0;strokeColor=default;align=center;verticalAlign=middle;fontFamily=Helvetica;fontSize=11;fontColor=default;labelBackgroundColor=default;startFill=0;endArrow=none;" parent="1" source="O06P7-NGEBOdylAl6Ql0-69" target="8fD-S27WqBdFzqs_7WYE-144" edge="1">
          <mxGeometry relative="1" as="geometry" />
        </mxCell>
        <mxCell id="O06P7-NGEBOdylAl6Ql0-102" value="&lt;font style=&quot;font-size: 20px;&quot;&gt;n&lt;/font&gt;" style="edgeLabel;html=1;align=center;verticalAlign=middle;resizable=0;points=[];fontFamily=Helvetica;fontSize=11;fontColor=default;labelBackgroundColor=default;" parent="O06P7-NGEBOdylAl6Ql0-101" vertex="1" connectable="0">
          <mxGeometry x="0.1002" y="-2" relative="1" as="geometry">
            <mxPoint as="offset" />
          </mxGeometry>
        </mxCell>
        <mxCell id="O06P7-NGEBOdylAl6Ql0-69" value="olur" style="rhombus;whiteSpace=wrap;html=1;fontFamily=Helvetica;fontSize=11;fontColor=default;labelBackgroundColor=default;" parent="1" vertex="1">
          <mxGeometry x="1077.5" y="542.5" width="70" height="60" as="geometry" />
        </mxCell>
        <mxCell id="O06P7-NGEBOdylAl6Ql0-75" style="edgeStyle=none;shape=connector;rounded=0;orthogonalLoop=1;jettySize=auto;html=1;entryX=0.5;entryY=0;entryDx=0;entryDy=0;strokeColor=default;align=center;verticalAlign=middle;fontFamily=Helvetica;fontSize=11;fontColor=default;labelBackgroundColor=default;startFill=0;endArrow=none;" parent="1" source="8fD-S27WqBdFzqs_7WYE-184" target="8fD-S27WqBdFzqs_7WYE-184" edge="1">
          <mxGeometry relative="1" as="geometry" />
        </mxCell>
        <mxCell id="O06P7-NGEBOdylAl6Ql0-77" value="olur" style="rhombus;whiteSpace=wrap;html=1;fontFamily=Helvetica;fontSize=11;fontColor=default;labelBackgroundColor=default;" parent="1" vertex="1">
          <mxGeometry x="240" y="677.5" width="80" height="80" as="geometry" />
        </mxCell>
        <mxCell id="CwLL34Ni06w6Smd44Q-Q-15" style="edgeStyle=none;shape=connector;rounded=0;orthogonalLoop=1;jettySize=auto;html=1;exitX=1;exitY=0.5;exitDx=0;exitDy=0;entryX=0;entryY=0.5;entryDx=0;entryDy=0;strokeColor=default;align=center;verticalAlign=middle;fontFamily=Helvetica;fontSize=11;fontColor=default;labelBackgroundColor=default;startFill=0;endArrow=none;" parent="1" source="O06P7-NGEBOdylAl6Ql0-107" target="8fD-S27WqBdFzqs_7WYE-200" edge="1">
          <mxGeometry relative="1" as="geometry" />
        </mxCell>
        <mxCell id="O06P7-NGEBOdylAl6Ql0-107" value="birim fiyatı" style="ellipse;whiteSpace=wrap;html=1;fontFamily=Helvetica;fontSize=11;fontColor=default;labelBackgroundColor=default;" parent="1" vertex="1">
          <mxGeometry x="-1042" y="960" width="80" height="60" as="geometry" />
        </mxCell>
        <mxCell id="CwLL34Ni06w6Smd44Q-Q-16" style="edgeStyle=none;shape=connector;rounded=0;orthogonalLoop=1;jettySize=auto;html=1;exitX=1;exitY=0;exitDx=0;exitDy=0;entryX=0;entryY=1;entryDx=0;entryDy=0;strokeColor=default;align=center;verticalAlign=middle;fontFamily=Helvetica;fontSize=11;fontColor=default;labelBackgroundColor=default;startFill=0;endArrow=none;" parent="1" source="O06P7-NGEBOdylAl6Ql0-108" target="8fD-S27WqBdFzqs_7WYE-200" edge="1">
          <mxGeometry relative="1" as="geometry" />
        </mxCell>
        <mxCell id="O06P7-NGEBOdylAl6Ql0-108" value="çevrim&lt;div&gt;katsayısı&lt;/div&gt;" style="ellipse;whiteSpace=wrap;html=1;fontFamily=Helvetica;fontSize=11;fontColor=default;labelBackgroundColor=default;" parent="1" vertex="1">
          <mxGeometry x="-1050" y="1040" width="80" height="60" as="geometry" />
        </mxCell>
        <mxCell id="O06P7-NGEBOdylAl6Ql0-116" style="edgeStyle=none;shape=connector;rounded=0;orthogonalLoop=1;jettySize=auto;html=1;exitX=1;exitY=0.5;exitDx=0;exitDy=0;entryX=0.5;entryY=1;entryDx=0;entryDy=0;strokeColor=default;align=center;verticalAlign=middle;fontFamily=Helvetica;fontSize=11;fontColor=default;labelBackgroundColor=default;startFill=0;endArrow=none;" parent="1" source="O06P7-NGEBOdylAl6Ql0-112" target="8fD-S27WqBdFzqs_7WYE-104" edge="1">
          <mxGeometry relative="1" as="geometry">
            <Array as="points">
              <mxPoint x="580" y="1410" />
            </Array>
          </mxGeometry>
        </mxCell>
        <mxCell id="CwLL34Ni06w6Smd44Q-Q-13" value="&lt;font style=&quot;font-size: 20px;&quot;&gt;1&lt;/font&gt;" style="edgeLabel;html=1;align=center;verticalAlign=middle;resizable=0;points=[];fontFamily=Helvetica;fontSize=11;fontColor=default;labelBackgroundColor=default;" parent="O06P7-NGEBOdylAl6Ql0-116" vertex="1" connectable="0">
          <mxGeometry x="-0.2242" y="1" relative="1" as="geometry">
            <mxPoint as="offset" />
          </mxGeometry>
        </mxCell>
        <mxCell id="O06P7-NGEBOdylAl6Ql0-117" style="edgeStyle=orthogonalEdgeStyle;shape=connector;rounded=0;orthogonalLoop=1;jettySize=auto;html=1;exitX=0;exitY=0.5;exitDx=0;exitDy=0;strokeColor=default;align=center;verticalAlign=middle;fontFamily=Helvetica;fontSize=11;fontColor=default;labelBackgroundColor=default;startFill=0;endArrow=none;curved=1;entryX=0;entryY=0;entryDx=0;entryDy=0;" parent="1" source="O06P7-NGEBOdylAl6Ql0-112" target="8fD-S27WqBdFzqs_7WYE-256" edge="1">
          <mxGeometry relative="1" as="geometry">
            <mxPoint x="-2210" y="-660" as="targetPoint" />
          </mxGeometry>
        </mxCell>
        <mxCell id="CwLL34Ni06w6Smd44Q-Q-14" value="&lt;font style=&quot;font-size: 20px;&quot;&gt;1&lt;/font&gt;" style="edgeLabel;html=1;align=center;verticalAlign=middle;resizable=0;points=[];fontFamily=Helvetica;fontSize=11;fontColor=default;labelBackgroundColor=default;" parent="O06P7-NGEBOdylAl6Ql0-117" vertex="1" connectable="0">
          <mxGeometry x="-0.607" y="5" relative="1" as="geometry">
            <mxPoint as="offset" />
          </mxGeometry>
        </mxCell>
        <mxCell id="O06P7-NGEBOdylAl6Ql0-112" value="yönetir" style="rhombus;whiteSpace=wrap;html=1;fontFamily=Helvetica;fontSize=11;fontColor=default;labelBackgroundColor=default;" parent="1" vertex="1">
          <mxGeometry x="-1710" y="1450" width="80" height="80" as="geometry" />
        </mxCell>
        <mxCell id="CwLL34Ni06w6Smd44Q-Q-49" style="edgeStyle=none;shape=connector;rounded=0;orthogonalLoop=1;jettySize=auto;html=1;exitX=0.25;exitY=0;exitDx=0;exitDy=0;entryX=0.5;entryY=1;entryDx=0;entryDy=0;strokeColor=default;align=center;verticalAlign=middle;fontFamily=Helvetica;fontSize=11;fontColor=default;labelBackgroundColor=default;startFill=0;endArrow=none;" parent="1" source="O06P7-NGEBOdylAl6Ql0-133" target="CwLL34Ni06w6Smd44Q-Q-47" edge="1">
          <mxGeometry relative="1" as="geometry" />
        </mxCell>
        <mxCell id="CwLL34Ni06w6Smd44Q-Q-50" style="edgeStyle=none;shape=connector;rounded=0;orthogonalLoop=1;jettySize=auto;html=1;exitX=0.75;exitY=0;exitDx=0;exitDy=0;entryX=0.5;entryY=1;entryDx=0;entryDy=0;strokeColor=default;align=center;verticalAlign=middle;fontFamily=Helvetica;fontSize=11;fontColor=default;labelBackgroundColor=default;startFill=0;endArrow=none;" parent="1" source="O06P7-NGEBOdylAl6Ql0-133" target="CwLL34Ni06w6Smd44Q-Q-48" edge="1">
          <mxGeometry relative="1" as="geometry" />
        </mxCell>
        <mxCell id="atge_e-wKlO63fTJiIF2-11" style="edgeStyle=orthogonalEdgeStyle;rounded=0;orthogonalLoop=1;jettySize=auto;html=1;exitX=0;exitY=0.5;exitDx=0;exitDy=0;entryX=0.5;entryY=1;entryDx=0;entryDy=0;endArrow=none;startFill=0;" parent="1" source="O06P7-NGEBOdylAl6Ql0-133" target="atge_e-wKlO63fTJiIF2-10" edge="1">
          <mxGeometry relative="1" as="geometry" />
        </mxCell>
        <mxCell id="atge_e-wKlO63fTJiIF2-22" value="&lt;font style=&quot;font-size: 20px;&quot;&gt;n&lt;/font&gt;" style="edgeLabel;html=1;align=center;verticalAlign=middle;resizable=0;points=[];" parent="atge_e-wKlO63fTJiIF2-11" vertex="1" connectable="0">
          <mxGeometry x="-0.1462" y="-3" relative="1" as="geometry">
            <mxPoint as="offset" />
          </mxGeometry>
        </mxCell>
        <mxCell id="O06P7-NGEBOdylAl6Ql0-133" value="CADDE/SOKAK" style="rounded=0;whiteSpace=wrap;html=1;fontFamily=Helvetica;fontSize=11;labelBackgroundColor=default;fillColor=#f8cecc;strokeColor=#b85450;" parent="1" vertex="1">
          <mxGeometry x="1090" y="-70" width="120" height="60" as="geometry" />
        </mxCell>
        <mxCell id="CwLL34Ni06w6Smd44Q-Q-3" style="edgeStyle=none;shape=connector;rounded=0;orthogonalLoop=1;jettySize=auto;html=1;exitX=1;exitY=0.5;exitDx=0;exitDy=0;strokeColor=default;align=center;verticalAlign=middle;fontFamily=Helvetica;fontSize=11;fontColor=default;labelBackgroundColor=default;startFill=0;endArrow=none;" parent="1" source="CwLL34Ni06w6Smd44Q-Q-1" target="O06P7-NGEBOdylAl6Ql0-133" edge="1">
          <mxGeometry relative="1" as="geometry" />
        </mxCell>
        <mxCell id="CwLL34Ni06w6Smd44Q-Q-5" value="&lt;span style=&quot;font-size: 20px;&quot;&gt;n&lt;/span&gt;" style="edgeLabel;html=1;align=center;verticalAlign=middle;resizable=0;points=[];fontFamily=Helvetica;fontSize=11;fontColor=default;labelBackgroundColor=default;" parent="CwLL34Ni06w6Smd44Q-Q-3" vertex="1" connectable="0">
          <mxGeometry x="-0.0731" y="-1" relative="1" as="geometry">
            <mxPoint x="1" as="offset" />
          </mxGeometry>
        </mxCell>
        <mxCell id="CwLL34Ni06w6Smd44Q-Q-1" value="olur" style="rhombus;whiteSpace=wrap;html=1;" parent="1" vertex="1">
          <mxGeometry x="1120" y="-218.75" width="80" height="80" as="geometry" />
        </mxCell>
        <mxCell id="CwLL34Ni06w6Smd44Q-Q-9" style="edgeStyle=none;shape=connector;rounded=0;orthogonalLoop=1;jettySize=auto;html=1;exitX=1;exitY=0;exitDx=0;exitDy=0;entryX=0;entryY=0.75;entryDx=0;entryDy=0;strokeColor=default;align=center;verticalAlign=middle;fontFamily=Helvetica;fontSize=11;fontColor=default;labelBackgroundColor=default;startFill=0;endArrow=none;" parent="1" source="CwLL34Ni06w6Smd44Q-Q-6" target="8fD-S27WqBdFzqs_7WYE-6" edge="1">
          <mxGeometry relative="1" as="geometry" />
        </mxCell>
        <mxCell id="CwLL34Ni06w6Smd44Q-Q-6" value="Dış Kapı&lt;div&gt;No&lt;/div&gt;" style="ellipse;whiteSpace=wrap;html=1;fontFamily=Helvetica;fontSize=11;fontColor=default;labelBackgroundColor=default;" parent="1" vertex="1">
          <mxGeometry x="22.75" y="-458.12" width="77.25" height="58.12" as="geometry" />
        </mxCell>
        <mxCell id="CwLL34Ni06w6Smd44Q-Q-10" style="edgeStyle=none;shape=connector;rounded=0;orthogonalLoop=1;jettySize=auto;html=1;exitX=1;exitY=0;exitDx=0;exitDy=0;entryX=0;entryY=1;entryDx=0;entryDy=0;strokeColor=default;align=center;verticalAlign=middle;fontFamily=Helvetica;fontSize=11;fontColor=default;labelBackgroundColor=default;startFill=0;endArrow=none;" parent="1" source="CwLL34Ni06w6Smd44Q-Q-7" target="8fD-S27WqBdFzqs_7WYE-6" edge="1">
          <mxGeometry relative="1" as="geometry" />
        </mxCell>
        <mxCell id="CwLL34Ni06w6Smd44Q-Q-7" value="İç Kapı&lt;div&gt;No&lt;/div&gt;" style="ellipse;whiteSpace=wrap;html=1;fontFamily=Helvetica;fontSize=11;fontColor=default;labelBackgroundColor=default;" parent="1" vertex="1">
          <mxGeometry x="10" y="-390.62" width="80" height="60" as="geometry" />
        </mxCell>
        <mxCell id="CwLL34Ni06w6Smd44Q-Q-8" value="Adres&amp;nbsp;&lt;div&gt;Açıklaması&lt;/div&gt;" style="ellipse;whiteSpace=wrap;html=1;fontFamily=Helvetica;fontSize=11;fontColor=default;labelBackgroundColor=default;" parent="1" vertex="1">
          <mxGeometry x="50" y="-330.62" width="90" height="58.75" as="geometry" />
        </mxCell>
        <mxCell id="CwLL34Ni06w6Smd44Q-Q-21" style="edgeStyle=none;shape=connector;rounded=0;orthogonalLoop=1;jettySize=auto;html=1;exitX=0.5;exitY=1;exitDx=0;exitDy=0;entryX=0.75;entryY=0;entryDx=0;entryDy=0;strokeColor=default;align=center;verticalAlign=middle;fontFamily=Helvetica;fontSize=11;fontColor=default;labelBackgroundColor=default;startFill=0;endArrow=none;strokeWidth=1;" parent="1" source="CwLL34Ni06w6Smd44Q-Q-19" target="8fD-S27WqBdFzqs_7WYE-200" edge="1">
          <mxGeometry relative="1" as="geometry" />
        </mxCell>
        <mxCell id="0MR_cpgzw41BctGXZyxL-1" value="&lt;font style=&quot;font-size: 20px;&quot;&gt;1&lt;/font&gt;" style="edgeLabel;html=1;align=center;verticalAlign=middle;resizable=0;points=[];" parent="CwLL34Ni06w6Smd44Q-Q-21" vertex="1" connectable="0">
          <mxGeometry x="-0.0288" relative="1" as="geometry">
            <mxPoint as="offset" />
          </mxGeometry>
        </mxCell>
        <mxCell id="CwLL34Ni06w6Smd44Q-Q-19" value="olur" style="rhombus;whiteSpace=wrap;html=1;fontFamily=Helvetica;fontSize=11;fontColor=default;labelBackgroundColor=default;" parent="1" vertex="1">
          <mxGeometry x="-796.5" y="697.5" width="80" height="80" as="geometry" />
        </mxCell>
        <mxCell id="CwLL34Ni06w6Smd44Q-Q-33" style="edgeStyle=none;shape=connector;rounded=0;orthogonalLoop=1;jettySize=auto;html=1;exitX=0.5;exitY=0;exitDx=0;exitDy=0;entryX=0.378;entryY=0.959;entryDx=0;entryDy=0;entryPerimeter=0;strokeColor=default;align=center;verticalAlign=middle;fontFamily=Helvetica;fontSize=11;fontColor=default;labelBackgroundColor=default;startFill=0;endArrow=none;" parent="1" source="8fD-S27WqBdFzqs_7WYE-5" target="EaoSCeDMWYsuYTVSq__j-1" edge="1">
          <mxGeometry relative="1" as="geometry" />
        </mxCell>
        <mxCell id="CwLL34Ni06w6Smd44Q-Q-34" value="&lt;font style=&quot;font-size: 20px;&quot;&gt;1&lt;/font&gt;" style="edgeLabel;html=1;align=center;verticalAlign=middle;resizable=0;points=[];fontFamily=Helvetica;fontSize=11;fontColor=default;labelBackgroundColor=default;" parent="CwLL34Ni06w6Smd44Q-Q-33" vertex="1" connectable="0">
          <mxGeometry x="0.2815" y="1" relative="1" as="geometry">
            <mxPoint as="offset" />
          </mxGeometry>
        </mxCell>
        <mxCell id="CwLL34Ni06w6Smd44Q-Q-38" style="edgeStyle=none;shape=connector;rounded=0;orthogonalLoop=1;jettySize=auto;html=1;exitX=0.5;exitY=0;exitDx=0;exitDy=0;entryX=0.75;entryY=1;entryDx=0;entryDy=0;strokeColor=default;align=center;verticalAlign=middle;fontFamily=Helvetica;fontSize=11;fontColor=default;labelBackgroundColor=default;startFill=0;endArrow=none;" parent="1" source="CwLL34Ni06w6Smd44Q-Q-36" target="EaoSCeDMWYsuYTVSq__j-1" edge="1">
          <mxGeometry relative="1" as="geometry" />
        </mxCell>
        <mxCell id="CwLL34Ni06w6Smd44Q-Q-44" value="&lt;span style=&quot;font-size: 17px;&quot;&gt;1&lt;/span&gt;" style="edgeLabel;html=1;align=center;verticalAlign=middle;resizable=0;points=[];fontFamily=Helvetica;fontSize=11;fontColor=default;labelBackgroundColor=default;" parent="CwLL34Ni06w6Smd44Q-Q-38" vertex="1" connectable="0">
          <mxGeometry x="0.013" y="-1" relative="1" as="geometry">
            <mxPoint as="offset" />
          </mxGeometry>
        </mxCell>
        <mxCell id="CwLL34Ni06w6Smd44Q-Q-36" value="teslim&amp;nbsp;&lt;div&gt;edilir&lt;/div&gt;" style="rhombus;whiteSpace=wrap;html=1;fontFamily=Helvetica;fontSize=11;fontColor=default;labelBackgroundColor=default;" parent="1" vertex="1">
          <mxGeometry x="366.03" y="-782.5" width="62" height="62.5" as="geometry" />
        </mxCell>
        <mxCell id="CwLL34Ni06w6Smd44Q-Q-46" style="edgeStyle=none;shape=connector;rounded=0;orthogonalLoop=1;jettySize=auto;html=1;exitX=1;exitY=0.5;exitDx=0;exitDy=0;entryX=0;entryY=0;entryDx=0;entryDy=0;strokeColor=default;align=center;verticalAlign=middle;fontFamily=Helvetica;fontSize=11;fontColor=default;labelBackgroundColor=default;startFill=0;endArrow=none;" parent="1" source="CwLL34Ni06w6Smd44Q-Q-45" target="EaoSCeDMWYsuYTVSq__j-1" edge="1">
          <mxGeometry relative="1" as="geometry" />
        </mxCell>
        <mxCell id="CwLL34Ni06w6Smd44Q-Q-45" value="müşteriID" style="ellipse;whiteSpace=wrap;html=1;fontFamily=Helvetica;fontSize=11;fontColor=default;labelBackgroundColor=default;" parent="1" vertex="1">
          <mxGeometry x="58.03" y="-1131.25" width="80" height="50" as="geometry" />
        </mxCell>
        <mxCell id="CwLL34Ni06w6Smd44Q-Q-47" value="cadde/sokak&lt;div&gt;ID&lt;/div&gt;" style="ellipse;whiteSpace=wrap;html=1;fontFamily=Helvetica;fontSize=11;fontColor=default;labelBackgroundColor=default;" parent="1" vertex="1">
          <mxGeometry x="1001.5" y="-149" width="90" height="56.24" as="geometry" />
        </mxCell>
        <mxCell id="CwLL34Ni06w6Smd44Q-Q-48" value="ad" style="ellipse;whiteSpace=wrap;html=1;fontFamily=Helvetica;fontSize=11;fontColor=default;labelBackgroundColor=default;" parent="1" vertex="1">
          <mxGeometry x="1265.5" y="-115" width="70" height="50" as="geometry" />
        </mxCell>
        <mxCell id="CwLL34Ni06w6Smd44Q-Q-51" value="depo ID" style="ellipse;whiteSpace=wrap;html=1;fontFamily=Helvetica;fontSize=11;fontColor=default;labelBackgroundColor=default;" parent="1" vertex="1">
          <mxGeometry x="-997.5" y="-604" width="97.5" height="74" as="geometry" />
        </mxCell>
        <mxCell id="CwLL34Ni06w6Smd44Q-Q-52" style="edgeStyle=none;shape=connector;rounded=0;orthogonalLoop=1;jettySize=auto;html=1;exitX=1;exitY=0.5;exitDx=0;exitDy=0;entryX=0.132;entryY=0.032;entryDx=0;entryDy=0;entryPerimeter=0;strokeColor=default;align=center;verticalAlign=middle;fontFamily=Helvetica;fontSize=11;fontColor=default;labelBackgroundColor=default;startFill=0;endArrow=none;" parent="1" source="CwLL34Ni06w6Smd44Q-Q-51" target="8fD-S27WqBdFzqs_7WYE-256" edge="1">
          <mxGeometry relative="1" as="geometry" />
        </mxCell>
        <mxCell id="CwLL34Ni06w6Smd44Q-Q-54" style="edgeStyle=none;shape=connector;rounded=0;orthogonalLoop=1;jettySize=auto;html=1;exitX=1;exitY=0.5;exitDx=0;exitDy=0;entryX=0;entryY=0.25;entryDx=0;entryDy=0;strokeColor=default;align=center;verticalAlign=middle;fontFamily=Helvetica;fontSize=11;fontColor=default;labelBackgroundColor=default;startFill=0;endArrow=none;" parent="1" source="CwLL34Ni06w6Smd44Q-Q-53" target="8fD-S27WqBdFzqs_7WYE-404" edge="1">
          <mxGeometry relative="1" as="geometry" />
        </mxCell>
        <mxCell id="CwLL34Ni06w6Smd44Q-Q-53" value="irsaliye&lt;div&gt;ID&lt;/div&gt;" style="ellipse;whiteSpace=wrap;html=1;fontFamily=Helvetica;fontSize=11;fontColor=default;labelBackgroundColor=default;" parent="1" vertex="1">
          <mxGeometry x="-1480" y="20" width="90" height="60" as="geometry" />
        </mxCell>
        <mxCell id="CwLL34Ni06w6Smd44Q-Q-56" style="edgeStyle=none;shape=connector;rounded=0;orthogonalLoop=1;jettySize=auto;html=1;exitX=0.5;exitY=1;exitDx=0;exitDy=0;entryX=0.75;entryY=0;entryDx=0;entryDy=0;strokeColor=default;align=center;verticalAlign=middle;fontFamily=Helvetica;fontSize=11;fontColor=default;labelBackgroundColor=default;startFill=0;endArrow=none;" parent="1" source="CwLL34Ni06w6Smd44Q-Q-55" target="8fD-S27WqBdFzqs_7WYE-305" edge="1">
          <mxGeometry relative="1" as="geometry" />
        </mxCell>
        <mxCell id="CwLL34Ni06w6Smd44Q-Q-55" value="sipariş ID" style="ellipse;whiteSpace=wrap;html=1;fontFamily=Helvetica;fontSize=11;fontColor=default;labelBackgroundColor=default;" parent="1" vertex="1">
          <mxGeometry x="-97" y="-65" width="80" height="65.5" as="geometry" />
        </mxCell>
        <mxCell id="CwLL34Ni06w6Smd44Q-Q-58" style="edgeStyle=none;shape=connector;rounded=0;orthogonalLoop=1;jettySize=auto;html=1;exitX=1;exitY=1;exitDx=0;exitDy=0;entryX=0.25;entryY=0;entryDx=0;entryDy=0;strokeColor=default;align=center;verticalAlign=middle;fontFamily=Helvetica;fontSize=11;fontColor=default;labelBackgroundColor=default;startFill=0;endArrow=none;" parent="1" source="CwLL34Ni06w6Smd44Q-Q-57" target="8fD-S27WqBdFzqs_7WYE-445" edge="1">
          <mxGeometry relative="1" as="geometry" />
        </mxCell>
        <mxCell id="CwLL34Ni06w6Smd44Q-Q-57" value="tahsilat&lt;div&gt;ID&lt;/div&gt;" style="ellipse;whiteSpace=wrap;html=1;fontFamily=Helvetica;fontSize=11;fontColor=default;labelBackgroundColor=default;" parent="1" vertex="1">
          <mxGeometry x="761.5" y="23" width="80" height="60" as="geometry" />
        </mxCell>
        <mxCell id="CwLL34Ni06w6Smd44Q-Q-60" style="edgeStyle=none;shape=connector;rounded=0;orthogonalLoop=1;jettySize=auto;html=1;exitX=0.5;exitY=0;exitDx=0;exitDy=0;entryX=0.25;entryY=1;entryDx=0;entryDy=0;strokeColor=default;align=center;verticalAlign=middle;fontFamily=Helvetica;fontSize=11;fontColor=default;labelBackgroundColor=default;startFill=0;endArrow=none;" parent="1" source="CwLL34Ni06w6Smd44Q-Q-59" target="8fD-S27WqBdFzqs_7WYE-104" edge="1">
          <mxGeometry relative="1" as="geometry" />
        </mxCell>
        <mxCell id="CwLL34Ni06w6Smd44Q-Q-59" value="personel ID" style="ellipse;whiteSpace=wrap;html=1;fontFamily=Helvetica;fontSize=11;fontColor=default;labelBackgroundColor=default;" parent="1" vertex="1">
          <mxGeometry x="672.53" y="867.5" width="80.47" height="56.25" as="geometry" />
        </mxCell>
        <mxCell id="CwLL34Ni06w6Smd44Q-Q-63" style="edgeStyle=none;shape=connector;rounded=0;orthogonalLoop=1;jettySize=auto;html=1;exitX=0.5;exitY=0;exitDx=0;exitDy=0;entryX=0.5;entryY=1;entryDx=0;entryDy=0;strokeColor=default;align=center;verticalAlign=middle;fontFamily=Helvetica;fontSize=11;fontColor=default;labelBackgroundColor=default;startFill=0;endArrow=none;" parent="1" source="CwLL34Ni06w6Smd44Q-Q-61" target="8fD-S27WqBdFzqs_7WYE-171" edge="1">
          <mxGeometry relative="1" as="geometry" />
        </mxCell>
        <mxCell id="CwLL34Ni06w6Smd44Q-Q-61" value="ürün ID" style="ellipse;whiteSpace=wrap;html=1;fontFamily=Helvetica;fontSize=11;fontColor=default;labelBackgroundColor=default;" parent="1" vertex="1">
          <mxGeometry x="-239.5" y="933.75" width="97.5" height="60" as="geometry" />
        </mxCell>
        <mxCell id="CwLL34Ni06w6Smd44Q-Q-64" value="birim seti&lt;div&gt;ID&lt;/div&gt;" style="ellipse;whiteSpace=wrap;html=1;fontFamily=Helvetica;fontSize=11;fontColor=default;labelBackgroundColor=default;" parent="1" vertex="1">
          <mxGeometry x="-860" y="1118.75" width="100" height="71.25" as="geometry" />
        </mxCell>
        <mxCell id="CwLL34Ni06w6Smd44Q-Q-69" value="sipariş ürün&lt;div&gt;ID&lt;/div&gt;" style="ellipse;whiteSpace=wrap;html=1;fontFamily=Helvetica;fontSize=11;fontColor=default;labelBackgroundColor=default;" parent="1" vertex="1">
          <mxGeometry x="-633" y="450" width="76" height="70" as="geometry" />
        </mxCell>
        <mxCell id="atge_e-wKlO63fTJiIF2-1" value="olur" style="rhombus;whiteSpace=wrap;html=1;" parent="1" vertex="1">
          <mxGeometry x="729.03" y="-514.37" width="80" height="80" as="geometry" />
        </mxCell>
        <mxCell id="atge_e-wKlO63fTJiIF2-12" style="edgeStyle=orthogonalEdgeStyle;rounded=1;orthogonalLoop=1;jettySize=auto;html=1;exitX=0;exitY=0.5;exitDx=0;exitDy=0;entryX=1;entryY=0.75;entryDx=0;entryDy=0;curved=0;endArrow=none;startFill=0;" parent="1" source="atge_e-wKlO63fTJiIF2-7" target="8fD-S27WqBdFzqs_7WYE-6" edge="1">
          <mxGeometry relative="1" as="geometry">
            <Array as="points">
              <mxPoint x="545" y="-360" />
              <mxPoint x="545" y="-449" />
            </Array>
          </mxGeometry>
        </mxCell>
        <mxCell id="atge_e-wKlO63fTJiIF2-18" value="&lt;font style=&quot;font-size: 20px;&quot;&gt;1&lt;/font&gt;" style="edgeLabel;html=1;align=center;verticalAlign=middle;resizable=0;points=[];" parent="atge_e-wKlO63fTJiIF2-12" vertex="1" connectable="0">
          <mxGeometry x="-0.1232" y="1" relative="1" as="geometry">
            <mxPoint as="offset" />
          </mxGeometry>
        </mxCell>
        <mxCell id="atge_e-wKlO63fTJiIF2-7" value="olur" style="rhombus;whiteSpace=wrap;html=1;" parent="1" vertex="1">
          <mxGeometry x="739" y="-400" width="80" height="80" as="geometry" />
        </mxCell>
        <mxCell id="atge_e-wKlO63fTJiIF2-13" style="edgeStyle=orthogonalEdgeStyle;rounded=0;orthogonalLoop=1;jettySize=auto;html=1;exitX=0;exitY=0.5;exitDx=0;exitDy=0;entryX=0.75;entryY=1;entryDx=0;entryDy=0;endArrow=none;startFill=0;" parent="1" source="atge_e-wKlO63fTJiIF2-10" target="8fD-S27WqBdFzqs_7WYE-6" edge="1">
          <mxGeometry relative="1" as="geometry">
            <Array as="points">
              <mxPoint x="774" y="-260" />
              <mxPoint x="322" y="-260" />
            </Array>
          </mxGeometry>
        </mxCell>
        <mxCell id="atge_e-wKlO63fTJiIF2-23" value="&lt;font style=&quot;font-size: 20px;&quot;&gt;1&lt;/font&gt;" style="edgeLabel;html=1;align=center;verticalAlign=middle;resizable=0;points=[];" parent="atge_e-wKlO63fTJiIF2-13" vertex="1" connectable="0">
          <mxGeometry x="-0.1844" y="2" relative="1" as="geometry">
            <mxPoint x="-1" as="offset" />
          </mxGeometry>
        </mxCell>
        <mxCell id="atge_e-wKlO63fTJiIF2-10" value="olur" style="rhombus;whiteSpace=wrap;html=1;" parent="1" vertex="1">
          <mxGeometry x="774" y="-229" width="80" height="80" as="geometry" />
        </mxCell>
      </root>
    </mxGraphModel>
  </diagram>
</mxfile>
